<?xml version="1.0" encoding="utf-8" standalone="no"?>
<!DOCTYPE svg PUBLIC "-//W3C//DTD SVG 1.1//EN"
  "http://www.w3.org/Graphics/SVG/1.1/DTD/svg11.dtd">
<svg xmlns:xlink="http://www.w3.org/1999/xlink" width="284.4pt" height="284.4pt" viewBox="0 0 284.4 284.4" xmlns="http://www.w3.org/2000/svg" version="1.1">
 <metadata>
  <rdf:RDF xmlns:dc="http://purl.org/dc/elements/1.1/" xmlns:cc="http://creativecommons.org/ns#" xmlns:rdf="http://www.w3.org/1999/02/22-rdf-syntax-ns#">
   <cc:Work>
    <dc:type rdf:resource="http://purl.org/dc/dcmitype/StillImage"/>
    <dc:date>2023-03-30T13:43:16.670099</dc:date>
    <dc:format>image/svg+xml</dc:format>
    <dc:creator>
     <cc:Agent>
      <dc:title>Matplotlib v3.5.0, https://matplotlib.org/</dc:title>
     </cc:Agent>
    </dc:creator>
   </cc:Work>
  </rdf:RDF>
 </metadata>
 <defs>
  <style type="text/css">*{stroke-linejoin: round; stroke-linecap: butt}</style>
 </defs>
 <g id="figure_1">
  <g id="patch_1">
   <path d="M 0 284.4 
L 284.4 284.4 
L 284.4 0 
L 0 0 
z
" style="fill: #ffffff"/>
  </g>
  <g id="patch_2">
   <path d="M 3.6 280.8 
L 280.8 280.8 
L 280.8 3.6 
L 3.6 3.6 
z
" style="fill: #ffffff"/>
  </g>
  <g id="pane3d_1">
   <g id="patch_3">
    <path d="M 23.473837 212.864566 
L 116.041922 157.862646 
L 115.181342 39.948792 
L 19.595213 84.845582 
" style="fill: #f2f2f2; opacity: 0.5; stroke: #f2f2f2; stroke-linejoin: miter"/>
   </g>
  </g>
  <g id="pane3d_2">
   <g id="patch_4">
    <path d="M 116.041922 157.862646 
L 263.576294 188.362615 
L 267.149834 64.814077 
L 115.181342 39.948792 
" style="fill: #e6e6e6; opacity: 0.5; stroke: #e6e6e6; stroke-linejoin: miter"/>
   </g>
  </g>
  <g id="pane3d_3">
   <g id="patch_5">
    <path d="M 23.473837 212.864566 
L 180.71733 249.788636 
L 263.576294 188.362615 
L 116.041922 157.862646 
" style="fill: #ececec; opacity: 0.5; stroke: #ececec; stroke-linejoin: miter"/>
   </g>
  </g>
  <g id="axis3d_1">
   <g id="line2d_1">
    <path d="M 23.473837 212.864566 
L 180.71733 249.788636 
" style="fill: none; stroke: #000000; stroke-width: 0.5; stroke-linecap: square"/>
   </g>
  </g>
  <g id="axis3d_2">
   <g id="line2d_2">
    <path d="M 263.576294 188.362615 
L 180.71733 249.788636 
" style="fill: none; stroke: #000000; stroke-width: 0.5; stroke-linecap: square"/>
   </g>
  </g>
  <g id="axis3d_3">
   <g id="line2d_3">
    <path d="M 263.576294 188.362615 
L 267.149834 64.814077 
" style="fill: none; stroke: #000000; stroke-width: 0.5; stroke-linecap: square"/>
   </g>
  </g>
  <g id="axes_1">
   <g id="line2d_4">
    <path d="M 28.39732 209.873199 
L 31.256233 210.540048 
L 31.278029 208.173473 
L 31.524573 210.602639 
L 31.590551 203.493439 
L 32.061417 210.727859 
L 32.083721 208.360681 
L 32.173273 208.381489 
L 32.262831 208.402299 
L 32.508952 210.832248 
L 32.688009 210.874013 
L 32.689227 201.365039 
L 32.95852 201.426885 
L 33.115066 203.844933 
L 33.13808 201.468123 
L 33.427633 208.672948 
L 33.450817 206.301805 
L 33.540516 206.322567 
L 33.719933 206.364095 
L 33.543843 196.78752 
L 33.76673 201.6125 
L 33.90359 196.869492 
L 33.993541 196.889988 
L 33.907825 187.286082 
L 33.998 187.306303 
L 34.287221 194.564913 
L 34.06912 180.102312 
L 34.159474 180.122327 
L 34.472931 185.008773 
L 34.496926 182.607098 
L 34.188252 168.035014 
L 34.545006 177.794673 
L 34.236116 163.186735 
L 34.750097 175.423677 
L 34.780765 163.303901 
L 34.605204 153.511027 
L 35.053173 163.362502 
L 35.011282 158.481277 
L 35.300993 165.847635 
L 35.375022 158.558857 
L 35.2671 151.203969 
L 35.55693 158.597655 
L 35.382989 148.778188 
L 35.474167 148.797299 
L 35.499032 146.349158 
L 35.722732 151.299888 
L 35.640219 141.462429 
L 36.153249 153.838348 
L 36.04659 146.463416 
L 36.492284 156.355118 
L 36.411754 146.539615 
L 36.568803 149.026728 
L 37.117689 166.240112 
L 36.685693 146.596777 
L 36.908108 151.549432 
L 36.933882 149.103246 
L 36.854281 139.249668 
L 37.076931 144.220529 
L 37.037305 139.28735 
L 37.194331 141.783842 
L 37.638097 151.703108 
L 37.924003 159.102513 
L 37.560269 141.859524 
L 37.65177 141.878447 
L 37.808385 144.372483 
L 37.861227 139.456984 
L 38.562015 159.238591 
L 38.330516 146.94 
L 38.899739 161.751823 
L 38.92673 159.316379 
L 38.760787 149.486155 
L 38.980816 154.436212 
L 39.392064 166.731466 
L 39.318807 156.955367 
L 39.537821 161.888503 
L 39.946742 174.141375 
L 39.327241 139.758816 
L 39.739056 152.145398 
L 39.70276 147.226345 
L 39.501468 132.377177 
L 40.196227 152.241641 
L 40.351159 154.725959 
L 40.024842 134.959566 
L 40.244323 139.94763 
L 40.236562 132.52647 
L 40.519572 140.0043 
L 40.38476 127.594359 
L 40.858262 142.541597 
L 40.759764 135.109509 
L 41.070239 140.117674 
L 40.902056 122.722774 
L 41.563427 145.152565 
L 41.368748 130.275945 
L 42.147203 150.195928 
L 42.17638 147.742513 
L 42.546653 155.190178 
L 42.451511 147.799924 
L 42.821345 155.248259 
L 42.788848 150.330413 
L 43.128175 160.212479 
L 43.157913 157.770652 
L 43.43431 165.165467 
L 43.402644 160.271019 
L 43.185473 147.953079 
L 43.585655 160.310052 
L 43.492506 152.935568 
L 43.830045 162.807911 
L 43.860218 160.368612 
L 44.37895 177.539104 
L 44.409365 175.117726 
L 44.378968 170.245943 
L 44.622402 172.733059 
L 44.713703 172.752951 
L 44.562018 162.964703 
L 44.77508 167.894408 
L 44.501584 145.762945 
L 44.654612 148.259642 
L 44.654612 148.259642 
" clip-path="url(#p36a7d93751)" style="fill: none; stroke: #0000ff; stroke-width: 0.5; stroke-linecap: square"/>
   </g>
   <g id="line2d_5">
    <path d="M 44.989964 158.159712 
L 45.173307 158.198647 
L 45.143716 153.283178 
L 45.929713 177.879802 
L 46.441881 187.681873 
L 46.055611 168.171053 
L 46.801737 194.998918 
L 46.628264 180.46034 
L 46.810808 180.500611 
L 46.577025 163.396324 
L 46.668688 163.415959 
L 47.181214 173.290548 
L 47.008137 158.588298 
L 47.15941 161.072276 
L 47.072721 153.689269 
L 47.402225 163.573085 
L 47.434712 161.130994 
L 47.585673 163.61238 
L 47.262013 146.336403 
L 47.413629 148.835363 
L 48.129123 171.059559 
L 48.546225 180.883458 
L 48.3784 166.229049 
L 48.470131 166.248782 
L 49.210618 185.879836 
L 49.12816 178.58249 
L 49.484635 185.940785 
L 49.436329 176.217545 
L 49.643444 181.125514 
L 49.571391 166.485687 
L 49.663204 166.505438 
L 50.100886 181.226429 
L 50.077488 176.357821 
L 49.707141 156.704201 
L 50.432669 183.727144 
L 50.409692 178.864039 
L 50.729693 188.639497 
L 50.798599 183.808205 
L 50.604517 171.596608 
L 51.073113 183.869015 
L 51.050921 179.004915 
L 51.426049 191.214426 
L 51.063428 171.696171 
L 51.417476 179.085446 
L 52.065779 191.357881 
L 52.044843 186.510247 
L 52.451914 196.276164 
L 52.263325 184.132669 
L 52.670174 193.910953 
L 52.705816 191.501405 
L 53.202212 201.266882 
L 53.274095 196.462021 
L 53.531208 203.748235 
L 53.382261 189.231911 
L 53.786179 198.990353 
L 53.877542 199.011088 
L 54.315938 206.331876 
L 54.206545 189.416004 
L 54.462584 196.730684 
L 54.389788 189.456929 
L 54.645523 196.772038 
L 54.719361 191.952929 
L 54.8655 194.405229 
L 54.793387 187.121601 
L 55.248742 199.322293 
L 55.269037 192.07619 
L 55.776371 206.667282 
L 55.598078 194.570168 
L 55.942936 201.891385 
L 56.109933 197.103074 
L 56.293097 197.144479 
L 56.223606 189.866487 
L 56.369069 192.322865 
L 56.728078 204.479557 
L 56.712908 199.654597 
L 56.804471 199.675378 
L 57.093922 204.563248 
L 57.185399 204.584174 
L 57.329834 207.024054 
L 57.262384 199.779304 
L 57.406958 202.224977 
L 57.445593 199.820885 
L 57.839703 209.54548 
L 57.95638 202.350169 
L 58.10051 204.793517 
L 58.16527 195.148169 
L 58.151828 190.297128 
L 58.453691 200.049681 
L 58.532415 195.230832 
L 58.624217 195.251501 
L 58.716025 195.272171 
L 58.795187 190.440814 
L 59.031222 192.919835 
L 59.018837 188.061459 
L 59.30692 192.981658 
L 59.386899 188.143327 
L 59.530834 190.60511 
L 59.921374 200.382783 
L 59.84712 188.245693 
L 59.939183 188.26617 
L 60.226324 193.187829 
L 60.266886 190.769497 
L 60.410281 193.22908 
L 60.296672 183.475704 
L 60.737401 195.727283 
L 61.033082 205.464377 
L 61.064197 198.223005 
L 60.952295 188.491515 
L 61.238398 193.414779 
L 61.666341 200.778817 
L 61.555951 191.057392 
L 61.790762 193.538643 
L 62.084254 203.290747 
L 62.025323 196.017257 
L 62.117365 196.03798 
L 62.501781 205.800359 
L 62.535657 198.555635 
L 62.677625 201.008335 
L 62.769598 201.029209 
L 63.102568 208.349832 
L 63.144844 205.947468 
L 63.236736 205.968489 
L 63.130243 196.266029 
L 63.463046 203.604919 
L 63.738974 203.667793 
L 63.781716 201.258917 
L 64.113064 208.581905 
L 64.302727 213.442774 
L 64.345729 211.045518 
L 64.291003 203.793578 
L 64.718549 215.943598 
L 64.761794 213.549029 
L 64.902101 215.986247 
L 64.896986 211.172617 
L 65.129161 213.63406 
L 65.172699 211.236186 
L 65.544729 216.135566 
L 65.636559 216.156903 
L 65.632347 211.342163 
L 65.724295 211.363362 
L 65.864196 213.804191 
L 65.908211 211.405766 
L 66.048018 213.846738 
L 66.092153 211.448176 
L 66.231865 213.889291 
L 66.320429 209.088853 
L 66.221394 199.388811 
L 66.504541 209.131136 
L 66.501391 204.297238 
L 66.688677 209.173426 
L 66.733283 206.768365 
L 66.872839 209.215721 
L 66.917565 206.810522 
L 67.10428 211.681534 
L 67.149129 209.279174 
L 67.427485 214.166029 
L 67.566427 216.605321 
L 67.656672 211.808894 
L 67.934336 216.690807 
L 68.023787 207.063583 
L 68.16268 209.511948 
L 68.347044 209.55429 
L 68.716687 219.277792 
L 68.946336 207.274627 
L 69.038625 207.29574 
L 69.269246 209.766085 
L 69.453762 209.808461 
L 69.591836 212.255068 
L 69.777172 207.464691 
L 70.053 212.361395 
L 70.145252 212.382664 
L 70.375096 214.848281 
L 70.422046 212.446482 
L 70.789055 217.35412 
L 70.881244 217.37554 
L 71.06812 212.595442 
L 71.160442 212.616728 
L 71.389834 215.083152 
L 71.48812 205.433516 
L 71.625317 207.887476 
L 71.762358 210.338658 
L 71.813679 203.081834 
L 72.128306 215.254079 
L 72.176399 212.850969 
L 72.268797 212.872272 
L 72.634034 217.782813 
L 72.682427 215.382335 
L 72.774803 215.403716 
L 72.867185 215.425099 
L 73.003334 217.868622 
L 73.051968 215.467869 
L 73.188022 217.911536 
L 73.285593 213.106706 
L 73.649853 218.018845 
L 73.83463 218.061779 
L 74.062548 220.524727 
L 74.253678 215.746016 
L 74.481549 218.212095 
L 74.573992 218.233575 
L 74.537918 210.976099 
L 74.630535 210.99737 
L 74.943825 218.319508 
L 74.993726 215.917307 
L 75.08626 215.938725 
L 75.271349 215.981566 
L 75.321494 213.576106 
L 75.414109 213.597459 
L 75.549029 216.045837 
L 75.599356 213.64017 
L 75.826766 216.110122 
L 75.919358 216.131554 
L 75.969928 213.72561 
L 76.104561 216.174421 
L 76.07126 208.904538 
L 76.424175 218.663477 
L 76.516751 218.684987 
L 76.56768 216.281614 
L 76.660323 216.303057 
L 76.887118 218.771045 
L 77.257587 218.857126 
L 77.309001 216.4532 
L 77.401695 216.474655 
L 77.957993 216.603415 
L 78.132253 221.473996 
L 78.184207 219.072432 
L 78.276904 219.093971 
L 78.925962 219.244783 
L 79.151604 221.711762 
L 79.337023 221.755012 
L 79.442577 216.947036 
L 79.535417 216.968525 
L 79.999717 217.075992 
L 80.225016 219.546627 
L 80.278374 217.14049 
L 80.503548 219.611346 
L 80.689268 219.654499 
L 80.821298 222.101222 
L 80.928798 217.291036 
L 81.060784 219.740823 
L 81.114691 217.334063 
L 81.207647 217.355578 
L 81.564048 222.274471 
L 81.618251 219.870355 
L 81.7498 222.317798 
L 81.858519 217.506229 
L 82.028475 222.382799 
L 82.04454 217.549285 
L 82.26892 220.021542 
L 82.323619 217.613881 
L 82.678941 222.534522 
L 83.143752 222.642941 
L 83.254302 217.829296 
L 83.515716 222.729702 
L 83.887782 222.816488 
L 83.943511 220.410644 
L 84.073854 222.859889 
L 84.129705 220.453907 
L 84.35301 222.925003 
L 84.725307 223.011842 
L 84.781587 220.605376 
L 84.874738 220.627021 
L 85.061061 220.670314 
L 85.283946 223.142146 
L 86.588335 223.446398 
L 86.64584 221.038548 
L 86.739121 221.060222 
L 87.205619 221.168616 
L 87.263566 218.757279 
L 87.614097 223.68566 
L 87.672277 221.277047 
L 87.765629 221.298738 
L 87.987294 223.772709 
L 88.080609 223.794475 
L 88.139098 221.385516 
L 88.360594 223.859782 
L 90.602562 224.382727 
L 90.662714 221.971895 
L 90.789561 224.426345 
L 90.849836 222.015374 
L 90.943407 222.037116 
L 91.163635 224.513598 
L 92.005681 224.710008 
L 92.06676 222.298134 
L 92.286479 224.775505 
L 99.231321 226.395406 
L 99.297189 223.978172 
L 99.51362 226.461253 
L 100.172546 226.614949 
L 100.239039 224.197017 
L 100.33326 224.21891 
L 100.549219 226.702809 
L 100.643404 226.724778 
L 100.71021 224.306496 
L 100.925996 226.790693 
L 102.905793 227.252486 
L 102.974105 224.832527 
L 103.068515 224.854464 
L 103.729575 225.008066 
L 103.943981 227.494646 
L 104.038401 227.51667 
L 104.107468 225.095872 
L 104.201957 225.117827 
L 104.296453 225.139784 
L 104.365735 222.715739 
L 104.4603 222.737627 
L 104.579981 225.205663 
L 104.649452 222.781408 
L 104.888477 227.714952 
L 104.95811 225.293524 
L 105.077455 227.759031 
L 105.147214 225.337464 
L 105.360971 227.825162 
L 106.874055 228.178093 
L 106.945014 225.755194 
L 107.157945 228.244311 
L 118.944108 230.993463 
L 119.023164 228.561631 
L 119.118692 228.583828 
L 119.30977 228.628226 
L 119.421496 231.104815 
L 119.500874 228.672631 
L 119.596436 228.694835 
L 120.169949 228.828095 
L 120.376774 231.327636 
L 120.456796 228.894745 
L 120.56791 231.372219 
L 120.64806 228.939187 
L 120.64806 228.939187 
" clip-path="url(#p36a7d93751)" style="fill: none; stroke: #808080; stroke-width: 0.5; stroke-linecap: square"/>
   </g>
   <g id="line2d_6">
    <path d="M 117.021882 200.876642 
L 119.842388 201.503913 
L 119.918339 199.166437 
L 120.024556 201.544426 
L 120.267997 196.886464 
L 120.359213 196.906593 
L 120.512054 192.21671 
L 120.724139 196.987123 
L 120.877451 192.296713 
L 121.089163 197.067674 
L 121.151562 192.356729 
L 121.242945 192.376737 
L 121.54558 197.168394 
L 121.657467 185.358231 
L 121.734904 182.999573 
L 121.86188 173.496772 
L 122.087545 180.697041 
L 122.270981 180.73641 
L 122.48189 185.536596 
L 122.55986 183.177338 
L 122.651553 183.197096 
L 122.7536 168.902264 
L 122.991542 178.508938 
L 123.096747 180.913631 
L 123.10836 166.580518 
L 123.50331 188.131727 
L 123.608321 173.867022 
L 123.713334 176.277661 
L 123.805266 176.297231 
L 123.845409 166.734842 
L 123.989149 176.336375 
L 124.068281 173.964534 
L 124.121904 166.792735 
L 124.344331 174.023058 
L 124.43636 174.042568 
L 124.478041 164.466929 
L 124.582854 166.889249 
L 124.650041 162.09942 
L 124.933568 181.30784 
L 124.976366 171.764747 
L 125.068492 171.784198 
L 125.352449 155.016169 
L 125.481167 162.271985 
L 125.710696 152.673867 
L 125.827042 157.526431 
L 125.884096 150.290495 
L 125.988555 152.730581 
L 126.196569 138.215526 
L 126.463273 155.243878 
L 126.579985 140.725571 
L 126.684331 143.177422 
L 126.845011 157.736001 
L 126.892675 148.072933 
L 126.996673 150.516601 
L 127.155994 165.025295 
L 127.160006 145.701373 
L 127.318953 160.244996 
L 127.400585 157.850378 
L 127.504074 160.283269 
L 127.646093 150.648581 
L 127.728134 148.241984 
L 127.924511 150.705163 
L 128.059586 160.398121 
L 128.141702 158.002952 
L 128.264489 143.494362 
L 128.367898 145.944715 
L 128.44015 141.097024 
L 128.657019 148.429938 
L 128.792168 136.292842 
L 128.865122 131.421028 
L 128.998691 141.208558 
L 129.071816 136.348187 
L 129.307613 148.561582 
L 129.454548 138.863214 
L 129.586533 148.61802 
L 129.660258 143.774318 
L 129.810678 158.346545 
L 129.967964 151.120449 
L 130.079677 155.985207 
L 130.163213 153.582669 
L 130.256127 153.601633 
L 130.358257 156.042313 
L 130.441975 153.639567 
L 130.480083 139.067091 
L 130.729785 156.118473 
L 131.069994 173.051292 
L 131.118927 161.03064 
L 131.246427 170.687929 
L 131.362974 151.403953 
L 131.57458 158.709681 
L 131.625207 146.600932 
L 131.752005 156.328019 
L 131.828292 151.498519 
L 131.979201 168.437902 
L 132.047347 161.222591 
L 132.140224 161.241793 
L 132.216903 156.423319 
L 132.636123 170.980121 
L 132.767199 154.114167 
L 133.076932 163.849078 
L 133.177356 166.280778 
L 133.300026 175.921687 
L 133.363048 166.319496 
L 133.47796 173.559685 
L 133.526794 159.111585 
L 133.648885 168.787502 
L 133.820236 164.003409 
L 134.027227 171.272608 
L 134.120017 171.292118 
L 134.178148 159.24568 
L 134.291884 166.513163 
L 134.550489 159.322334 
L 134.676891 171.409204 
L 134.710135 149.654751 
L 134.909885 154.55151 
L 135.048265 171.487287 
L 135.134752 169.098614 
" clip-path="url(#p36a7d93751)" style="fill: none; stroke: #0000ff; stroke-width: 0.5; stroke-linecap: square"/>
   </g>
   <g id="line2d_7">
    <path d="M 135.240299 173.931767 
L 135.43832 178.773608 
L 135.50647 169.176445 
L 135.611606 174.010161 
L 135.848508 157.167764 
L 135.965371 166.862093 
L 136.110802 149.938167 
L 136.365811 178.971047 
L 136.501351 157.301591 
L 136.715247 169.429539 
L 136.802879 167.036717 
L 136.901307 169.468497 
L 137.015427 179.109333 
L 137.092617 171.917124 
L 137.206233 181.547257 
L 137.361501 167.153193 
L 137.562612 174.422076 
L 137.631075 162.377026 
L 137.72433 162.396306 
L 137.81759 162.415588 
L 137.915606 164.853722 
L 138.022873 172.112716 
L 138.283989 162.512016 
L 138.38623 167.366854 
L 138.475011 164.96987 
L 138.55516 157.722603 
L 138.674426 172.249708 
L 138.754799 165.027962 
L 138.860641 172.288861 
L 139.123904 162.685668 
L 139.322378 169.975422 
L 139.40399 162.743576 
L 139.497364 162.762881 
L 139.672996 155.523707 
L 139.885272 172.504296 
L 139.981979 174.932876 
L 140.092386 186.955307 
L 140.33802 162.936686 
L 140.441232 170.209689 
L 140.608875 155.714728 
L 140.829503 182.321713 
L 140.925491 184.739942 
L 141.105759 179.98006 
L 141.212816 191.978547 
L 141.30019 187.215568 
L 141.39582 189.628645 
L 141.664473 180.098995 
L 141.765011 187.315729 
L 141.850762 180.138651 
L 141.943916 180.158482 
L 142.034769 177.773473 
L 142.12799 177.793236 
L 142.221217 177.813 
L 142.316593 180.237815 
L 142.407691 177.852533 
L 142.600115 185.099341 
L 142.776973 173.112292 
L 143.16533 194.791039 
L 143.251908 185.239225 
L 143.448494 202.001804 
L 143.715032 180.535507 
L 143.810832 185.359178 
L 143.902804 182.978615 
L 144.092564 190.212089 
L 144.181494 180.634804 
L 144.277759 187.857185 
L 144.369053 183.078274 
L 144.463197 185.499186 
L 144.647346 178.327346 
L 144.740744 178.347146 
L 145.023156 188.017806 
L 145.11538 183.237797 
L 145.209134 185.659275 
L 145.301645 180.873255 
L 145.490309 197.685651 
L 145.582897 192.927806 
L 145.676345 197.726383 
L 145.862308 192.988499 
L 145.955458 193.008733 
L 146.048614 193.028968 
L 146.234775 195.460435 
L 146.327895 195.480742 
L 146.421302 193.109922 
L 146.513486 200.295323 
L 146.607293 195.541675 
L 146.699995 197.95051 
L 146.79509 188.399628 
L 146.888412 188.419738 
L 147.259442 195.683897 
L 147.540907 190.958142 
L 147.632236 195.765198 
L 147.7286 188.600784 
L 147.821986 188.620907 
L 147.916541 186.240324 
L 148.005131 195.84652 
L 148.10091 191.079299 
L 148.194265 191.099497 
L 148.289009 188.721543 
L 148.378127 195.927864 
L 148.477357 186.360683 
L 148.570848 186.380748 
L 148.665952 183.996714 
L 148.759512 184.016712 
L 148.939574 193.656936 
L 149.0384 186.481092 
L 149.217736 196.110969 
L 149.414605 184.156735 
L 149.597515 189.003504 
L 149.782281 191.443066 
L 149.969226 191.483512 
L 150.06028 193.900373 
L 150.158682 189.124426 
L 150.338008 196.355282 
L 150.519416 201.175873 
L 150.813666 189.265565 
L 150.991919 196.497889 
L 151.088393 194.123698 
L 151.181895 194.144008 
L 151.359337 201.360498 
L 151.452693 201.381018 
L 151.549356 199.012268 
L 151.64278 199.032723 
L 151.73621 199.053179 
L 151.833117 196.68134 
L 151.916051 203.870376 
L 152.016538 199.114557 
L 152.106362 201.524702 
L 152.203455 199.155482 
L 152.293181 201.565767 
L 152.394199 196.803703 
L 152.487735 196.824102 
L 152.581277 196.844502 
L 152.678798 194.469162 
L 153.129946 204.138251 
L 153.223367 204.158867 
L 153.329843 197.007751 
L 153.423442 197.028164 
L 153.610659 197.068993 
L 153.811829 189.911619 
L 153.891532 197.130246 
L 154.09324 189.972259 
L 154.187057 189.992474 
L 154.26121 199.606023 
L 154.369727 192.435565 
L 154.54205 199.667513 
L 154.750088 190.113798 
L 154.833436 194.937188 
L 154.937817 190.154251 
L 155.03169 190.174479 
L 155.0985 202.182409 
L 155.219457 190.214939 
L 155.560934 204.674708 
L 155.748109 204.716013 
L 155.830051 209.507442 
L 156.046789 197.600272 
L 156.309789 204.839961 
L 156.415773 200.07776 
L 156.503292 202.491199 
L 156.603284 200.118816 
L 156.784421 202.552995 
L 156.878144 202.573596 
L 156.978384 200.200943 
L 157.159349 202.635408 
L 157.253097 202.656015 
L 157.353585 200.283093 
L 157.440612 202.697233 
L 157.541223 200.324176 
L 157.714983 205.150051 
L 158.017562 198.030065 
L 158.457619 207.70427 
L 158.551345 207.725034 
L 158.660075 202.965285 
L 158.753925 202.985914 
L 158.855405 200.611913 
L 159.020067 207.828873 
L 159.11383 207.849645 
L 159.293501 210.277701 
L 159.387228 210.298545 
L 159.488947 207.932747 
L 159.574701 210.340239 
L 159.974544 203.254221 
L 160.060143 205.667568 
L 160.162427 203.29552 
L 160.256378 203.316171 
L 160.350335 203.336824 
L 160.452872 200.961676 
L 160.521043 208.161393 
L 160.726228 203.41945 
L 160.802656 208.22378 
L 160.914213 203.460771 
L 160.999317 205.874819 
L 161.102223 203.502098 
L 161.17823 208.306983 
L 161.290259 203.54343 
L 161.384286 203.564099 
L 161.47832 203.584768 
L 161.553906 208.390209 
L 161.779181 198.850412 
L 161.939128 206.082211 
L 162.033144 206.102958 
L 162.117609 208.51509 
L 162.221195 206.144456 
L 162.305562 208.556728 
L 162.409271 206.18596 
L 162.503319 206.206714 
L 162.587538 208.619196 
L 162.795461 203.874291 
L 162.88959 203.894982 
L 162.973654 206.310505 
L 163.286686 199.179174 
L 163.548674 204.039856 
L 163.925433 204.122672 
L 164.175708 211.363486 
L 164.280596 208.994269 
L 164.374715 209.015119 
L 164.562973 209.056825 
L 164.646057 211.46809 
L 164.751256 209.098537 
L 164.928342 211.53087 
L 165.116564 211.572729 
L 165.222075 209.20284 
L 165.398945 211.63553 
L 165.504644 209.265439 
L 165.681384 211.698343 
L 165.869708 211.740226 
L 165.975718 209.369799 
L 166.152242 211.80306 
L 166.270461 207.038025 
L 166.34063 211.844957 
L 166.459087 207.07965 
L 166.635491 209.515963 
L 166.75439 204.74451 
L 166.824055 209.557736 
L 166.930762 207.183737 
L 167.188691 212.033563 
L 167.282952 212.054526 
L 167.496983 207.308687 
L 167.565773 212.117425 
L 167.874592 207.392016 
L 168.050344 209.829403 
L 168.144719 209.850311 
L 168.225913 212.264238 
L 168.333488 209.89213 
L 168.427881 209.913041 
L 168.603276 212.348162 
L 168.711102 209.975785 
L 168.805521 209.996702 
L 168.899947 210.017621 
L 169.075124 212.453099 
L 169.641552 212.579071 
L 169.750068 210.205953 
L 169.844558 210.226886 
L 170.019299 212.66308 
L 170.236971 207.913332 
L 170.331549 207.934203 
L 170.411633 210.352513 
L 170.520725 207.975949 
L 170.615323 207.996825 
L 170.695257 210.415346 
L 170.804538 208.03858 
L 170.964116 212.873204 
L 171.073512 210.499143 
L 171.168092 210.520096 
L 171.342222 212.957294 
L 172.571775 213.230742 
L 172.682242 210.855535 
L 172.776931 210.876512 
L 172.966328 210.91847 
L 173.139627 213.35703 
L 173.897123 213.525495 
L 174.008473 211.149343 
L 174.103252 211.17034 
L 174.29283 211.212338 
L 174.40451 208.833001 
L 174.482433 211.254342 
L 174.59424 208.874869 
L 174.766886 211.317358 
L 174.878883 208.937683 
L 174.973777 208.958623 
L 175.448344 209.063348 
L 175.697826 213.925965 
L 175.792664 213.947056 
L 175.923072 209.168108 
L 176.172081 214.031437 
L 176.646498 214.136946 
L 176.759684 211.758835 
L 176.83631 214.179159 
L 176.949623 211.800913 
L 177.044602 211.821954 
L 177.121076 214.24249 
L 177.23458 211.864041 
L 177.4059 214.305834 
L 177.519594 211.927182 
L 177.614612 211.948232 
L 178.089798 212.053503 
L 178.260722 214.495944 
L 178.925945 214.643887 
L 179.040655 212.264152 
L 179.116067 214.686169 
L 179.230905 212.306299 
L 179.306214 214.728457 
L 179.42118 212.348451 
L 179.591484 214.7919 
L 180.637973 215.024636 
L 180.75383 212.643681 
L 180.849068 212.66478 
L 180.923515 215.088139 
L 181.039564 212.706982 
L 181.209116 215.151656 
L 182.066267 215.342283 
L 182.183081 212.960312 
L 182.352101 215.405852 
L 182.469107 213.023677 
L 182.564462 213.044801 
L 183.995565 213.361842 
L 184.06833 215.787535 
L 184.186489 213.404138 
L 184.281961 213.425289 
L 184.759418 213.531063 
L 184.878111 211.144255 
L 185.045971 213.594544 
L 186.001569 213.806244 
L 186.121097 211.41855 
L 186.288376 213.869782 
L 186.408097 211.481884 
L 186.575242 213.933333 
L 187.436191 214.124064 
L 187.602756 216.573579 
L 189.516974 216.999294 
L 189.638799 214.612021 
L 189.804333 217.063202 
L 190.187568 217.148432 
L 190.309845 214.760681 
L 190.405735 214.781925 
L 191.077148 214.930667 
L 191.242007 217.382936 
L 191.81749 217.510921 
L 191.940866 215.122011 
L 192.105319 217.574933 
L 192.297239 217.617615 
L 192.420939 215.228365 
L 192.585167 217.681649 
L 193.545353 217.895192 
L 193.669897 215.505054 
L 193.833538 217.959283 
L 207.348203 220.964896 
L 207.482118 218.564956 
L 207.579185 218.58646 
L 207.736247 221.051196 
L 210.941684 221.764074 
L 210.941684 221.764074 
" clip-path="url(#p36a7d93751)" style="fill: none; stroke: #808080; stroke-width: 0.5; stroke-linecap: square"/>
   </g>
   <g id="line2d_8">
    <path d="M 145.99165 197.93583 
L 148.919848 198.577103 
L 149.013229 196.249087 
L 149.194685 198.637292 
L 149.469577 198.697492 
L 149.563312 196.369087 
L 149.655014 196.389092 
L 150.021883 196.469124 
L 150.11603 194.137542 
L 150.207821 194.157488 
L 150.29458 198.878167 
L 150.669608 191.902519 
L 150.76149 191.922406 
L 150.962727 177.775107 
L 151.051976 180.166052 
L 151.147175 177.814085 
L 151.239409 177.833575 
L 151.331649 177.853067 
L 151.420708 180.244288 
L 151.503208 187.362708 
L 151.816862 161.268924 
L 151.902554 166.068173 
L 152.069788 178.00905 
L 152.154854 182.770332 
L 152.461768 163.794022 
L 152.531325 178.106582 
L 152.627542 175.75072 
L 152.832382 163.870426 
L 152.916903 168.665689 
L 153.021861 161.516298 
L 153.089533 175.847951 
L 153.186169 173.488851 
L 153.287207 168.742667 
L 153.512152 147.196427 
L 153.68472 154.454304 
L 153.805293 140.006003 
L 153.893897 142.442768 
L 154.056528 154.529666 
L 154.12553 166.528368 
L 154.33545 154.586201 
L 154.418506 159.405823 
L 154.526458 152.219218 
L 154.666543 173.79914 
L 154.795258 157.082523 
L 154.867316 166.68193 
L 155.111754 140.263984 
L 155.276535 149.961435 
L 155.375228 147.569196 
L 155.618483 123.338815 
L 155.765447 140.393066 
L 155.888108 128.269529 
L 155.981801 128.287619 
L 156.250753 133.207851 
L 156.319896 142.923937 
L 156.569175 118.628869 
L 156.663135 118.64668 
L 156.782752 108.850247 
L 156.906137 133.335546 
L 156.986767 138.209423 
L 157.086876 135.801358 
L 157.227028 118.753571 
L 157.367722 135.856324 
L 157.441022 143.1463 
L 157.697115 118.842679 
L 157.842937 133.518071 
L 157.894362 148.073231 
L 158.066123 121.361307 
L 158.145692 126.265314 
L 158.217835 133.591115 
L 158.253485 152.971416 
L 158.354076 150.579876 
L 158.607776 128.794649 
L 158.750149 143.405951 
L 158.851303 141.002416 
L 159.015447 148.297541 
L 159.108912 148.316242 
L 159.155771 162.775527 
L 159.280176 153.178625 
L 159.435231 162.832897 
L 159.528397 162.852023 
L 159.661765 150.842661 
L 159.909308 160.528277 
L 160.222581 150.955358 
L 160.34995 141.298347 
L 160.435129 143.740148 
L 160.537394 141.335361 
L 160.631126 141.353869 
L 160.724864 141.372379 
L 160.917855 165.537279 
L 161.148835 153.555763 
L 161.251332 151.162089 
L 161.411168 158.429245 
L 161.597989 158.467274 
L 161.831481 146.440458 
L 161.897004 153.70676 
L 162.112628 146.496466 
L 162.232928 163.407236 
L 162.374475 151.387788 
L 162.44869 156.230681 
L 162.714612 136.902793 
L 162.768859 146.627195 
L 163.016764 132.087475 
L 163.070378 141.835537 
L 163.184621 136.994781 
L 163.25819 141.872624 
L 163.290704 156.401349 
L 163.446028 141.909715 
L 163.581858 154.046801 
L 163.864074 132.251821 
L 163.967152 151.707841 
L 164.071567 149.309184 
L 164.154645 151.745519 
L 164.302446 139.647619 
L 164.363855 146.944936 
L 164.468656 144.540153 
L 164.529709 151.820889 
L 164.529709 151.820889 
" clip-path="url(#p36a7d93751)" style="fill: none; stroke: #0000ff; stroke-width: 0.5; stroke-linecap: square"/>
   </g>
   <g id="line2d_9">
    <path d="M 164.601518 156.667039 
L 164.83332 147.038459 
L 164.953899 161.559515 
L 165.126386 144.670607 
L 165.209006 147.1133 
L 165.325802 142.280905 
L 165.305547 166.44182 
L 165.538571 156.856971 
L 165.644914 173.707296 
L 165.796447 161.731753 
L 165.971978 164.174825 
L 166.018413 173.78526 
L 166.252812 164.232477 
L 166.346436 164.251697 
L 166.428032 166.673225 
L 166.545808 161.884941 
L 166.672278 173.921749 
L 166.802395 166.750402 
L 166.883704 169.169532 
L 167.108093 161.999885 
L 167.239396 154.784975 
L 167.414573 157.23722 
L 167.50844 157.256246 
L 167.670606 162.114877 
L 167.790078 157.313331 
L 167.819562 169.363271 
L 167.977868 157.351394 
L 168.058749 159.782415 
L 168.165683 157.389463 
L 168.394563 167.078633 
L 168.528088 159.877952 
L 168.782662 181.540796 
L 169.050691 167.213897 
L 169.13082 169.634724 
L 169.265628 162.440938 
L 169.398186 172.091813 
L 169.721106 164.944483 
L 169.786913 169.770547 
L 169.908827 164.98302 
L 169.960313 172.208668 
L 170.139276 157.789492 
L 170.161962 169.848189 
L 170.313021 160.24129 
L 170.378242 165.079386 
L 170.486584 162.690532 
L 170.645432 167.54266 
L 170.824616 184.361335 
L 170.947403 179.606329 
L 171.011614 184.401012 
L 171.193867 170.061811 
L 171.21344 182.054466 
L 171.475428 170.120099 
L 171.569295 170.139531 
L 171.63296 174.957246 
L 171.741878 172.579019 
L 171.835708 172.598525 
L 171.929544 172.618031 
L 171.94698 184.599474 
L 172.178908 163.036484 
L 172.195662 175.074705 
L 172.335975 167.891172 
L 172.383279 175.113869 
L 172.508307 170.333923 
L 172.617743 182.351222 
L 172.695725 184.75834 
L 172.80509 182.390812 
L 172.867193 187.182734 
L 173.276051 168.084973 
L 173.461004 182.529419 
L 173.65226 168.162529 
L 173.929703 182.628464 
L 174.039947 180.257188 
L 174.42175 165.909477 
L 174.448741 175.545015 
L 174.576362 170.762047 
L 174.636662 175.584242 
L 174.781493 168.395326 
L 174.867574 182.826653 
L 174.910392 190.004992 
L 175.02109 187.641584 
L 175.166211 180.494222 
L 175.242899 182.905967 
L 175.440635 168.53121 
L 175.500001 173.360257 
L 175.664037 163.74893 
L 175.73611 192.566533 
L 175.935178 178.257074 
L 175.993851 183.064657 
L 176.140941 175.898247 
L 176.235013 175.917884 
L 176.557331 183.183731 
L 176.651267 183.203581 
L 176.727129 185.613708 
L 176.87549 178.454164 
L 176.89675 188.041161 
L 177.045339 180.889705 
L 177.139362 180.909493 
L 177.233392 180.929282 
L 177.347633 190.526288 
L 177.45994 188.161139 
L 177.516774 192.948916 
L 177.629127 190.586497 
L 177.778985 183.44189 
L 177.873002 183.461757 
L 177.967026 183.481626 
L 178.042196 185.892734 
L 178.155093 183.521368 
L 178.211214 188.321184 
L 178.362236 181.16686 
L 178.472433 202.675599 
L 178.755671 190.827451 
L 178.830296 193.230985 
L 178.962891 188.481316 
L 178.979297 198.030089 
L 179.111925 193.291462 
L 179.241125 200.4664 
L 179.295806 205.229404 
L 179.542021 198.151889 
L 179.675355 193.412454 
L 179.917296 198.233116 
L 180.373377 188.781795 
L 180.386532 198.334681 
L 180.635266 191.229473 
L 180.729312 191.249588 
L 180.864371 186.491533 
L 181.011488 191.309942 
L 181.137637 198.497256 
L 181.293721 191.370309 
L 181.387811 191.390433 
L 181.461049 193.795918 
L 181.576011 191.430687 
L 181.67012 191.450816 
L 181.659349 203.370823 
L 181.910234 196.279812 
L 181.983112 198.680258 
L 182.162038 189.162838 
L 182.286363 196.360904 
L 182.474466 196.401458 
L 182.590032 194.038358 
L 182.684155 194.058571 
L 182.735075 198.843019 
L 182.850747 196.482583 
L 182.944833 196.502867 
L 183.017165 198.904076 
L 183.154865 194.159652 
L 183.393374 198.985506 
L 183.581517 199.026229 
L 183.703219 206.194623 
L 183.980197 196.726087 
L 184.195319 203.924043 
L 184.334339 199.189176 
L 184.405898 201.588701 
L 184.522608 199.229926 
L 184.616752 199.250303 
L 184.853543 204.067635 
L 185.087567 199.35221 
L 185.181749 199.372596 
L 185.55854 199.454151 
L 185.676082 197.091712 
L 185.770358 197.112038 
L 185.958929 197.152693 
L 185.982648 204.313948 
L 186.100335 201.956901 
L 186.147338 206.729883 
L 186.288732 201.99784 
L 186.453377 204.416638 
L 186.547542 204.43718 
L 186.783811 199.719359 
L 186.854076 202.120688 
L 186.97241 199.76018 
L 187.066718 199.780593 
L 187.136834 202.182131 
L 187.255355 199.821423 
L 187.349683 199.84184 
L 187.444017 199.862259 
L 187.608224 202.284564 
L 187.796824 202.325547 
L 188.059653 195.212916 
L 188.129324 197.62062 
L 188.368108 192.883434 
L 188.689983 207.286719 
L 188.859791 200.1687 
L 188.998049 204.971757 
L 189.117736 202.61258 
L 189.339621 190.691897 
L 189.477691 195.517429 
L 189.623703 190.752415 
L 189.718409 190.772591 
L 189.813122 190.792768 
L 189.898934 200.39362 
L 190.139934 195.65964 
L 190.208503 198.068881 
L 190.224911 205.239396 
L 190.466065 200.516374 
L 190.560609 200.536838 
L 190.791517 205.363001 
L 190.885973 205.383607 
L 191.154604 198.272856 
L 191.520562 207.906613 
L 191.99288 208.01005 
L 192.114487 205.651606 
L 192.181852 208.051435 
L 192.303585 205.692858 
L 192.37085 208.092825 
L 192.492708 205.734115 
L 192.587279 205.754746 
L 192.776441 205.796011 
L 192.843455 208.196325 
L 192.965627 205.837282 
L 193.127094 208.258442 
L 193.316219 208.29986 
L 193.656043 203.59875 
L 193.883746 208.424147 
L 194.224365 203.722246 
L 194.319107 203.742833 
L 194.442405 201.377044 
L 194.451502 208.548485 
L 194.574745 206.18831 
L 194.640805 208.589943 
L 194.764174 206.229634 
L 194.924807 208.652139 
L 195.114174 208.69361 
L 195.266884 203.948784 
L 195.361697 203.969387 
L 195.456516 203.989991 
L 195.616921 206.415661 
L 195.770356 201.664477 
L 195.901285 206.477695 
L 196.025566 204.113645 
L 196.156148 208.921801 
L 196.280527 206.560426 
L 196.375353 206.581112 
L 196.535239 209.004822 
L 199.381684 209.62819 
L 199.508216 207.264545 
L 199.571652 209.669793 
L 199.698311 207.306014 
L 199.793368 207.32675 
L 199.888431 207.347488 
L 200.015375 204.980627 
L 200.110508 205.0013 
L 200.268749 207.430455 
L 200.458947 207.471946 
L 200.586272 205.104683 
L 200.616934 209.898708 
L 200.744291 207.534194 
L 200.807068 209.940348 
L 200.934553 207.575699 
L 201.029693 207.596454 
L 201.219994 207.637968 
L 201.282517 210.04447 
L 201.538282 205.311554 
L 201.695857 207.741778 
L 202.076663 207.82485 
L 202.233897 210.252821 
L 202.32907 210.273664 
L 202.457573 207.907946 
L 202.552816 207.928723 
L 202.933854 208.011846 
L 203.090688 210.440458 
L 203.376401 210.503029 
L 203.505605 208.136573 
L 203.600919 208.157366 
L 203.69624 208.17816 
L 203.757441 210.586476 
L 203.8869 208.219753 
L 203.982241 208.240551 
L 204.17294 208.282152 
L 204.233887 210.690817 
L 204.363665 208.323759 
L 204.459038 208.344564 
L 204.615159 210.774315 
L 204.805834 210.816073 
L 204.935996 208.448612 
L 205.031407 208.469426 
L 205.091894 210.87872 
L 205.222248 208.511058 
L 205.317679 208.531876 
L 205.699465 208.615163 
L 205.830302 206.244206 
L 205.925829 206.264964 
L 206.081354 208.698472 
L 206.176843 208.719303 
L 206.308001 206.34801 
L 206.40356 206.368775 
L 206.558862 208.80264 
L 206.690276 206.431078 
L 206.74991 208.844317 
L 206.917504 204.077252 
L 207.013159 204.097957 
L 207.108822 204.118662 
L 207.263883 206.555722 
L 207.359507 206.576501 
L 207.477991 211.401272 
L 207.669053 211.443115 
L 207.837723 206.680417 
L 207.955695 211.505889 
L 208.087971 209.136214 
L 208.242395 211.568676 
L 208.374864 209.1988 
L 208.470508 209.219664 
L 208.566158 209.24053 
L 208.720357 211.673349 
L 209.102844 211.757113 
L 209.235891 209.386633 
L 209.331593 209.40751 
L 209.389777 211.819951 
L 209.523017 209.449269 
L 209.618739 209.470151 
L 210.193204 209.59547 
L 210.250925 212.008542 
L 210.384745 209.637254 
L 210.480525 209.658149 
L 210.959522 209.762642 
L 211.016831 212.176275 
L 211.151167 209.804449 
L 211.304153 212.239198 
L 212.262314 212.449034 
L 212.397489 210.076334 
L 212.493405 210.097258 
L 212.645761 212.533008 
L 214.180587 212.869134 
L 214.317055 210.495086 
L 214.413101 210.516038 
L 214.509155 210.536992 
L 214.564554 212.953222 
L 214.701281 210.578905 
L 214.852597 213.016303 
L 215.3328 213.121467 
L 215.470045 210.74661 
L 215.524927 213.163543 
L 215.662302 210.788551 
L 215.75844 210.809523 
L 215.909258 213.247711 
L 217.159057 213.521416 
L 217.297537 211.145277 
L 217.393786 211.166273 
L 217.543833 213.605681 
L 221.011522 214.365101 
L 221.011522 214.365101 
" clip-path="url(#p36a7d93751)" style="fill: none; stroke: #808080; stroke-width: 0.5; stroke-linecap: square"/>
   </g>
   <g id="line2d_10">
    <path d="M 174.682424 195.02334 
L 178.36384 195.817434 
L 178.493485 191.156699 
L 178.585758 191.176448 
L 178.678038 191.196198 
L 178.78926 188.871394 
L 178.881606 188.891081 
L 179.066315 188.930458 
L 179.401339 181.938412 
L 179.640034 186.700763 
L 179.752009 184.369757 
L 179.844524 184.389324 
L 180.029572 184.428462 
L 180.175085 189.166831 
L 180.346949 179.776944 
L 180.399741 184.506753 
L 180.532275 179.815828 
L 180.624947 179.835272 
L 180.717625 179.854717 
L 181.077016 170.457931 
L 181.210847 165.732941 
L 181.262864 170.496295 
L 181.438151 161.015559 
L 181.541681 170.553851 
L 181.655349 168.201991 
L 181.727591 170.592228 
L 181.976239 163.508589 
L 182.069379 163.527578 
L 182.225789 156.399257 
L 182.264392 173.07616 
L 182.357338 173.095425 
L 182.556457 161.242604 
L 182.564488 170.764987 
L 182.814726 163.679537 
L 182.843565 170.822596 
L 183.065872 156.568381 
L 183.051185 168.488945 
L 183.642602 144.689709 
L 183.626208 156.681187 
L 183.741638 154.310903 
L 183.884357 159.124052 
L 183.99989 156.756416 
L 184.365859 137.600238 
L 184.418509 152.049735 
L 184.602291 142.470719 
L 184.650822 147.293712 
L 184.835383 137.691538 
L 184.84104 156.925755 
L 184.957269 154.554593 
L 185.050823 154.573347 
L 185.422138 135.388492 
L 185.44814 152.255257 
L 185.61123 145.077596 
L 185.799478 154.723425 
L 186.766121 113.757573 
L 186.644856 135.625196 
L 186.78684 130.807653 
L 186.903161 138.09362 
L 187.282258 128.475555 
L 187.352242 130.916131 
L 187.30083 145.410504 
L 187.54076 130.9523 
L 187.586134 135.807417 
L 187.778425 126.139929 
L 187.74995 138.258279 
L 187.868641 135.862107 
L 188.255532 116.479208 
L 188.31997 128.673751 
L 188.314761 138.368107 
L 188.508727 128.709803 
L 188.585604 157.679605 
L 188.7043 155.305736 
L 188.898436 145.725287 
L 188.942134 150.549193 
L 188.910457 162.532627 
L 189.427336 131.314258 
L 189.505797 150.661221 
L 189.599763 150.679897 
L 189.719335 148.296734 
L 189.736492 155.512653 
L 189.984726 141.111118 
L 190.069687 150.773295 
L 190.335598 143.595444 
L 190.481977 138.789525 
L 190.57628 138.807863 
L 190.618169 143.650878 
L 190.817561 134.008387 
L 190.885596 136.446154 
L 191.059442 129.196974 
L 191.104075 150.97888 
L 191.43772 129.269222 
L 191.466226 143.817244 
L 191.694582 131.749251 
L 191.681565 141.442533 
L 191.802794 139.04636 
L 191.978245 131.803675 
L 191.991187 155.964637 
L 192.085211 155.983485 
L 192.369239 139.156506 
L 192.463668 139.174868 
L 192.558104 139.193231 
L 192.704175 151.296901 
L 193.03038 139.285065 
L 193.097165 141.719018 
L 193.247112 136.903316 
L 193.36357 151.427956 
L 193.513506 146.634612 
L 193.524162 153.867292 
L 193.674214 149.079376 
L 193.674214 149.079376 
" clip-path="url(#p36a7d93751)" style="fill: none; stroke: #0000ff; stroke-width: 0.5; stroke-linecap: square"/>
   </g>
   <g id="line2d_11">
    <path d="M 193.71253 153.904892 
L 193.778725 156.322973 
L 193.929012 151.540338 
L 193.920834 168.335037 
L 194.014718 168.354257 
L 194.249508 156.417348 
L 194.296406 168.411927 
L 194.532054 156.473988 
L 194.569341 161.284261 
L 194.49317 175.610888 
L 195.003089 156.568413 
L 195.1261 154.187051 
L 195.191548 156.606192 
L 195.113116 170.968618 
L 195.322228 161.436474 
L 195.38746 163.847624 
L 195.721081 151.896513 
L 195.727932 159.117488 
L 195.851352 156.738459 
L 195.945635 156.757359 
L 196.134219 156.795163 
L 196.111032 166.390353 
L 196.630183 147.248703 
L 196.724735 147.267333 
L 196.824262 154.526017 
L 196.834145 168.931474 
L 197.047594 159.38316 
L 197.39871 169.047057 
L 197.677601 161.912665 
L 197.711316 166.716615 
L 197.927038 157.154558 
L 198.021461 157.173486 
L 197.933131 171.548353 
L 198.057655 169.181962 
L 198.18494 173.989478 
L 198.340155 169.239797 
L 198.434334 169.259078 
L 198.559262 166.889492 
L 198.622711 169.297645 
L 198.778655 164.536122 
L 198.872972 164.555271 
L 198.843498 174.125423 
L 199.187112 162.217847 
L 199.28223 169.432667 
L 199.314086 174.222565 
L 199.596157 159.896233 
L 199.564976 169.490553 
L 199.942475 162.370561 
L 200.067986 167.197087 
L 200.225841 162.427849 
L 200.28646 179.197369 
L 200.822954 167.351008 
L 200.917354 167.370254 
L 201.073912 169.799475 
L 201.20059 167.427999 
L 201.262643 169.838114 
L 201.486962 160.276887 
L 201.513282 172.284355 
L 201.60762 172.303749 
L 201.565476 196.094698 
L 202.136728 181.966963 
L 202.132552 189.103279 
L 202.325061 182.006318 
L 202.386307 184.401113 
L 202.61261 174.903471 
L 202.574566 184.440613 
L 202.73494 179.706953 
L 202.829198 179.72657 
L 202.790697 189.242478 
L 203.20629 179.805052 
L 203.300579 179.824676 
L 203.327854 184.598663 
L 203.522801 177.48251 
L 203.44915 189.381742 
L 203.738363 182.301655 
L 203.798863 184.697487 
L 204.062616 172.808443 
L 204.149462 180.001348 
L 204.432537 180.060262 
L 204.595437 175.312781 
L 204.655586 177.717309 
L 204.612839 187.249427 
L 204.741353 184.895235 
L 205.06795 175.410321 
L 204.92096 192.069015 
L 205.316798 177.854362 
L 205.30715 185.013947 
L 205.540621 175.507893 
L 205.48586 192.188968 
L 205.684474 185.093115 
L 205.768395 192.248963 
L 206.097019 182.79454 
L 206.309785 187.606903 
L 206.439424 185.251515 
L 206.557433 190.039148 
L 206.616339 192.429019 
L 207.077312 180.6107 
L 207.159025 187.785802 
L 207.253416 187.805686 
L 207.491536 178.305133 
L 207.631045 187.885237 
L 207.819897 187.92502 
L 208.117688 180.827226 
L 208.125055 192.749385 
L 208.664228 176.152692 
L 208.560331 195.218149 
L 208.874808 180.9848 
L 208.916759 190.53815 
L 208.974417 192.929742 
L 209.105675 190.578106 
L 209.200143 190.598086 
L 209.480096 178.717313 
L 209.53762 181.122746 
L 209.520706 188.28331 
L 209.953976 178.815536 
L 209.936333 185.985216 
L 210.200743 181.260757 
L 210.239705 190.817955 
L 210.334249 190.837951 
L 210.541991 183.723402 
L 210.617917 190.897948 
L 210.769193 193.310852 
L 211.034257 188.602152 
L 211.354606 198.189824 
L 211.620146 193.491547 
L 211.637995 198.250476 
L 211.770871 195.902589 
L 211.826952 198.290918 
L 211.998512 193.57189 
L 212.149061 195.983214 
L 212.761424 181.793693 
L 212.81717 184.198843 
L 213.124962 177.07351 
L 213.268241 191.458496 
L 213.481454 184.337658 
L 213.576377 184.357494 
L 213.671306 184.377331 
L 213.702413 193.933703 
L 213.87654 189.200903 
L 213.852171 196.346292 
L 213.986596 193.994048 
L 213.962064 201.123346 
L 214.270836 194.054405 
L 214.460361 194.094649 
L 214.52962 201.245294 
L 214.664342 198.898192 
L 214.75902 198.918456 
L 214.813484 201.306286 
L 214.948394 198.958987 
L 215.043091 198.979254 
L 215.232503 199.019794 
L 215.408368 194.295953 
L 215.557334 196.709808 
L 215.692893 194.35637 
L 215.706145 199.121165 
L 215.923539 192.020096 
L 216.031355 196.810862 
L 216.303274 192.10041 
L 216.369511 199.263142 
L 216.381984 204.018086 
L 216.831569 194.598161 
L 216.843533 199.364595 
L 216.979873 197.013072 
L 216.991663 201.774301 
L 217.169653 197.05353 
L 217.234375 204.201949 
L 217.549289 197.134463 
L 217.750076 201.937257 
L 217.939743 201.97801 
L 218.076735 199.628532 
L 218.276883 204.426822 
L 218.371694 204.447273 
L 218.741212 199.770747 
L 218.940697 204.570009 
L 219.121053 199.852043 
L 219.216029 199.87237 
L 219.353951 197.519191 
L 219.448997 197.539453 
L 219.552937 202.324629 
L 219.829244 197.620516 
L 219.932779 202.406244 
L 220.209593 197.701601 
L 220.304696 197.721876 
L 220.554111 204.918029 
L 220.919354 195.466178 
L 221.116889 200.279203 
L 221.25608 197.924697 
L 221.453165 202.732922 
L 221.592502 200.380997 
L 221.687644 200.40136 
L 221.973107 200.462456 
L 222.118847 202.875954 
L 222.21397 202.896392 
L 222.493833 198.188567 
L 222.639413 200.605063 
L 223.015345 195.911248 
L 222.975182 203.059951 
L 223.301401 195.971991 
L 223.351372 198.371382 
L 223.355942 203.141762 
L 223.496551 200.788512 
L 223.641579 203.203136 
L 223.782378 200.849687 
L 223.927273 203.264522 
L 224.068264 200.910873 
L 224.072017 205.676854 
L 224.258886 200.951671 
L 224.354206 200.972073 
L 224.544867 201.012879 
L 224.689405 203.428277 
L 225.070624 203.510188 
L 225.212381 201.155744 
L 225.307765 201.176159 
L 225.31011 205.943915 
L 225.451946 203.592121 
L 225.500682 205.985022 
L 225.689368 201.257831 
L 225.83337 203.674076 
L 226.022588 198.940846 
L 226.118081 198.961204 
L 226.072551 206.108376 
L 226.214897 203.756052 
L 226.310295 203.77655 
L 226.405699 203.797049 
L 226.54835 201.441676 
L 226.643824 201.46211 
L 227.216805 201.584742 
L 227.360081 199.22598 
L 227.40785 201.625631 
L 227.551255 199.266735 
L 227.694466 201.686974 
L 227.885575 201.727876 
L 228.028549 204.145743 
L 228.172288 201.78924 
L 228.219594 204.186792 
L 228.363461 201.830156 
L 228.459057 201.850616 
L 228.601762 204.268906 
L 228.890188 199.552176 
L 229.079616 204.37158 
L 229.272972 199.63378 
L 229.270802 204.41266 
L 229.415375 202.055293 
L 229.511042 202.075768 
L 229.653253 204.494835 
L 229.798082 202.137202 
L 229.986489 206.952627 
L 230.13146 204.597585 
L 230.273298 207.014492 
L 230.751442 207.11763 
L 230.896926 204.762057 
L 230.896926 204.762057 
" clip-path="url(#p36a7d93751)" style="fill: none; stroke: #808080; stroke-width: 0.5; stroke-linecap: square"/>
   </g>
   <g id="line2d_12">
    <path d="M 231.24296 189.281703 
L 234.683769 190.002214 
L 234.827568 187.702015 
L 234.920739 187.721449 
L 235.056246 190.080212 
L 235.778203 178.550117 
L 235.820226 180.900208 
L 236.01662 176.254843 
L 235.99743 185.612183 
L 236.287242 180.996473 
L 236.328975 183.344365 
L 236.619383 178.722815 
L 236.712878 178.74201 
L 236.754411 181.092769 
L 237.004112 174.109134 
L 236.920095 190.470505 
L 237.262976 183.537653 
L 237.671079 169.540778 
L 237.7122 171.90252 
L 237.911396 167.233111 
L 237.794309 176.618351 
L 238.392953 162.608905 
L 238.486929 162.627656 
L 238.474527 167.346405 
L 238.835102 155.594668 
L 238.768894 162.683917 
L 239.184527 148.536405 
L 239.063977 158.01008 
L 239.521565 146.220683 
L 239.33299 162.796473 
L 239.480814 160.460582 
L 240.197011 141.579826 
L 240.669914 141.670644 
L 240.929273 134.541023 
L 240.694761 148.830218 
L 240.843983 146.476854 
L 240.883653 148.866967 
L 241.087955 144.138854 
L 240.853409 158.364163 
L 241.206513 151.309818 
L 241.838038 132.313992 
L 242.10016 125.148824 
L 241.97215 134.738679 
L 242.178517 129.975991 
L 242.217632 132.385617 
L 242.687938 120.433993 
L 242.390546 137.215025 
L 243.104382 110.828297 
L 243.030056 118.080621 
L 243.181929 115.689178 
L 243.089799 127.741469 
L 243.638675 108.497151 
L 243.506562 118.168124 
L 243.772697 110.949324 
L 243.395483 135.008444 
L 243.603652 130.243703 
L 243.510625 142.216184 
L 243.548922 144.613524 
L 243.927052 132.708169 
L 243.568983 151.7714 
L 243.720027 149.418778 
L 243.758149 151.80836 
L 244.402254 132.797836 
L 244.383076 137.594341 
L 244.420951 139.997618 
L 244.630185 135.242458 
L 244.66795 137.648573 
L 244.935061 130.493809 
L 244.780996 144.851165 
L 245.220525 130.547433 
L 245.083014 152.067214 
L 245.502487 142.598708 
L 245.576919 147.393691 
L 246.384409 125.946407 
L 246.47976 125.964158 
L 246.575118 125.98191 
L 246.611927 128.400137 
L 246.765853 126.017419 
L 246.219591 152.289279 
L 246.430514 147.559044 
L 246.482411 157.101528 
L 247.11698 142.908761 
L 246.744695 161.903944 
L 247.578783 135.801307 
L 247.614973 138.209594 
L 247.828376 133.444313 
L 247.75934 147.816457 
L 248.031624 140.688003 
L 247.772397 154.975518 
L 248.221912 140.724388 
L 248.257719 143.127833 
L 248.650532 131.191761 
L 248.68619 133.606175 
L 248.459855 150.340903 
L 248.554812 150.359377 
L 248.768809 145.620332 
L 248.685274 152.771027 
L 248.958982 145.657012 
L 248.875118 152.808119 
L 249.268948 140.924588 
L 249.279511 148.110935 
L 249.830741 133.822141 
L 249.986646 131.44275 
L 249.78012 143.4202 
L 250.516457 121.878188 
L 250.282025 138.717318 
L 250.568076 138.771774 
L 251.152318 119.572141 
L 251.125386 124.411128 
L 251.528844 112.3539 
L 251.132879 131.658071 
L 251.474088 122.054851 
L 250.957327 146.042451 
L 251.113549 143.676276 
" clip-path="url(#p36a7d93751)" style="fill: none; stroke: #0000ff; stroke-width: 0.5; stroke-linecap: square"/>
   </g>
   <g id="line2d_13"/>
  </g>
 </g>
 <defs>
  <clipPath id="p36a7d93751">
   <rect x="3.6" y="3.6" width="277.2" height="277.2"/>
  </clipPath>
 </defs>
</svg>
