<?xml version="1.0" encoding="utf-8" standalone="no"?>
<!DOCTYPE svg PUBLIC "-//W3C//DTD SVG 1.1//EN"
  "http://www.w3.org/Graphics/SVG/1.1/DTD/svg11.dtd">
<svg xmlns:xlink="http://www.w3.org/1999/xlink" width="174.6pt" height="90.36pt" viewBox="0 0 174.6 90.36" xmlns="http://www.w3.org/2000/svg" version="1.1">
 <metadata>
  <rdf:RDF xmlns:dc="http://purl.org/dc/elements/1.1/" xmlns:cc="http://creativecommons.org/ns#" xmlns:rdf="http://www.w3.org/1999/02/22-rdf-syntax-ns#">
   <cc:Work>
    <dc:type rdf:resource="http://purl.org/dc/dcmitype/StillImage"/>
    <dc:date>2023-03-29T17:04:34.362433</dc:date>
    <dc:format>image/svg+xml</dc:format>
    <dc:creator>
     <cc:Agent>
      <dc:title>Matplotlib v3.5.0, https://matplotlib.org/</dc:title>
     </cc:Agent>
    </dc:creator>
   </cc:Work>
  </rdf:RDF>
 </metadata>
 <defs>
  <style type="text/css">*{stroke-linejoin: round; stroke-linecap: butt}</style>
 </defs>
 <g id="figure_1">
  <g id="patch_1">
   <path d="M 0 90.36 
L 174.6 90.36 
L 174.6 0 
L 0 0 
z
" style="fill: #ffffff"/>
  </g>
  <g id="axes_1">
   <g id="line2d_1">
    <path d="M 11.209091 83.3627 
L 14.254631 83.3627 
L 14.349804 81.885613 
L 14.54015 83.3627 
L 14.825669 78.931439 
L 15.111189 83.3627 
L 15.301535 81.885613 
L 15.396708 81.885613 
L 15.587054 83.3627 
L 15.777401 83.3627 
L 16.06292 77.454352 
L 16.348439 77.454352 
L 16.443612 78.931439 
L 16.538786 77.454352 
L 16.633959 81.885613 
L 16.824305 80.408526 
L 17.014651 80.408526 
L 17.109824 74.500178 
L 17.204997 77.454352 
L 17.490517 74.500178 
L 17.58569 74.500178 
L 17.776036 68.591829 
L 17.871209 68.591829 
L 17.966382 73.023091 
L 18.251902 64.160568 
L 18.442248 67.114742 
L 18.537421 65.637655 
L 18.632594 56.775133 
L 18.727767 62.683481 
L 18.82294 53.820959 
L 19.013287 61.206394 
L 19.393979 53.820959 
L 19.489152 47.912611 
L 19.679499 53.820959 
L 19.774672 50.866785 
L 19.869845 55.298046 
L 20.155364 50.866785 
L 20.250537 46.435524 
L 20.34571 50.866785 
L 20.536057 44.958437 
L 20.63123 43.48135 
L 20.726403 46.435524 
L 20.916749 40.527176 
L 21.107095 47.912611 
L 21.202268 43.48135 
L 21.392615 49.389698 
L 21.582961 43.48135 
L 21.678134 44.958437 
L 21.773307 55.298046 
L 21.86848 43.48135 
L 21.963653 46.435524 
L 22.058827 44.958437 
L 22.249173 39.050089 
L 22.344346 42.004263 
L 22.439519 39.050089 
L 22.534692 40.527176 
L 22.725038 46.435524 
L 22.820211 50.866785 
L 23.010558 40.527176 
L 23.105731 42.004263 
L 23.296077 39.050089 
L 23.486423 50.866785 
L 23.581596 43.48135 
L 23.771943 52.343872 
L 23.867116 50.866785 
L 23.962289 44.958437 
L 24.057462 47.912611 
L 24.152635 55.298046 
L 24.342981 49.389698 
L 24.438155 52.343872 
L 24.533328 59.729307 
L 24.818847 39.050089 
L 24.91402 46.435524 
L 25.009193 43.48135 
L 25.199539 34.618828 
L 25.389886 46.435524 
L 25.485059 47.912611 
L 25.675405 36.095915 
L 25.770578 39.050089 
L 25.960924 34.618828 
L 26.056098 39.050089 
L 26.246444 31.664654 
L 26.341617 40.527176 
L 26.43679 36.095915 
L 26.627136 39.050089 
L 26.912656 28.71048 
L 27.007829 42.004263 
L 27.198175 33.141741 
L 27.483694 44.958437 
L 27.578867 43.48135 
L 27.769214 47.912611 
L 27.864387 43.48135 
L 28.054733 47.912611 
L 28.149906 44.958437 
L 28.245079 50.866785 
L 28.340252 49.389698 
L 28.435426 53.820959 
L 28.530599 50.866785 
L 28.625772 43.48135 
L 28.720945 50.866785 
L 28.816118 46.435524 
L 28.911291 52.343872 
L 29.006464 50.866785 
L 29.101637 61.206394 
L 29.196811 59.729307 
L 29.291984 56.775133 
L 29.48233 58.25222 
L 29.577503 58.25222 
L 29.672676 52.343872 
L 29.767849 55.298046 
L 29.958195 44.958437 
L 30.053369 42.004263 
L 30.148542 43.48135 
L 30.338888 49.389698 
L 30.434061 49.389698 
L 30.529234 46.435524 
L 30.71958 61.206394 
L 31.0051 67.114742 
L 31.100273 55.298046 
L 31.195446 71.546004 
L 31.385792 62.683481 
L 31.576138 62.683481 
L 31.766485 52.343872 
L 31.861658 52.343872 
L 32.147177 58.25222 
L 32.337523 49.389698 
L 32.432697 50.866785 
L 32.52787 46.435524 
L 32.623043 52.343872 
L 32.718216 50.866785 
L 32.813389 52.343872 
L 32.908562 42.004263 
L 33.003735 43.48135 
L 33.194082 56.775133 
L 33.384428 62.683481 
L 33.669947 53.820959 
L 33.955466 65.637655 
L 34.05064 61.206394 
L 34.240986 65.637655 
L 34.431332 59.729307 
L 34.526505 62.683481 
L 34.907198 53.820959 
L 35.002371 62.683481 
L 35.097544 59.729307 
L 35.192717 47.912611 
L 35.28789 64.160568 
L 35.383063 61.206394 
L 35.478236 67.114742 
L 35.668583 64.160568 
L 35.763756 56.775133 
L 35.954102 64.160568 
L 36.049275 61.206394 
L 36.144448 68.591829 
L 36.239621 56.775133 
L 36.429968 61.206394 
L 36.81066 68.591829 
L 36.905833 65.637655 
L 37.096179 71.546004 
L 37.191353 64.160568 
L 37.381699 70.068917 
L 37.476872 68.591829 
L 37.762391 74.500178 
L 37.952738 71.546004 
L 38.047911 75.977265 
L 38.238257 67.114742 
L 38.428603 73.023091 
L 38.523776 73.023091 
L 38.809296 77.454352 
L 39.094815 67.114742 
L 39.189988 71.546004 
L 39.285161 67.114742 
L 39.380334 71.546004 
L 39.570681 68.591829 
L 39.665854 70.068917 
L 39.761027 65.637655 
L 39.951373 73.023091 
L 40.141719 68.591829 
L 40.332065 77.454352 
L 40.427239 70.068917 
L 40.617585 74.500178 
L 40.903104 71.546004 
L 41.09345 71.546004 
L 41.188624 67.114742 
L 41.283797 68.591829 
L 41.37897 75.977265 
L 41.569316 73.023091 
L 41.759662 75.977265 
L 41.854835 75.977265 
L 41.950009 77.454352 
L 42.045182 73.023091 
L 42.140355 74.500178 
L 42.235528 73.023091 
L 42.425874 78.931439 
L 42.711393 74.500178 
L 42.806567 75.977265 
L 43.092086 70.068917 
L 43.187259 67.114742 
L 43.282432 73.023091 
L 43.567952 70.068917 
L 43.663125 70.068917 
L 43.853471 67.114742 
L 44.043817 68.591829 
L 44.13899 65.637655 
L 44.329337 68.591829 
L 44.519683 65.637655 
L 44.614856 67.114742 
L 44.805202 73.023091 
L 44.995548 65.637655 
L 45.090721 65.637655 
L 45.281068 68.591829 
L 45.376241 67.114742 
L 45.471414 68.591829 
L 45.566587 62.683481 
L 45.756933 70.068917 
L 45.852106 75.977265 
L 46.042453 71.546004 
L 46.137626 65.637655 
L 46.327972 68.591829 
L 46.613491 73.023091 
L 46.708665 67.114742 
L 46.899011 68.591829 
L 46.994184 74.500178 
L 47.18453 70.068917 
L 47.374876 75.977265 
L 47.565223 71.546004 
L 47.660396 73.023091 
L 47.755569 73.023091 
L 47.945915 77.454352 
L 48.041088 75.977265 
L 48.136261 75.977265 
L 48.231434 70.068917 
L 48.421781 74.500178 
L 48.7073 74.500178 
L 48.802473 73.023091 
L 48.992819 77.454352 
L 49.087992 80.408526 
L 49.183166 78.931439 
L 49.278339 74.500178 
L 49.468685 81.885613 
L 49.563858 80.408526 
L 49.659031 81.885613 
L 49.754204 78.931439 
L 49.944551 80.408526 
L 50.039724 78.931439 
L 50.325243 81.885613 
L 50.420416 81.885613 
L 50.610762 78.931439 
L 50.705936 80.408526 
L 50.801109 78.931439 
L 50.896282 80.408526 
L 50.991455 78.931439 
L 51.086628 80.408526 
L 51.276974 77.454352 
L 51.372147 71.546004 
L 51.46732 77.454352 
L 51.562494 74.500178 
L 51.657667 77.454352 
L 51.75284 75.977265 
L 51.848013 77.454352 
L 51.943186 75.977265 
L 52.038359 78.931439 
L 52.133532 77.454352 
L 52.323879 80.408526 
L 52.419052 81.885613 
L 52.609398 78.931439 
L 52.799744 81.885613 
L 53.085264 75.977265 
L 53.180437 77.454352 
L 53.370783 77.454352 
L 53.561129 83.3627 
L 54.132168 75.977265 
L 54.322514 77.454352 
L 54.51286 77.454352 
L 54.608033 78.931439 
L 54.893553 75.977265 
L 55.083899 78.931439 
L 55.179072 78.931439 
L 55.369418 80.408526 
L 55.464592 78.931439 
L 55.750111 81.885613 
L 55.845284 81.885613 
L 56.130803 78.931439 
L 56.225976 78.931439 
L 56.416323 80.408526 
L 56.701842 74.500178 
L 56.797015 75.977265 
L 56.892188 77.454352 
L 57.082535 73.023091 
L 57.177708 80.408526 
L 57.368054 78.931439 
L 57.653573 81.885613 
L 57.843919 80.408526 
L 57.939093 80.408526 
L 58.034266 81.885613 
L 58.129439 80.408526 
L 58.224612 81.885613 
L 58.414958 78.931439 
L 58.700478 81.885613 
L 58.890824 81.885613 
L 59.08117 83.3627 
L 59.366689 80.408526 
L 59.557036 81.885613 
L 59.652209 81.885613 
L 59.842555 77.454352 
L 60.032901 81.885613 
L 60.223247 80.408526 
L 60.413594 80.408526 
L 60.60394 78.931439 
L 60.699113 80.408526 
L 60.794286 78.931439 
L 60.984632 80.408526 
L 61.079806 80.408526 
L 61.174979 78.931439 
L 61.270152 80.408526 
L 61.365325 75.977265 
L 61.555671 81.885613 
L 61.650844 81.885613 
L 61.841191 80.408526 
L 62.031537 81.885613 
L 62.412229 81.885613 
L 62.602575 80.408526 
L 63.173614 80.408526 
L 63.268787 83.3627 
L 63.459134 81.885613 
L 64.125345 81.885613 
L 64.315692 83.3627 
L 64.506038 83.3627 
L 64.791557 80.408526 
L 65.267423 80.408526 
L 65.457769 81.885613 
L 65.552942 80.408526 
L 65.743288 81.885613 
L 65.933635 81.885613 
L 66.028808 83.3627 
L 66.219154 80.408526 
L 66.314327 81.885613 
L 66.504673 80.408526 
L 66.790193 83.3627 
L 66.885366 81.885613 
L 66.980539 83.3627 
L 67.170885 80.408526 
L 67.266058 83.3627 
L 67.361231 80.408526 
L 67.551578 81.885613 
L 67.646751 80.408526 
L 67.93227 83.3627 
L 68.408136 83.3627 
L 68.598482 80.408526 
L 68.788828 83.3627 
L 69.169521 83.3627 
L 69.264694 81.885613 
L 69.359867 83.3627 
L 69.45504 81.885613 
L 69.645386 83.3627 
L 70.026079 83.3627 
L 70.216425 81.885613 
L 70.406771 81.885613 
L 70.597118 83.3627 
L 71.263329 83.3627 
L 71.358502 81.885613 
L 71.453676 83.3627 
L 71.739195 80.408526 
L 71.834368 80.408526 
L 72.024714 75.977265 
L 72.215061 78.931439 
L 72.405407 75.977265 
L 72.595753 78.931439 
L 72.690926 74.500178 
L 73.071619 78.931439 
L 73.261965 73.023091 
L 73.357138 71.546004 
L 73.547484 64.160568 
L 73.73783 70.068917 
L 73.928177 70.068917 
L 74.118523 73.023091 
L 74.308869 71.546004 
L 74.499215 62.683481 
L 74.689562 68.591829 
L 74.784735 70.068917 
L 74.879908 61.206394 
L 75.070254 68.591829 
L 75.165427 74.500178 
L 75.355773 65.637655 
L 75.450947 67.114742 
L 75.54612 67.114742 
L 75.641293 61.206394 
L 75.736466 67.114742 
L 75.831639 65.637655 
L 75.926812 61.206394 
L 76.021985 65.637655 
L 76.117158 64.160568 
L 76.212332 65.637655 
L 76.307505 58.25222 
L 76.402678 59.729307 
L 76.497851 58.25222 
L 76.688197 70.068917 
L 76.878543 64.160568 
L 77.259236 53.820959 
L 77.354409 58.25222 
L 77.639928 52.343872 
L 77.735101 55.298046 
L 77.830275 50.866785 
L 77.925448 52.343872 
L 78.210967 43.48135 
L 78.401313 53.820959 
L 78.59166 44.958437 
L 78.686833 46.435524 
L 78.782006 55.298046 
L 78.877179 49.389698 
L 78.972352 50.866785 
L 79.067525 59.729307 
L 79.162698 47.912611 
L 79.257871 56.775133 
L 79.353045 55.298046 
L 79.448218 56.775133 
L 79.638564 50.866785 
L 79.733737 49.389698 
L 79.924083 50.866785 
L 80.019256 56.775133 
L 80.114429 55.298046 
L 80.304776 46.435524 
L 80.399949 47.912611 
L 80.495122 44.958437 
L 80.685468 49.389698 
L 80.875814 42.004263 
L 80.970988 39.050089 
L 81.066161 44.958437 
L 81.161334 42.004263 
L 81.35168 49.389698 
L 81.542026 43.48135 
L 81.637199 49.389698 
L 81.732373 46.435524 
L 81.827546 55.298046 
L 82.017892 50.866785 
L 82.113065 53.820959 
L 82.303411 52.343872 
L 82.398584 53.820959 
L 82.493757 52.343872 
L 82.588931 43.48135 
L 82.779277 53.820959 
L 83.064796 64.160568 
L 83.159969 56.775133 
L 83.255142 62.683481 
L 83.445489 50.866785 
L 83.635835 55.298046 
L 83.731008 47.912611 
L 83.826181 53.820959 
L 83.921354 50.866785 
L 84.016527 61.206394 
L 84.206874 56.775133 
L 84.302047 53.820959 
L 84.682739 62.683481 
L 84.873085 50.866785 
L 85.063432 56.775133 
L 85.253778 59.729307 
L 85.348951 65.637655 
L 85.444124 59.729307 
L 85.539297 64.160568 
L 85.63447 55.298046 
L 85.729644 61.206394 
L 85.91999 56.775133 
L 86.110336 62.683481 
L 86.205509 62.683481 
L 86.300682 53.820959 
L 86.395855 59.729307 
L 86.681375 55.298046 
L 86.776548 62.683481 
L 86.871721 49.389698 
L 87.062067 52.343872 
L 87.15724 62.683481 
L 87.252413 61.206394 
L 87.537933 67.114742 
L 87.633106 61.206394 
L 87.728279 64.160568 
L 88.013798 53.820959 
L 88.108972 59.729307 
L 88.299318 49.389698 
L 88.489664 67.114742 
L 88.68001 52.343872 
L 88.870356 59.729307 
L 88.96553 58.25222 
L 89.060703 59.729307 
L 89.155876 65.637655 
L 89.251049 61.206394 
L 89.346222 67.114742 
L 89.536568 59.729307 
L 89.726915 62.683481 
L 89.917261 55.298046 
L 90.012434 53.820959 
L 90.107607 55.298046 
L 90.20278 61.206394 
L 90.4883 55.298046 
L 90.678646 58.25222 
L 90.773819 52.343872 
L 90.868992 62.683481 
L 90.964165 58.25222 
L 91.059338 61.206394 
L 91.344858 55.298046 
L 91.535204 59.729307 
L 91.72555 53.820959 
L 91.820723 55.298046 
L 91.915896 50.866785 
L 92.106243 59.729307 
L 92.201416 59.729307 
L 92.296589 67.114742 
L 92.582108 43.48135 
L 92.677281 47.912611 
L 92.867627 39.050089 
L 93.057974 61.206394 
L 93.343493 43.48135 
L 93.533839 58.25222 
L 93.724186 59.729307 
L 94.009705 49.389698 
L 94.104878 53.820959 
L 94.200051 52.343872 
L 94.390397 43.48135 
L 94.485571 46.435524 
L 94.580744 43.48135 
L 94.77109 52.343872 
L 94.866263 50.866785 
L 95.056609 30.187567 
L 95.246955 40.527176 
L 95.342129 33.141741 
L 95.437302 40.527176 
L 95.532475 37.573002 
L 95.722821 59.729307 
L 95.913167 43.48135 
L 96.103514 40.527176 
L 96.29386 55.298046 
L 96.484206 46.435524 
L 96.579379 44.958437 
L 96.674552 31.664654 
L 96.769725 39.050089 
L 96.864899 37.573002 
L 96.960072 33.141741 
L 97.150418 21.325044 
L 97.340764 34.618828 
L 97.435937 24.279218 
L 97.53111 25.756306 
L 97.626283 24.279218 
L 97.911803 39.050089 
L 98.197322 24.279218 
L 98.292495 18.37087 
L 98.482842 34.618828 
L 98.578015 37.573002 
L 98.673188 36.095915 
L 98.768361 24.279218 
L 98.863534 37.573002 
L 98.958707 36.095915 
L 99.05388 42.004263 
L 99.244227 21.325044 
L 99.434573 31.664654 
L 99.529746 43.48135 
L 99.624919 27.233393 
L 99.720092 28.71048 
L 99.815265 33.141741 
L 100.005611 44.958437 
L 100.195958 27.233393 
L 100.386304 40.527176 
L 100.481477 36.095915 
L 100.57665 40.527176 
L 100.671823 39.050089 
L 100.86217 46.435524 
L 100.957343 40.527176 
L 101.242862 50.866785 
L 101.433208 42.004263 
L 101.623554 50.866785 
L 101.813901 39.050089 
L 101.909074 40.527176 
L 102.004247 34.618828 
L 102.09942 37.573002 
L 102.289766 36.095915 
L 102.384939 36.095915 
L 102.670459 53.820959 
L 102.860805 47.912611 
L 102.955978 47.912611 
L 103.146324 49.389698 
L 103.241498 44.958437 
L 103.336671 47.912611 
L 103.527017 40.527176 
L 103.717363 46.435524 
L 103.812536 44.958437 
L 104.002882 53.820959 
L 104.098056 46.435524 
L 104.193229 49.389698 
L 104.383575 40.527176 
L 104.478748 43.48135 
L 104.573921 40.527176 
L 104.669094 33.141741 
L 104.764267 40.527176 
L 104.859441 34.618828 
L 104.954614 37.573002 
L 105.049787 47.912611 
L 105.14496 36.095915 
L 105.335306 44.958437 
L 105.525652 34.618828 
L 105.715999 47.912611 
L 105.811172 42.004263 
L 105.906345 44.958437 
L 106.001518 37.573002 
L 106.096691 40.527176 
L 106.191864 37.573002 
L 106.287037 39.050089 
L 106.38221 47.912611 
L 106.572557 37.573002 
L 106.66773 42.004263 
L 106.762903 52.343872 
L 106.858076 37.573002 
L 106.953249 43.48135 
L 107.048422 40.527176 
L 107.143595 50.866785 
L 107.333942 46.435524 
L 107.524288 53.820959 
L 107.619461 53.820959 
L 107.714634 47.912611 
L 107.809807 50.866785 
L 107.90498 61.206394 
L 108.095327 56.775133 
L 108.1905 56.775133 
L 108.380846 58.25222 
L 108.476019 56.775133 
L 108.571192 58.25222 
L 108.666365 55.298046 
L 108.856712 58.25222 
L 109.047058 49.389698 
L 109.142231 49.389698 
L 109.42775 53.820959 
L 109.618097 50.866785 
L 109.71327 58.25222 
L 109.903616 50.866785 
L 109.998789 50.866785 
L 110.093962 52.343872 
L 110.189135 58.25222 
L 110.569828 47.912611 
L 110.760174 59.729307 
L 111.140866 47.912611 
L 111.521559 52.343872 
L 111.616732 50.866785 
L 111.711905 53.820959 
L 111.807078 52.343872 
L 111.902251 59.729307 
L 112.092598 50.866785 
L 112.568463 44.958437 
L 112.663636 50.866785 
L 112.853983 47.912611 
L 112.949156 47.912611 
L 113.044329 43.48135 
L 113.139502 44.958437 
L 113.234675 50.866785 
L 113.329848 43.48135 
L 113.425021 44.958437 
L 113.520194 39.050089 
L 113.615368 42.004263 
L 113.805714 37.573002 
L 113.900887 40.527176 
L 113.99606 52.343872 
L 114.091233 39.050089 
L 114.186406 42.004263 
L 114.281579 39.050089 
L 114.376753 40.527176 
L 114.471926 37.573002 
L 114.567099 50.866785 
L 114.662272 42.004263 
L 114.757445 52.343872 
L 115.138137 31.664654 
L 115.51883 42.004263 
L 115.804349 22.802131 
L 115.994696 36.095915 
L 116.280215 19.847957 
L 116.470561 36.095915 
L 116.565734 31.664654 
L 116.660907 36.095915 
L 116.756081 22.802131 
L 116.851254 25.756306 
L 117.0416 44.958437 
L 117.231946 37.573002 
L 117.327119 43.48135 
L 117.612639 24.279218 
L 117.707812 25.756306 
L 117.802985 31.664654 
L 117.898158 28.71048 
L 117.993331 15.416696 
L 118.088504 31.664654 
L 118.183677 22.802131 
L 118.374024 30.187567 
L 118.659543 25.756306 
L 118.754716 28.71048 
L 118.849889 39.050089 
L 118.945062 22.802131 
L 119.040235 34.618828 
L 119.135408 21.325044 
L 119.230582 30.187567 
L 119.325755 28.71048 
L 119.420928 21.325044 
L 119.516101 22.802131 
L 119.80162 37.573002 
L 119.896793 27.233393 
L 120.372659 44.958437 
L 120.467832 34.618828 
L 120.563005 40.527176 
L 120.658178 56.775133 
L 120.848525 33.141741 
L 121.038871 44.958437 
L 121.134044 42.004263 
L 121.229217 49.389698 
L 121.32439 44.958437 
L 121.419563 49.389698 
L 121.514736 43.48135 
L 121.705083 52.343872 
L 121.990602 40.527176 
L 122.180948 44.958437 
L 122.371295 36.095915 
L 122.466468 31.664654 
L 122.561641 33.141741 
L 122.751987 46.435524 
L 122.84716 30.187567 
L 123.037506 34.618828 
L 123.13268 31.664654 
L 123.323026 36.095915 
L 123.513372 36.095915 
L 123.703718 49.389698 
L 123.798891 46.435524 
L 123.894064 36.095915 
L 123.989238 44.958437 
L 124.084411 42.004263 
L 124.179584 43.48135 
L 124.274757 47.912611 
L 124.465103 42.004263 
L 124.560276 40.527176 
L 124.655449 42.004263 
L 124.750623 39.050089 
L 124.845796 40.527176 
L 125.036142 49.389698 
L 125.131315 44.958437 
L 125.226488 49.389698 
L 125.416834 46.435524 
L 125.512008 49.389698 
L 125.607181 47.912611 
L 125.8927 59.729307 
L 125.987873 53.820959 
L 126.083046 64.160568 
L 126.273392 50.866785 
L 126.368566 55.298046 
L 126.463739 65.637655 
L 126.844431 49.389698 
L 126.939604 50.866785 
L 127.034777 61.206394 
L 127.129951 53.820959 
L 127.225124 58.25222 
L 127.41547 47.912611 
L 127.510643 52.343872 
L 127.700989 49.389698 
L 127.891335 49.389698 
L 127.986509 53.820959 
L 128.272028 43.48135 
L 128.747894 61.206394 
L 128.843067 55.298046 
L 129.033413 59.729307 
L 129.128586 58.25222 
L 129.318932 59.729307 
L 129.509279 55.298046 
L 129.604452 58.25222 
L 129.794798 50.866785 
L 129.889971 62.683481 
L 129.985144 59.729307 
L 130.17549 64.160568 
L 130.365837 55.298046 
L 130.556183 55.298046 
L 130.651356 50.866785 
L 130.746529 52.343872 
L 130.841702 59.729307 
L 131.032048 55.298046 
L 131.127222 61.206394 
L 131.222395 59.729307 
L 131.317568 64.160568 
L 131.412741 56.775133 
L 131.507914 61.206394 
L 131.603087 52.343872 
L 131.69826 55.298046 
L 131.793433 50.866785 
L 131.888607 52.343872 
L 132.078953 49.389698 
L 132.364472 64.160568 
L 132.459645 61.206394 
L 132.649991 65.637655 
L 132.840338 58.25222 
L 133.030684 61.206394 
L 133.125857 59.729307 
L 133.22103 62.683481 
L 133.316203 56.775133 
L 133.411376 61.206394 
L 133.50655 58.25222 
L 133.601723 59.729307 
L 133.792069 71.546004 
L 133.887242 80.408526 
L 134.267935 71.546004 
L 134.363108 75.977265 
L 134.648627 67.114742 
L 134.7438 71.546004 
L 134.934146 67.114742 
L 135.029319 74.500178 
L 135.314839 68.591829 
L 135.410012 67.114742 
L 135.505185 71.546004 
L 135.600358 67.114742 
L 135.695531 74.500178 
L 135.790704 73.023091 
L 135.885878 68.591829 
L 135.981051 70.068917 
L 136.076224 61.206394 
L 136.26657 68.591829 
L 136.361743 68.591829 
L 136.647262 62.683481 
L 136.742436 64.160568 
L 136.932782 71.546004 
L 137.123128 65.637655 
L 137.218301 74.500178 
L 137.408647 67.114742 
L 137.503821 71.546004 
L 137.598994 64.160568 
L 137.78934 73.023091 
L 137.884513 68.591829 
L 138.074859 74.500178 
L 138.265206 67.114742 
L 138.360379 70.068917 
L 138.455552 68.591829 
L 138.550725 73.023091 
L 138.645898 71.546004 
L 138.741071 73.023091 
L 138.836244 71.546004 
L 138.931417 75.977265 
L 139.216937 68.591829 
L 139.407283 73.023091 
L 139.502456 73.023091 
L 139.597629 67.114742 
L 139.883149 73.023091 
L 140.073495 73.023091 
L 140.263841 70.068917 
L 140.454187 77.454352 
L 140.739707 67.114742 
L 140.930053 78.931439 
L 141.025226 70.068917 
L 141.215572 75.977265 
L 141.310745 77.454352 
L 141.501092 75.977265 
L 141.596265 68.591829 
L 141.691438 70.068917 
L 141.786611 74.500178 
L 142.07213 68.591829 
L 142.167303 71.546004 
L 142.35765 67.114742 
L 142.547996 73.023091 
L 142.643169 74.500178 
L 142.738342 70.068917 
L 142.928688 74.500178 
L 143.023862 73.023091 
L 143.119035 75.977265 
L 143.309381 73.023091 
L 143.404554 73.023091 
L 143.5949 75.977265 
L 143.690073 75.977265 
L 143.785246 78.931439 
L 143.975593 74.500178 
L 144.070766 78.931439 
L 144.165939 77.454352 
L 144.261112 78.931439 
L 144.356285 75.977265 
L 144.546631 77.454352 
L 144.927324 68.591829 
L 145.022497 70.068917 
L 145.212843 65.637655 
L 145.593536 75.977265 
L 145.783882 71.546004 
L 145.879055 71.546004 
L 146.069401 75.977265 
L 146.164574 73.023091 
L 146.259748 78.931439 
L 146.354921 74.500178 
L 146.450094 80.408526 
L 146.830786 75.977265 
L 147.021133 81.885613 
L 147.211479 80.408526 
L 147.306652 81.885613 
L 147.496998 78.931439 
L 147.592171 80.408526 
L 147.782517 75.977265 
L 147.877691 77.454352 
L 147.972864 77.454352 
L 148.068037 74.500178 
L 148.16321 77.454352 
L 148.258383 73.023091 
L 148.448729 75.977265 
L 148.639076 71.546004 
L 148.734249 73.023091 
L 148.829422 70.068917 
L 148.924595 75.977265 
L 149.114941 71.546004 
L 149.210114 73.023091 
L 149.400461 68.591829 
L 149.495634 73.023091 
L 149.590807 70.068917 
L 149.876326 74.500178 
L 149.971499 68.591829 
L 150.257019 78.931439 
L 150.447365 77.454352 
L 150.542538 65.637655 
L 150.637711 70.068917 
L 150.732884 67.114742 
L 150.828057 73.023091 
L 151.113577 64.160568 
L 151.20875 62.683481 
L 151.303923 67.114742 
L 151.399096 61.206394 
L 151.494269 65.637655 
L 151.589442 53.820959 
L 151.684615 58.25222 
L 151.874962 50.866785 
L 152.065308 62.683481 
L 152.160481 59.729307 
L 152.350827 49.389698 
L 152.446 49.389698 
L 152.636347 46.435524 
L 152.921866 49.389698 
L 153.017039 44.958437 
L 153.112212 55.298046 
L 153.302558 49.389698 
L 153.397732 47.912611 
L 153.492905 58.25222 
L 153.96877 40.527176 
L 154.063943 44.958437 
L 154.159116 42.004263 
L 154.25429 43.48135 
L 154.444636 36.095915 
L 154.539809 47.912611 
L 154.634982 31.664654 
L 154.730155 36.095915 
L 154.825328 31.664654 
L 154.920501 33.141741 
L 155.015675 40.527176 
L 155.110848 28.71048 
L 155.206021 33.141741 
L 155.301194 28.71048 
L 155.49154 46.435524 
L 155.586713 42.004263 
L 155.872233 52.343872 
L 155.967406 43.48135 
L 156.062579 56.775133 
L 156.157752 55.298046 
L 156.252925 55.298046 
L 156.348098 52.343872 
L 156.443271 44.958437 
L 156.538444 46.435524 
L 156.633618 50.866785 
L 156.728791 43.48135 
L 156.823964 44.958437 
L 156.919137 40.527176 
L 157.109483 50.866785 
L 157.204656 43.48135 
L 157.585349 56.775133 
L 157.775695 49.389698 
L 157.966041 53.820959 
L 158.061214 49.389698 
L 158.156388 39.050089 
L 158.251561 40.527176 
L 158.346734 40.527176 
L 158.441907 37.573002 
L 158.632253 42.004263 
L 158.727426 56.775133 
L 158.822599 53.820959 
L 159.012946 56.775133 
L 159.108119 58.25222 
L 159.393638 49.389698 
L 159.488811 61.206394 
L 159.679157 43.48135 
L 159.869504 43.48135 
L 160.05985 46.435524 
L 160.155023 52.343872 
L 160.250196 47.912611 
L 160.345369 56.775133 
L 160.440542 49.389698 
L 160.535716 50.866785 
L 160.630889 42.004263 
L 160.726062 44.958437 
L 160.916408 53.820959 
L 161.011581 55.298046 
L 161.106754 52.343872 
L 161.201927 55.298046 
L 161.2971 49.389698 
L 161.392274 55.298046 
L 161.487447 49.389698 
L 161.58262 52.343872 
L 161.772966 47.912611 
L 161.963312 42.004263 
L 162.058485 50.866785 
L 162.248832 36.095915 
L 162.439178 49.389698 
L 162.534351 49.389698 
L 162.629524 47.912611 
L 162.724697 49.389698 
L 162.81987 37.573002 
L 162.915043 40.527176 
L 163.010217 33.141741 
L 163.10539 44.958437 
L 163.200563 39.050089 
L 163.295736 53.820959 
L 163.390909 50.866785 
L 163.390909 50.866785 
" clip-path="url(#pb4f7355025)" style="fill: none; stroke: #8ea0c9; stroke-width: 0.5; stroke-linecap: square"/>
   </g>
   <g id="PathCollection_1">
    <defs>
     <path id="m979be22c87" d="M 0 2.397916 
C 0.635935 2.397916 1.245909 2.145256 1.695582 1.695582 
C 2.145256 1.245909 2.397916 0.635935 2.397916 0 
C 2.397916 -0.635935 2.145256 -1.245909 1.695582 -1.695582 
C 1.245909 -2.145256 0.635935 -2.397916 0 -2.397916 
C -0.635935 -2.397916 -1.245909 -2.145256 -1.695582 -1.695582 
C -2.145256 -1.245909 -2.397916 -0.635935 -2.397916 0 
C -2.397916 0.635935 -2.145256 1.245909 -1.695582 1.695582 
C -1.245909 2.145256 -0.635935 2.397916 0 2.397916 
z
" style="stroke: #490649"/>
    </defs>
    <g clip-path="url(#pb4f7355025)">
     <use xlink:href="#m979be22c87" x="30.148542" y="43.48135" style="fill: #490649; stroke: #490649"/>
     <use xlink:href="#m979be22c87" x="87.252413" y="61.206394" style="fill: #490649; stroke: #490649"/>
     <use xlink:href="#m979be22c87" x="106.287037" y="39.050089" style="fill: #490649; stroke: #490649"/>
     <use xlink:href="#m979be22c87" x="125.321661" y="47.912611" style="fill: #490649; stroke: #490649"/>
     <use xlink:href="#m979be22c87" x="163.390909" y="50.866785" style="fill: #490649; stroke: #490649"/>
    </g>
   </g>
   <g id="PathCollection_2">
    <g clip-path="url(#pb4f7355025)">
     <use xlink:href="#m979be22c87" x="49.183166" y="78.931439" style="fill: #490649; stroke: #490649"/>
     <use xlink:href="#m979be22c87" x="68.21779" y="83.3627" style="fill: #490649; stroke: #490649"/>
     <use xlink:href="#m979be22c87" x="144.356285" y="75.977265" style="fill: #490649; stroke: #490649"/>
    </g>
   </g>
  </g>
 </g>
 <defs>
  <clipPath id="pb4f7355025">
   <rect x="3.6" y="3.6" width="167.4" height="83.16"/>
  </clipPath>
 </defs>
</svg>
