<?xml version="1.0" encoding="utf-8" standalone="no"?>
<!DOCTYPE svg PUBLIC "-//W3C//DTD SVG 1.1//EN"
  "http://www.w3.org/Graphics/SVG/1.1/DTD/svg11.dtd">
<!-- Created with matplotlib (https://matplotlib.org/) -->
<svg height="90.36pt" version="1.1" viewBox="0 0 174.6 90.36" width="174.6pt" xmlns="http://www.w3.org/2000/svg" xmlns:xlink="http://www.w3.org/1999/xlink">
 <metadata>
  <rdf:RDF xmlns:cc="http://creativecommons.org/ns#" xmlns:dc="http://purl.org/dc/elements/1.1/" xmlns:rdf="http://www.w3.org/1999/02/22-rdf-syntax-ns#">
   <cc:Work>
    <dc:type rdf:resource="http://purl.org/dc/dcmitype/StillImage"/>
    <dc:date>2023-03-29T01:20:54.570615</dc:date>
    <dc:format>image/svg+xml</dc:format>
    <dc:creator>
     <cc:Agent>
      <dc:title>Matplotlib v3.3.4, https://matplotlib.org/</dc:title>
     </cc:Agent>
    </dc:creator>
   </cc:Work>
  </rdf:RDF>
 </metadata>
 <defs>
  <style type="text/css">*{stroke-linecap:butt;stroke-linejoin:round;}</style>
 </defs>
 <g id="figure_1">
  <g id="patch_1">
   <path d="M 0 90.36 
L 174.6 90.36 
L 174.6 0 
L 0 0 
z
" style="fill:#ffffff;"/>
  </g>
  <g id="axes_1">
   <g id="line2d_1">
    <path clip-path="url(#p635d0745ab)" d="M 11.209091 82.939929 
L 16.231091 82.939929 
L 16.383273 81.470671 
L 16.535455 81.470671 
L 16.687636 82.939929 
L 17.296364 82.939929 
L 17.448545 81.470671 
L 17.600727 81.470671 
L 17.752909 78.532155 
L 17.905091 80.001413 
L 18.057273 77.062898 
L 18.361636 80.001413 
L 18.513818 78.532155 
L 18.666 78.532155 
L 18.818182 80.001413 
L 18.970364 80.001413 
L 19.122545 81.470671 
L 19.426909 81.470671 
L 19.579091 77.062898 
L 19.731273 78.532155 
L 19.883455 81.470671 
L 20.035636 80.001413 
L 20.187818 80.001413 
L 20.34 75.59364 
L 20.492182 77.062898 
L 20.796545 74.124382 
L 20.948727 74.124382 
L 21.100909 75.59364 
L 21.253091 74.124382 
L 21.405273 74.124382 
L 21.557455 72.655124 
L 21.709636 69.716608 
L 21.861818 72.655124 
L 22.166182 72.655124 
L 22.318364 71.185866 
L 22.470545 66.778092 
L 22.622727 66.778092 
L 22.774909 71.185866 
L 22.927091 71.185866 
L 23.383636 60.90106 
L 23.535818 68.24735 
L 23.688 59.431802 
L 23.840182 57.962544 
L 23.992364 57.962544 
L 24.144545 56.493286 
L 24.296727 66.778092 
L 24.601091 56.493286 
L 24.753273 55.024028 
L 24.905455 55.024028 
L 25.057636 38.862191 
L 25.209818 50.616254 
L 25.362 41.800707 
L 25.514182 43.269965 
L 25.666364 43.269965 
L 25.970727 46.208481 
L 26.122909 44.739223 
L 26.275091 53.55477 
L 26.579455 38.862191 
L 26.731636 53.55477 
L 27.036 46.208481 
L 27.188182 60.90106 
L 27.492545 50.616254 
L 27.644727 50.616254 
L 27.796909 52.085512 
L 27.949091 47.677739 
L 28.101273 52.085512 
L 28.253455 50.616254 
L 28.405636 56.493286 
L 28.557818 69.716608 
L 28.862182 52.085512 
L 29.014364 53.55477 
L 29.166545 49.146996 
L 29.318727 49.146996 
L 29.470909 56.493286 
L 29.927455 40.331449 
L 30.079636 40.331449 
L 30.231818 46.208481 
L 30.384 46.208481 
L 30.688364 37.392933 
L 30.840545 40.331449 
L 31.144909 55.024028 
L 31.297091 44.739223 
L 31.449273 44.739223 
L 31.601455 34.454417 
L 31.905818 53.55477 
L 32.058 47.677739 
L 32.210182 50.616254 
L 32.362364 43.269965 
L 32.514545 43.269965 
L 32.818909 55.024028 
L 32.971091 38.862191 
L 33.123273 38.862191 
L 33.275455 43.269965 
L 33.427636 43.269965 
L 33.884182 59.431802 
L 34.036364 56.493286 
L 34.188545 56.493286 
L 34.492909 41.800707 
L 34.645091 43.269965 
L 34.797273 43.269965 
L 34.949455 50.616254 
L 35.101636 43.269965 
L 35.253818 44.739223 
L 35.406 52.085512 
L 35.558182 44.739223 
L 35.710364 52.085512 
L 35.862545 32.985159 
L 36.166909 43.269965 
L 36.319091 60.90106 
L 36.471273 57.962544 
L 36.623455 49.146996 
L 36.775636 56.493286 
L 36.927818 44.739223 
L 37.08 52.085512 
L 37.232182 49.146996 
L 37.384364 49.146996 
L 37.536545 56.493286 
L 37.688727 50.616254 
L 37.840909 50.616254 
L 37.993091 56.493286 
L 38.145273 53.55477 
L 38.297455 55.024028 
L 38.601818 66.778092 
L 38.754 63.839576 
L 38.906182 63.839576 
L 39.210545 56.493286 
L 39.362727 63.839576 
L 39.514909 56.493286 
L 39.667091 59.431802 
L 39.819273 59.431802 
L 39.971455 60.90106 
L 40.275818 50.616254 
L 40.428 55.024028 
L 40.580182 53.55477 
L 40.884545 46.208481 
L 41.036727 50.616254 
L 41.188909 46.208481 
L 41.341091 46.208481 
L 41.493273 60.90106 
L 41.645455 60.90106 
L 41.797636 68.24735 
L 41.949818 56.493286 
L 42.254182 62.370318 
L 42.406364 62.370318 
L 42.710727 50.616254 
L 42.862909 63.839576 
L 43.167273 68.24735 
L 43.319455 65.308834 
L 43.471636 68.24735 
L 43.623818 68.24735 
L 43.776 63.839576 
L 43.928182 66.778092 
L 44.080364 66.778092 
L 44.232545 65.308834 
L 44.384727 65.308834 
L 44.536909 66.778092 
L 44.689091 63.839576 
L 44.841273 71.185866 
L 45.145636 68.24735 
L 45.297818 59.431802 
L 45.45 60.90106 
L 45.602182 57.962544 
L 45.754364 57.962544 
L 45.906545 60.90106 
L 46.058727 56.493286 
L 46.363091 68.24735 
L 46.515273 63.839576 
L 46.667455 63.839576 
L 46.971818 57.962544 
L 47.124 59.431802 
L 47.276182 62.370318 
L 47.428364 60.90106 
L 47.580545 57.962544 
L 47.732727 63.839576 
L 47.884909 59.431802 
L 48.037091 63.839576 
L 48.341455 59.431802 
L 48.493636 71.185866 
L 48.645818 65.308834 
L 48.798 65.308834 
L 48.950182 66.778092 
L 49.102364 62.370318 
L 49.254545 62.370318 
L 49.406727 65.308834 
L 49.558909 57.962544 
L 49.711091 59.431802 
L 49.863273 55.024028 
L 50.167636 60.90106 
L 50.319818 55.024028 
L 51.080727 69.716608 
L 51.232909 68.24735 
L 51.385091 65.308834 
L 51.537273 66.778092 
L 51.689455 66.778092 
L 51.841636 68.24735 
L 51.993818 68.24735 
L 52.146 65.308834 
L 52.298182 59.431802 
L 52.450364 60.90106 
L 52.602545 60.90106 
L 52.754727 59.431802 
L 52.906909 63.839576 
L 53.059091 56.493286 
L 53.211273 66.778092 
L 53.363455 62.370318 
L 53.515636 65.308834 
L 53.667818 63.839576 
L 53.82 65.308834 
L 53.972182 69.716608 
L 54.124364 66.778092 
L 54.276545 68.24735 
L 54.428727 65.308834 
L 54.580909 71.185866 
L 54.733091 68.24735 
L 54.885273 71.185866 
L 55.037455 66.778092 
L 55.189636 74.124382 
L 55.494 69.716608 
L 55.646182 69.716608 
L 55.798364 72.655124 
L 56.254909 59.431802 
L 56.407091 60.90106 
L 56.711455 65.308834 
L 56.863636 65.308834 
L 57.015818 68.24735 
L 57.168 66.778092 
L 57.320182 63.839576 
L 57.472364 68.24735 
L 57.624545 68.24735 
L 57.776727 75.59364 
L 58.233273 65.308834 
L 58.385455 65.308834 
L 58.537636 66.778092 
L 58.689818 60.90106 
L 58.842 69.716608 
L 59.146364 63.839576 
L 59.298545 63.839576 
L 59.450727 65.308834 
L 59.907273 74.124382 
L 60.059455 71.185866 
L 60.211636 72.655124 
L 60.668182 72.655124 
L 60.820364 66.778092 
L 60.972545 68.24735 
L 61.276909 72.655124 
L 61.429091 71.185866 
L 61.733455 78.532155 
L 61.885636 80.001413 
L 62.037818 75.59364 
L 62.342182 75.59364 
L 62.494364 71.185866 
L 62.646545 71.185866 
L 62.798727 74.124382 
L 62.950909 72.655124 
L 63.103091 72.655124 
L 63.407455 69.716608 
L 63.559636 69.716608 
L 63.711818 71.185866 
L 63.864 69.716608 
L 64.016182 72.655124 
L 64.168364 71.185866 
L 64.320545 71.185866 
L 64.472727 72.655124 
L 64.624909 72.655124 
L 64.777091 74.124382 
L 64.929273 71.185866 
L 65.081455 74.124382 
L 65.385818 74.124382 
L 65.690182 66.778092 
L 65.842364 72.655124 
L 65.994545 72.655124 
L 66.146727 77.062898 
L 66.298909 71.185866 
L 66.451091 72.655124 
L 66.603273 69.716608 
L 66.755455 71.185866 
L 66.907636 74.124382 
L 67.059818 69.716608 
L 67.212 77.062898 
L 67.364182 74.124382 
L 67.516364 77.062898 
L 67.668545 74.124382 
L 67.972909 74.124382 
L 68.125091 72.655124 
L 68.277273 68.24735 
L 68.429455 72.655124 
L 68.581636 69.716608 
L 68.733818 71.185866 
L 68.886 74.124382 
L 69.038182 74.124382 
L 69.190364 77.062898 
L 69.342545 75.59364 
L 69.646909 78.532155 
L 69.799091 74.124382 
L 69.951273 74.124382 
L 70.255636 77.062898 
L 70.407818 77.062898 
L 70.56 74.124382 
L 70.712182 75.59364 
L 70.864364 74.124382 
L 71.016545 74.124382 
L 71.168727 72.655124 
L 71.320909 74.124382 
L 71.473091 77.062898 
L 71.625273 74.124382 
L 71.777455 77.062898 
L 71.929636 77.062898 
L 72.081818 72.655124 
L 72.386182 75.59364 
L 72.538364 80.001413 
L 72.842727 80.001413 
L 72.994909 78.532155 
L 73.147091 80.001413 
L 73.299273 80.001413 
L 73.451455 75.59364 
L 73.603636 80.001413 
L 73.755818 80.001413 
L 73.908 77.062898 
L 74.212364 82.939929 
L 74.364545 78.532155 
L 74.821091 78.532155 
L 74.973273 80.001413 
L 75.429818 80.001413 
L 75.582 78.532155 
L 75.734182 81.470671 
L 75.886364 80.001413 
L 76.038545 81.470671 
L 76.190727 78.532155 
L 76.342909 78.532155 
L 76.495091 80.001413 
L 76.647273 78.532155 
L 76.799455 80.001413 
L 76.951636 78.532155 
L 77.103818 80.001413 
L 77.560364 80.001413 
L 77.712545 82.939929 
L 77.864727 82.939929 
L 78.016909 80.001413 
L 78.169091 81.470671 
L 78.321273 78.532155 
L 78.473455 81.470671 
L 78.625636 80.001413 
L 78.777818 80.001413 
L 78.93 81.470671 
L 79.082182 78.532155 
L 79.234364 81.470671 
L 79.386545 80.001413 
L 79.843091 80.001413 
L 79.995273 81.470671 
L 80.147455 80.001413 
L 80.299636 81.470671 
L 80.451818 80.001413 
L 80.604 81.470671 
L 80.756182 81.470671 
L 80.908364 80.001413 
L 81.060545 77.062898 
L 81.212727 77.062898 
L 81.364909 78.532155 
L 81.669273 78.532155 
L 81.821455 77.062898 
L 82.125818 77.062898 
L 82.430182 81.470671 
L 82.582364 75.59364 
L 82.734545 80.001413 
L 82.886727 78.532155 
L 83.038909 81.470671 
L 83.191091 81.470671 
L 83.343273 80.001413 
L 83.495455 80.001413 
L 83.647636 81.470671 
L 83.952 78.532155 
L 84.256364 78.532155 
L 84.408545 77.062898 
L 84.560727 77.062898 
L 84.865091 82.939929 
L 85.169455 80.001413 
L 85.321636 81.470671 
L 85.473818 80.001413 
L 85.778182 82.939929 
L 85.930364 81.470671 
L 86.234727 81.470671 
L 86.386909 80.001413 
L 86.539091 80.001413 
L 86.691273 78.532155 
L 86.843455 81.470671 
L 87.147818 81.470671 
L 87.3 82.939929 
L 87.604364 82.939929 
L 87.908727 80.001413 
L 88.213091 82.939929 
L 88.365273 80.001413 
L 88.517455 81.470671 
L 88.669636 81.470671 
L 88.974 78.532155 
L 89.430545 78.532155 
L 89.582727 80.001413 
L 89.734909 80.001413 
L 90.039273 82.939929 
L 90.191455 80.001413 
L 90.495818 82.939929 
L 90.648 82.939929 
L 90.800182 80.001413 
L 90.952364 81.470671 
L 91.408909 81.470671 
L 91.561091 80.001413 
L 91.713273 81.470671 
L 92.169818 77.062898 
L 92.474182 81.470671 
L 92.626364 82.939929 
L 94.148182 82.939929 
L 94.300364 81.470671 
L 95.061273 81.470671 
L 95.213455 80.001413 
L 95.67 80.001413 
L 95.822182 81.470671 
L 95.974364 80.001413 
L 96.126545 81.470671 
L 96.278727 77.062898 
L 96.430909 80.001413 
L 96.583091 80.001413 
L 96.735273 77.062898 
L 96.887455 77.062898 
L 97.039636 78.532155 
L 97.191818 77.062898 
L 97.496182 77.062898 
L 97.800545 81.470671 
L 97.952727 75.59364 
L 98.104909 78.532155 
L 99.018 78.532155 
L 99.322364 82.939929 
L 99.931091 82.939929 
L 100.083273 80.001413 
L 100.387636 80.001413 
L 100.539818 81.470671 
L 100.692 81.470671 
L 100.844182 82.939929 
L 100.996364 80.001413 
L 101.148545 80.001413 
L 101.300727 81.470671 
L 101.452909 80.001413 
L 101.757273 80.001413 
L 101.909455 82.939929 
L 102.061636 80.001413 
L 102.213818 82.939929 
L 102.518182 82.939929 
L 102.670364 81.470671 
L 102.822545 82.939929 
L 103.583455 82.939929 
L 103.735636 78.532155 
L 103.887818 80.001413 
L 104.04 80.001413 
L 104.192182 81.470671 
L 104.344364 81.470671 
L 104.496545 80.001413 
L 105.257455 80.001413 
L 105.409636 78.532155 
L 105.561818 80.001413 
L 105.714 78.532155 
L 105.866182 80.001413 
L 106.170545 80.001413 
L 106.322727 81.470671 
L 106.474909 81.470671 
L 106.627091 80.001413 
L 106.779273 80.001413 
L 107.083636 82.939929 
L 107.692364 82.939929 
L 107.996727 80.001413 
L 108.148909 81.470671 
L 108.453273 78.532155 
L 108.605455 80.001413 
L 108.757636 80.001413 
L 108.909818 81.470671 
L 109.062 81.470671 
L 109.214182 80.001413 
L 109.366364 77.062898 
L 109.518545 77.062898 
L 109.670727 78.532155 
L 109.822909 78.532155 
L 109.975091 80.001413 
L 110.127273 75.59364 
L 110.583818 80.001413 
L 110.736 77.062898 
L 111.040364 80.001413 
L 111.192545 74.124382 
L 111.344727 74.124382 
L 111.496909 71.185866 
L 111.649091 74.124382 
L 111.801273 71.185866 
L 111.953455 71.185866 
L 112.257818 65.308834 
L 112.41 66.778092 
L 112.562182 65.308834 
L 112.714364 65.308834 
L 112.866545 60.90106 
L 113.018727 63.839576 
L 113.170909 60.90106 
L 113.323091 60.90106 
L 113.475273 56.493286 
L 113.627455 56.493286 
L 114.084 66.778092 
L 114.236182 57.962544 
L 114.540545 57.962544 
L 114.692727 56.493286 
L 114.844909 62.370318 
L 114.997091 56.493286 
L 115.149273 57.962544 
L 115.605818 49.146996 
L 115.758 41.800707 
L 116.062364 56.493286 
L 116.214545 59.431802 
L 116.366727 47.677739 
L 116.518909 49.146996 
L 116.671091 53.55477 
L 116.823273 47.677739 
L 116.975455 50.616254 
L 117.432 50.616254 
L 117.584182 44.739223 
L 117.736364 46.208481 
L 117.888545 43.269965 
L 118.192909 43.269965 
L 118.345091 46.208481 
L 118.497273 34.454417 
L 118.801636 44.739223 
L 118.953818 41.800707 
L 119.106 47.677739 
L 119.258182 46.208481 
L 119.410364 43.269965 
L 119.562545 53.55477 
L 119.714727 41.800707 
L 119.866909 40.331449 
L 120.019091 44.739223 
L 120.171273 56.493286 
L 120.323455 56.493286 
L 120.627818 53.55477 
L 120.78 53.55477 
L 121.084364 60.90106 
L 121.236545 56.493286 
L 121.388727 46.208481 
L 121.540909 50.616254 
L 121.693091 49.146996 
L 121.845273 53.55477 
L 121.997455 52.085512 
L 122.149636 52.085512 
L 122.301818 53.55477 
L 122.454 52.085512 
L 122.606182 52.085512 
L 123.062727 60.90106 
L 123.214909 55.024028 
L 123.367091 57.962544 
L 123.671455 49.146996 
L 123.975818 49.146996 
L 124.128 47.677739 
L 124.280182 56.493286 
L 124.432364 50.616254 
L 124.584545 52.085512 
L 124.736727 56.493286 
L 124.888909 49.146996 
L 125.041091 52.085512 
L 125.193273 47.677739 
L 125.345455 50.616254 
L 125.649818 40.331449 
L 126.258545 50.616254 
L 126.410727 52.085512 
L 126.562909 59.431802 
L 126.715091 53.55477 
L 126.867273 57.962544 
L 127.171636 55.024028 
L 127.323818 60.90106 
L 127.476 53.55477 
L 127.628182 52.085512 
L 127.780364 52.085512 
L 127.932545 55.024028 
L 128.084727 46.208481 
L 128.389091 52.085512 
L 128.541273 52.085512 
L 128.693455 44.739223 
L 128.845636 46.208481 
L 128.997818 43.269965 
L 129.15 52.085512 
L 129.302182 53.55477 
L 129.606545 50.616254 
L 129.758727 43.269965 
L 129.910909 50.616254 
L 130.063091 49.146996 
L 130.215273 37.392933 
L 130.367455 40.331449 
L 130.519636 47.677739 
L 130.671818 43.269965 
L 130.824 53.55477 
L 130.976182 43.269965 
L 131.128364 43.269965 
L 131.280545 41.800707 
L 131.432727 38.862191 
L 131.584909 46.208481 
L 131.737091 40.331449 
L 131.889273 43.269965 
L 132.345818 35.923675 
L 132.498 35.923675 
L 132.650182 46.208481 
L 132.802364 43.269965 
L 133.106727 52.085512 
L 133.258909 47.677739 
L 133.411091 56.493286 
L 133.563273 52.085512 
L 133.715455 53.55477 
L 133.867636 62.370318 
L 134.172 59.431802 
L 134.324182 60.90106 
L 134.628545 57.962544 
L 134.780727 57.962544 
L 134.932909 56.493286 
L 135.085091 63.839576 
L 135.237273 65.308834 
L 135.389455 68.24735 
L 135.693818 55.024028 
L 135.998182 69.716608 
L 136.454727 57.962544 
L 136.606909 57.962544 
L 136.759091 52.085512 
L 136.911273 57.962544 
L 137.063455 59.431802 
L 137.215636 62.370318 
L 137.367818 59.431802 
L 137.672182 62.370318 
L 137.824364 66.778092 
L 137.976545 62.370318 
L 138.128727 63.839576 
L 138.280909 55.024028 
L 138.433091 53.55477 
L 138.585273 49.146996 
L 138.889636 57.962544 
L 139.041818 55.024028 
L 139.194 62.370318 
L 139.346182 63.839576 
L 139.650545 60.90106 
L 139.802727 68.24735 
L 139.954909 66.778092 
L 140.107091 60.90106 
L 140.259273 62.370318 
L 140.411455 62.370318 
L 140.563636 63.839576 
L 140.715818 62.370318 
L 140.868 66.778092 
L 141.172364 46.208481 
L 141.324545 52.085512 
L 141.476727 52.085512 
L 141.628909 57.962544 
L 141.781091 50.616254 
L 141.933273 57.962544 
L 142.237636 53.55477 
L 142.389818 57.962544 
L 142.694182 57.962544 
L 142.846364 62.370318 
L 142.998545 56.493286 
L 143.302909 59.431802 
L 143.455091 55.024028 
L 143.607273 44.739223 
L 143.759455 44.739223 
L 143.911636 46.208481 
L 144.063818 44.739223 
L 144.216 46.208481 
L 144.368182 52.085512 
L 144.520364 49.146996 
L 144.672545 40.331449 
L 144.824727 40.331449 
L 144.976909 49.146996 
L 145.129091 46.208481 
L 145.281273 40.331449 
L 145.433455 44.739223 
L 145.585636 44.739223 
L 145.737818 43.269965 
L 146.042182 53.55477 
L 146.346545 46.208481 
L 146.498727 53.55477 
L 146.650909 44.739223 
L 146.803091 50.616254 
L 146.955273 50.616254 
L 147.107455 49.146996 
L 147.259636 49.146996 
L 147.411818 52.085512 
L 147.564 37.392933 
L 147.716182 41.800707 
L 148.020545 30.046643 
L 148.172727 27.108127 
L 148.324909 31.515901 
L 148.477091 31.515901 
L 148.629273 37.392933 
L 148.781455 31.515901 
L 148.933636 35.923675 
L 149.085818 32.985159 
L 149.390182 32.985159 
L 149.694545 27.108127 
L 149.846727 28.577385 
L 149.998909 21.231095 
L 150.151091 22.700353 
L 150.303273 25.638869 
L 150.607636 21.231095 
L 150.759818 25.638869 
L 150.912 18.29258 
L 151.216364 22.700353 
L 151.368545 30.046643 
L 151.672909 18.29258 
L 151.825091 24.169611 
L 151.977273 25.638869 
L 152.129455 22.700353 
L 152.281636 6.538516 
L 152.738182 30.046643 
L 152.890364 31.515901 
L 153.194727 19.761837 
L 153.346909 24.169611 
L 153.499091 22.700353 
L 153.651273 24.169611 
L 153.803455 32.985159 
L 154.107818 25.638869 
L 154.26 34.454417 
L 154.412182 32.985159 
L 154.564364 30.046643 
L 154.716545 31.515901 
L 154.868727 38.862191 
L 155.020909 35.923675 
L 155.173091 37.392933 
L 155.477455 34.454417 
L 155.629636 27.108127 
L 155.934 34.454417 
L 156.238364 40.331449 
L 156.542727 35.923675 
L 156.694909 37.392933 
L 156.999273 49.146996 
L 157.151455 46.208481 
L 157.455818 50.616254 
L 157.608 44.739223 
L 157.760182 49.146996 
L 157.912364 41.800707 
L 158.064545 46.208481 
L 158.216727 44.739223 
L 158.368909 46.208481 
L 158.521091 41.800707 
L 158.825455 44.739223 
L 158.977636 43.269965 
L 159.129818 50.616254 
L 159.282 40.331449 
L 159.434182 47.677739 
L 159.586364 38.862191 
L 159.738545 44.739223 
L 159.890727 41.800707 
L 160.042909 46.208481 
L 160.195091 41.800707 
L 160.651636 53.55477 
L 160.803818 50.616254 
L 161.108182 53.55477 
L 161.412545 49.146996 
L 161.564727 41.800707 
L 161.716909 44.739223 
L 161.869091 40.331449 
L 162.173455 52.085512 
L 162.325636 37.392933 
L 162.63 57.962544 
L 162.934364 57.962544 
L 163.238727 50.616254 
L 163.238727 50.616254 
" style="fill:none;stroke:#8ea0c9;stroke-linecap:square;stroke-width:0.5;"/>
   </g>
   <g id="PathCollection_1">
    <defs>
     <path d="M 0 2.397916 
C 0.635935 2.397916 1.245909 2.145256 1.695582 1.695582 
C 2.145256 1.245909 2.397916 0.635935 2.397916 0 
C 2.397916 -0.635935 2.145256 -1.245909 1.695582 -1.695582 
C 1.245909 -2.145256 0.635935 -2.397916 0 -2.397916 
C -0.635935 -2.397916 -1.245909 -2.145256 -1.695582 -1.695582 
C -2.145256 -1.245909 -2.397916 -0.635935 -2.397916 0 
C -2.397916 0.635935 -2.145256 1.245909 -1.695582 1.695582 
C -1.245909 2.145256 -0.635935 2.397916 0 2.397916 
z
" id="m2d73902231" style="stroke:#490649;"/>
    </defs>
    <g clip-path="url(#p635d0745ab)">
     <use style="fill:#490649;stroke:#490649;" x="41.645455" xlink:href="#m2d73902231" y="60.90106"/>
     <use style="fill:#490649;stroke:#490649;" x="132.954545" xlink:href="#m2d73902231" y="43.269965"/>
     <use style="fill:#490649;stroke:#490649;" x="163.390909" xlink:href="#m2d73902231" y="50.616254"/>
    </g>
   </g>
   <g id="PathCollection_2">
    <g clip-path="url(#p635d0745ab)">
     <use style="fill:#490649;stroke:#490649;" x="72.081818" xlink:href="#m2d73902231" y="77.062898"/>
     <use style="fill:#490649;stroke:#490649;" x="102.518182" xlink:href="#m2d73902231" y="82.939929"/>
    </g>
   </g>
  </g>
 </g>
 <defs>
  <clipPath id="p635d0745ab">
   <rect height="83.16" width="167.4" x="3.6" y="3.6"/>
  </clipPath>
 </defs>
</svg>
