<?xml version="1.0" encoding="utf-8" standalone="no"?>
<!DOCTYPE svg PUBLIC "-//W3C//DTD SVG 1.1//EN"
  "http://www.w3.org/Graphics/SVG/1.1/DTD/svg11.dtd">
<svg xmlns:xlink="http://www.w3.org/1999/xlink" width="174.6pt" height="90.36pt" viewBox="0 0 174.6 90.36" xmlns="http://www.w3.org/2000/svg" version="1.1">
 <metadata>
  <rdf:RDF xmlns:dc="http://purl.org/dc/elements/1.1/" xmlns:cc="http://creativecommons.org/ns#" xmlns:rdf="http://www.w3.org/1999/02/22-rdf-syntax-ns#">
   <cc:Work>
    <dc:type rdf:resource="http://purl.org/dc/dcmitype/StillImage"/>
    <dc:date>2023-03-29T17:04:45.325143</dc:date>
    <dc:format>image/svg+xml</dc:format>
    <dc:creator>
     <cc:Agent>
      <dc:title>Matplotlib v3.5.0, https://matplotlib.org/</dc:title>
     </cc:Agent>
    </dc:creator>
   </cc:Work>
  </rdf:RDF>
 </metadata>
 <defs>
  <style type="text/css">*{stroke-linejoin: round; stroke-linecap: butt}</style>
 </defs>
 <g id="figure_1">
  <g id="patch_1">
   <path d="M 0 90.36 
L 174.6 90.36 
L 174.6 0 
L 0 0 
z
" style="fill: #ffffff"/>
  </g>
  <g id="axes_1">
   <g id="PathCollection_1">
    <defs>
     <path id="m06cecce631" d="M 0 2.397916 
C 0.635935 2.397916 1.245909 2.145256 1.695582 1.695582 
C 2.145256 1.245909 2.397916 0.635935 2.397916 0 
C 2.397916 -0.635935 2.145256 -1.245909 1.695582 -1.695582 
C 1.245909 -2.145256 0.635935 -2.397916 0 -2.397916 
C -0.635935 -2.397916 -1.245909 -2.145256 -1.695582 -1.695582 
C -2.145256 -1.245909 -2.397916 -0.635935 -2.397916 0 
C -2.397916 0.635935 -2.145256 1.245909 -1.695582 1.695582 
C -1.245909 2.145256 -0.635935 2.397916 0 2.397916 
z
" style="stroke: #ff0000"/>
    </defs>
    <g clip-path="url(#pc9225f9319)">
     <use xlink:href="#m06cecce631" x="11.209091" y="44.056216" style="fill: #ff0000; stroke: #ff0000"/>
     <use xlink:href="#m06cecce631" x="76.42987" y="62.036757" style="fill: #ff0000; stroke: #ff0000"/>
     <use xlink:href="#m06cecce631" x="98.17013" y="39.561081" style="fill: #ff0000; stroke: #ff0000"/>
     <use xlink:href="#m06cecce631" x="119.91039" y="48.551351" style="fill: #ff0000; stroke: #ff0000"/>
     <use xlink:href="#m06cecce631" x="163.390909" y="51.548108" style="fill: #ff0000; stroke: #ff0000"/>
    </g>
   </g>
   <g id="PathCollection_2">
    <defs>
     <path id="m620c8082e9" d="M 0 2.397916 
C 0.635935 2.397916 1.245909 2.145256 1.695582 1.695582 
C 2.145256 1.245909 2.397916 0.635935 2.397916 0 
C 2.397916 -0.635935 2.145256 -1.245909 1.695582 -1.695582 
C 1.245909 -2.145256 0.635935 -2.397916 0 -2.397916 
C -0.635935 -2.397916 -1.245909 -2.145256 -1.695582 -1.695582 
C -2.145256 -1.245909 -2.397916 -0.635935 -2.397916 0 
C -2.397916 0.635935 -2.145256 1.245909 -1.695582 1.695582 
C -1.245909 2.145256 -0.635935 2.397916 0 2.397916 
z
" style="stroke: #0000ff"/>
    </defs>
    <g clip-path="url(#pc9225f9319)">
     <use xlink:href="#m620c8082e9" x="32.949351" y="80.017297" style="fill: #0000ff; stroke: #0000ff"/>
     <use xlink:href="#m620c8082e9" x="54.68961" y="84.512432" style="fill: #0000ff; stroke: #0000ff"/>
     <use xlink:href="#m620c8082e9" x="141.650649" y="77.020541" style="fill: #0000ff; stroke: #0000ff"/>
    </g>
   </g>
  </g>
 </g>
 <defs>
  <clipPath id="pc9225f9319">
   <rect x="3.6" y="3.6" width="167.4" height="83.16"/>
  </clipPath>
 </defs>
</svg>
