<?xml version="1.0" encoding="utf-8" standalone="no"?>
<!DOCTYPE svg PUBLIC "-//W3C//DTD SVG 1.1//EN"
  "http://www.w3.org/Graphics/SVG/1.1/DTD/svg11.dtd">
<!-- Created with matplotlib (https://matplotlib.org/) -->
<svg height="186.964219pt" version="1.1" viewBox="0 0 251.386229 186.964219" width="251.386229pt" xmlns="http://www.w3.org/2000/svg" xmlns:xlink="http://www.w3.org/1999/xlink">
 <metadata>
  <rdf:RDF xmlns:cc="http://creativecommons.org/ns#" xmlns:dc="http://purl.org/dc/elements/1.1/" xmlns:rdf="http://www.w3.org/1999/02/22-rdf-syntax-ns#">
   <cc:Work>
    <dc:type rdf:resource="http://purl.org/dc/dcmitype/StillImage"/>
    <dc:date>2023-03-31T02:14:10.541986</dc:date>
    <dc:format>image/svg+xml</dc:format>
    <dc:creator>
     <cc:Agent>
      <dc:title>Matplotlib v3.3.4, https://matplotlib.org/</dc:title>
     </cc:Agent>
    </dc:creator>
   </cc:Work>
  </rdf:RDF>
 </metadata>
 <defs>
  <style type="text/css">*{stroke-linecap:butt;stroke-linejoin:round;}</style>
 </defs>
 <g id="figure_1">
  <g id="patch_1">
   <path d="M 0 186.964219 
L 251.386229 186.964219 
L 251.386229 0 
L 0 0 
z
" style="fill:#ffffff;"/>
  </g>
  <g id="axes_1">
   <g id="patch_2">
    <path d="M 52.486229 149.13 
L 247.786229 149.13 
L 247.786229 3.6 
L 52.486229 3.6 
z
" style="fill:#ffffff;"/>
   </g>
   <g id="matplotlib.axis_1">
    <g id="xtick_1">
     <g id="line2d_1">
      <defs>
       <path d="M 0 0 
L 0 -3 
" id="m0501ba83da" style="stroke:#000000;stroke-width:0.5;"/>
      </defs>
      <g>
       <use style="stroke:#000000;stroke-width:0.5;" x="61.363502" xlink:href="#m0501ba83da" y="149.13"/>
      </g>
     </g>
     <g id="line2d_2">
      <defs>
       <path d="M 0 0 
L 0 3 
" id="me71cb9db6e" style="stroke:#000000;stroke-width:0.5;"/>
      </defs>
      <g>
       <use style="stroke:#000000;stroke-width:0.5;" x="61.363502" xlink:href="#me71cb9db6e" y="3.6"/>
      </g>
     </g>
     <g id="text_1">
      <!-- 1 -->
      <g transform="translate(57.876578 162.086406)scale(0.14 -0.14)">
       <defs>
        <path d="M 29.09375 68 
L 11.09375 59 
L 11.09375 57.59375 
C 12.296875 58.09375 13.40625 58.484375 13.796875 58.6875 
C 15.59375 59.390625 17.296875 59.78125 18.296875 59.78125 
C 20.40625 59.78125 21.296875 58.296875 21.296875 55.078125 
L 21.296875 9.359375 
C 21.296875 6.03125 20.5 3.71875 18.90625 2.796875 
C 17.40625 1.890625 16 1.59375 11.796875 1.5 
L 11.796875 0 
L 39.40625 0 
L 39.40625 1.5 
C 31.5 1.59375 29.90625 2.609375 29.90625 7.453125 
L 29.90625 67.796875 
z
" id="Nimbus_Roman_No9_L_Regular-49"/>
       </defs>
       <use transform="scale(0.996264)" xlink:href="#Nimbus_Roman_No9_L_Regular-49"/>
      </g>
     </g>
    </g>
    <g id="xtick_2">
     <g id="line2d_3">
      <g>
       <use style="stroke:#000000;stroke-width:0.5;" x="105.749866" xlink:href="#m0501ba83da" y="149.13"/>
      </g>
     </g>
     <g id="line2d_4">
      <g>
       <use style="stroke:#000000;stroke-width:0.5;" x="105.749866" xlink:href="#me71cb9db6e" y="3.6"/>
      </g>
     </g>
     <g id="text_2">
      <!-- 2 -->
      <g transform="translate(102.262942 162.086406)scale(0.14 -0.14)">
       <defs>
        <path d="M 47.5 13.734375 
L 46.203125 14.25 
C 42.5 8.5 41.203125 7.59375 36.703125 7.59375 
L 12.796875 7.59375 
L 29.59375 25.328125 
C 38.5 34.703125 42.40625 42.359375 42.40625 50.21875 
C 42.40625 60.28125 34.296875 68 23.90625 68 
C 18.40625 68 13.203125 65.796875 9.5 61.796875 
C 6.296875 58.375 4.796875 55.15625 3.09375 48 
L 5.203125 47.484375 
C 9.203125 57.359375 12.796875 60.59375 19.703125 60.59375 
C 28.09375 60.59375 33.796875 54.84375 33.796875 46.390625 
C 33.796875 38.53125 29.203125 29.15625 20.796875 20.1875 
L 3 1.1875 
L 3 0 
L 42 0 
z
" id="Nimbus_Roman_No9_L_Regular-50"/>
       </defs>
       <use transform="scale(0.996264)" xlink:href="#Nimbus_Roman_No9_L_Regular-50"/>
      </g>
     </g>
    </g>
    <g id="xtick_3">
     <g id="line2d_5">
      <g>
       <use style="stroke:#000000;stroke-width:0.5;" x="150.136229" xlink:href="#m0501ba83da" y="149.13"/>
      </g>
     </g>
     <g id="line2d_6">
      <g>
       <use style="stroke:#000000;stroke-width:0.5;" x="150.136229" xlink:href="#me71cb9db6e" y="3.6"/>
      </g>
     </g>
     <g id="text_3">
      <!-- 3 -->
      <g transform="translate(146.649305 162.086406)scale(0.14 -0.14)">
       <defs>
        <path d="M 15.296875 33.390625 
C 21.203125 33.390625 23.5 33.1875 25.90625 32.296875 
C 32.09375 30.09375 36 24.390625 36 17.5 
C 36 9.09375 30.296875 2.59375 22.90625 2.59375 
C 20.203125 2.59375 18.203125 3.296875 14.5 5.6875 
C 11.5 7.5 9.796875 8.1875 8.09375 8.1875 
C 5.796875 8.1875 4.296875 6.796875 4.296875 4.6875 
C 4.296875 1.1875 8.59375 -1 15.59375 -1 
C 23.296875 -1 31.203125 1.59375 35.90625 5.6875 
C 40.59375 9.796875 43.203125 15.59375 43.203125 22.296875 
C 43.203125 27.390625 41.59375 32.09375 38.703125 35.1875 
C 36.703125 37.390625 34.796875 38.59375 30.40625 40.5 
C 37.296875 45.1875 39.796875 48.890625 39.796875 54.296875 
C 39.796875 62.390625 33.40625 68 24.203125 68 
C 19.203125 68 14.796875 66.296875 11.203125 63.09375 
C 8.203125 60.390625 6.703125 57.796875 4.5 51.796875 
L 6 51.390625 
C 10.09375 58.703125 14.59375 61.984375 20.90625 61.984375 
C 27.40625 61.984375 31.90625 57.59375 31.90625 51.296875 
C 31.90625 47.6875 30.40625 44.09375 27.90625 41.59375 
C 24.90625 38.59375 22.09375 37.09375 15.296875 34.6875 
z
" id="Nimbus_Roman_No9_L_Regular-51"/>
       </defs>
       <use transform="scale(0.996264)" xlink:href="#Nimbus_Roman_No9_L_Regular-51"/>
      </g>
     </g>
    </g>
    <g id="xtick_4">
     <g id="line2d_7">
      <g>
       <use style="stroke:#000000;stroke-width:0.5;" x="194.522593" xlink:href="#m0501ba83da" y="149.13"/>
      </g>
     </g>
     <g id="line2d_8">
      <g>
       <use style="stroke:#000000;stroke-width:0.5;" x="194.522593" xlink:href="#me71cb9db6e" y="3.6"/>
      </g>
     </g>
     <g id="text_4">
      <!-- 4 -->
      <g transform="translate(191.035669 162.086406)scale(0.14 -0.14)">
       <defs>
        <path d="M 47.203125 23.390625 
L 37 23.390625 
L 37 68 
L 32.59375 68 
L 1.203125 23.390625 
L 1.203125 17 
L 29.296875 17 
L 29.296875 0 
L 37 0 
L 37 17 
L 47.203125 17 
z
M 29.203125 23.390625 
L 5.203125 23.390625 
L 29.203125 57.765625 
z
" id="Nimbus_Roman_No9_L_Regular-52"/>
       </defs>
       <use transform="scale(0.996264)" xlink:href="#Nimbus_Roman_No9_L_Regular-52"/>
      </g>
     </g>
    </g>
    <g id="xtick_5">
     <g id="line2d_9">
      <g>
       <use style="stroke:#000000;stroke-width:0.5;" x="238.908957" xlink:href="#m0501ba83da" y="149.13"/>
      </g>
     </g>
     <g id="line2d_10">
      <g>
       <use style="stroke:#000000;stroke-width:0.5;" x="238.908957" xlink:href="#me71cb9db6e" y="3.6"/>
      </g>
     </g>
     <g id="text_5">
      <!-- 5 -->
      <g transform="translate(235.422032 162.086406)scale(0.14 -0.14)">
       <defs>
        <path d="M 18.09375 58.09375 
L 37.703125 58.09375 
C 39.296875 58.09375 39.703125 58.296875 40 58.984375 
L 43.796875 67.890625 
L 42.90625 68.59375 
C 41.40625 66.5 40.40625 66 38.296875 66 
L 17.40625 66 
L 6.5 42.453125 
C 6.40625 42.265625 6.40625 42.15625 6.40625 41.96875 
C 6.40625 41.46875 6.796875 41.171875 7.59375 41.171875 
C 10.796875 41.171875 14.796875 40.484375 18.90625 39.1875 
C 30.40625 35.53125 35.703125 29.40625 35.703125 19.609375 
C 35.703125 10.109375 29.59375 2.6875 21.796875 2.6875 
C 19.796875 2.6875 18.09375 3.390625 15.09375 5.5625 
C 11.90625 7.84375 9.59375 8.828125 7.5 8.828125 
C 4.59375 8.828125 3.203125 7.640625 3.203125 5.171875 
C 3.203125 1.390625 7.90625 -1 15.40625 -1 
C 23.796875 -1 31 1.6875 36 6.75 
C 40.59375 11.203125 42.703125 16.84375 42.703125 24.359375 
C 42.703125 31.484375 40.796875 36.03125 35.796875 40.96875 
C 31.40625 45.328125 25.703125 47.609375 13.90625 49.6875 
z
" id="Nimbus_Roman_No9_L_Regular-53"/>
       </defs>
       <use transform="scale(0.996264)" xlink:href="#Nimbus_Roman_No9_L_Regular-53"/>
      </g>
     </g>
    </g>
    <g id="xtick_6">
     <g id="line2d_11">
      <defs>
       <path d="M 0 0 
L 0 -1.5 
" id="m862657fb6f" style="stroke:#000000;stroke-width:0.5;"/>
      </defs>
      <g>
       <use style="stroke:#000000;stroke-width:0.5;" x="70.240775" xlink:href="#m862657fb6f" y="149.13"/>
      </g>
     </g>
     <g id="line2d_12">
      <defs>
       <path d="M 0 0 
L 0 1.5 
" id="m8ed587b695" style="stroke:#000000;stroke-width:0.5;"/>
      </defs>
      <g>
       <use style="stroke:#000000;stroke-width:0.5;" x="70.240775" xlink:href="#m8ed587b695" y="3.6"/>
      </g>
     </g>
    </g>
    <g id="xtick_7">
     <g id="line2d_13">
      <g>
       <use style="stroke:#000000;stroke-width:0.5;" x="79.118047" xlink:href="#m862657fb6f" y="149.13"/>
      </g>
     </g>
     <g id="line2d_14">
      <g>
       <use style="stroke:#000000;stroke-width:0.5;" x="79.118047" xlink:href="#m8ed587b695" y="3.6"/>
      </g>
     </g>
    </g>
    <g id="xtick_8">
     <g id="line2d_15">
      <g>
       <use style="stroke:#000000;stroke-width:0.5;" x="87.99532" xlink:href="#m862657fb6f" y="149.13"/>
      </g>
     </g>
     <g id="line2d_16">
      <g>
       <use style="stroke:#000000;stroke-width:0.5;" x="87.99532" xlink:href="#m8ed587b695" y="3.6"/>
      </g>
     </g>
    </g>
    <g id="xtick_9">
     <g id="line2d_17">
      <g>
       <use style="stroke:#000000;stroke-width:0.5;" x="96.872593" xlink:href="#m862657fb6f" y="149.13"/>
      </g>
     </g>
     <g id="line2d_18">
      <g>
       <use style="stroke:#000000;stroke-width:0.5;" x="96.872593" xlink:href="#m8ed587b695" y="3.6"/>
      </g>
     </g>
    </g>
    <g id="xtick_10">
     <g id="line2d_19">
      <g>
       <use style="stroke:#000000;stroke-width:0.5;" x="114.627138" xlink:href="#m862657fb6f" y="149.13"/>
      </g>
     </g>
     <g id="line2d_20">
      <g>
       <use style="stroke:#000000;stroke-width:0.5;" x="114.627138" xlink:href="#m8ed587b695" y="3.6"/>
      </g>
     </g>
    </g>
    <g id="xtick_11">
     <g id="line2d_21">
      <g>
       <use style="stroke:#000000;stroke-width:0.5;" x="123.504411" xlink:href="#m862657fb6f" y="149.13"/>
      </g>
     </g>
     <g id="line2d_22">
      <g>
       <use style="stroke:#000000;stroke-width:0.5;" x="123.504411" xlink:href="#m8ed587b695" y="3.6"/>
      </g>
     </g>
    </g>
    <g id="xtick_12">
     <g id="line2d_23">
      <g>
       <use style="stroke:#000000;stroke-width:0.5;" x="132.381684" xlink:href="#m862657fb6f" y="149.13"/>
      </g>
     </g>
     <g id="line2d_24">
      <g>
       <use style="stroke:#000000;stroke-width:0.5;" x="132.381684" xlink:href="#m8ed587b695" y="3.6"/>
      </g>
     </g>
    </g>
    <g id="xtick_13">
     <g id="line2d_25">
      <g>
       <use style="stroke:#000000;stroke-width:0.5;" x="141.258957" xlink:href="#m862657fb6f" y="149.13"/>
      </g>
     </g>
     <g id="line2d_26">
      <g>
       <use style="stroke:#000000;stroke-width:0.5;" x="141.258957" xlink:href="#m8ed587b695" y="3.6"/>
      </g>
     </g>
    </g>
    <g id="xtick_14">
     <g id="line2d_27">
      <g>
       <use style="stroke:#000000;stroke-width:0.5;" x="159.013502" xlink:href="#m862657fb6f" y="149.13"/>
      </g>
     </g>
     <g id="line2d_28">
      <g>
       <use style="stroke:#000000;stroke-width:0.5;" x="159.013502" xlink:href="#m8ed587b695" y="3.6"/>
      </g>
     </g>
    </g>
    <g id="xtick_15">
     <g id="line2d_29">
      <g>
       <use style="stroke:#000000;stroke-width:0.5;" x="167.890775" xlink:href="#m862657fb6f" y="149.13"/>
      </g>
     </g>
     <g id="line2d_30">
      <g>
       <use style="stroke:#000000;stroke-width:0.5;" x="167.890775" xlink:href="#m8ed587b695" y="3.6"/>
      </g>
     </g>
    </g>
    <g id="xtick_16">
     <g id="line2d_31">
      <g>
       <use style="stroke:#000000;stroke-width:0.5;" x="176.768047" xlink:href="#m862657fb6f" y="149.13"/>
      </g>
     </g>
     <g id="line2d_32">
      <g>
       <use style="stroke:#000000;stroke-width:0.5;" x="176.768047" xlink:href="#m8ed587b695" y="3.6"/>
      </g>
     </g>
    </g>
    <g id="xtick_17">
     <g id="line2d_33">
      <g>
       <use style="stroke:#000000;stroke-width:0.5;" x="185.64532" xlink:href="#m862657fb6f" y="149.13"/>
      </g>
     </g>
     <g id="line2d_34">
      <g>
       <use style="stroke:#000000;stroke-width:0.5;" x="185.64532" xlink:href="#m8ed587b695" y="3.6"/>
      </g>
     </g>
    </g>
    <g id="xtick_18">
     <g id="line2d_35">
      <g>
       <use style="stroke:#000000;stroke-width:0.5;" x="203.399866" xlink:href="#m862657fb6f" y="149.13"/>
      </g>
     </g>
     <g id="line2d_36">
      <g>
       <use style="stroke:#000000;stroke-width:0.5;" x="203.399866" xlink:href="#m8ed587b695" y="3.6"/>
      </g>
     </g>
    </g>
    <g id="xtick_19">
     <g id="line2d_37">
      <g>
       <use style="stroke:#000000;stroke-width:0.5;" x="212.277138" xlink:href="#m862657fb6f" y="149.13"/>
      </g>
     </g>
     <g id="line2d_38">
      <g>
       <use style="stroke:#000000;stroke-width:0.5;" x="212.277138" xlink:href="#m8ed587b695" y="3.6"/>
      </g>
     </g>
    </g>
    <g id="xtick_20">
     <g id="line2d_39">
      <g>
       <use style="stroke:#000000;stroke-width:0.5;" x="221.154411" xlink:href="#m862657fb6f" y="149.13"/>
      </g>
     </g>
     <g id="line2d_40">
      <g>
       <use style="stroke:#000000;stroke-width:0.5;" x="221.154411" xlink:href="#m8ed587b695" y="3.6"/>
      </g>
     </g>
    </g>
    <g id="xtick_21">
     <g id="line2d_41">
      <g>
       <use style="stroke:#000000;stroke-width:0.5;" x="230.031684" xlink:href="#m862657fb6f" y="149.13"/>
      </g>
     </g>
     <g id="line2d_42">
      <g>
       <use style="stroke:#000000;stroke-width:0.5;" x="230.031684" xlink:href="#m8ed587b695" y="3.6"/>
      </g>
     </g>
    </g>
    <g id="text_6">
     <!-- Number of Layers -->
     <g transform="translate(91.707738 179.913293)scale(0.16 -0.16)">
      <defs>
       <path d="M 61.203125 -1 
L 61.203125 51.359375 
C 61.203125 57.328125 62.203125 61.015625 64.09375 62.3125 
C 65.5 63.296875 66.90625 63.703125 70.703125 64.09375 
L 70.703125 66 
L 47.203125 66 
L 47.203125 64.09375 
C 51 63.796875 52.40625 63.40625 53.90625 62.5 
C 55.90625 61.109375 56.796875 57.53125 56.796875 51.359375 
L 56.796875 17.8125 
L 18.296875 66 
L 1.203125 66 
L 1.203125 64.09375 
C 5.5 64.09375 6.90625 63.296875 10.90625 58.625 
L 10.90625 14.734375 
C 10.90625 4.390625 9.5 2.5 1.203125 1.890625 
L 1.203125 0 
L 24.703125 0 
L 24.703125 1.890625 
C 17 2.296875 15.296875 4.59375 15.296875 14.6875 
L 15.296875 53.890625 
L 59.5 -1 
z
" id="Nimbus_Roman_No9_L_Regular-78"/>
       <path d="M 47.90625 4.984375 
L 47.40625 4.984375 
C 42.796875 4.984375 41.703125 6.09375 41.703125 10.6875 
L 41.703125 45 
L 25.90625 45 
L 25.90625 43.296875 
C 32.09375 43 33.296875 42 33.296875 37 
L 33.296875 13.5 
C 33.296875 10.6875 32.796875 9.296875 31.40625 8.1875 
C 28.703125 6 25.59375 4.796875 22.59375 4.796875 
C 18.703125 4.796875 15.5 8.1875 15.5 12.390625 
L 15.5 45 
L 0.90625 45 
L 0.90625 43.59375 
C 5.703125 43.296875 7.09375 41.796875 7.09375 37.1875 
L 7.09375 12 
C 7.09375 4.09375 11.90625 -1 19.203125 -1 
C 22.90625 -1 26.796875 0.59375 29.5 3.296875 
L 33.796875 7.59375 
L 33.796875 -0.703125 
L 34.203125 -1 
C 39.203125 1 42.796875 2.09375 47.90625 3.5 
z
" id="Nimbus_Roman_No9_L_Regular-117"/>
       <path d="M 1.90625 39.796875 
C 3.203125 40.09375 4 40.1875 5.09375 40.1875 
C 7.703125 40.1875 8.59375 38.59375 8.59375 33.796875 
L 8.59375 8.5 
C 8.59375 3.09375 7.203125 1.59375 1.59375 1.5 
L 1.59375 0 
L 23.796875 0 
L 23.796875 1.5 
C 18.5 1.6875 17 2.796875 17 6.6875 
L 17 34.890625 
C 17 35.09375 17.796875 36.09375 18.5 36.796875 
C 21 39.09375 25.296875 40.796875 28.796875 40.796875 
C 33.203125 40.796875 35.40625 37.296875 35.40625 30.296875 
L 35.40625 8.59375 
C 35.40625 3 34.296875 1.890625 28.59375 1.5 
L 28.59375 0 
L 51 0 
L 51 1.5 
C 45.296875 1.59375 43.796875 3.296875 43.796875 9.5 
L 43.796875 34.6875 
C 46.796875 39 50.09375 40.796875 54.703125 40.796875 
C 60.40625 40.796875 62.203125 38.09375 62.203125 29.796875 
L 62.203125 8.6875 
C 62.203125 3 61.40625 2.1875 55.59375 1.5 
L 55.59375 0 
L 77.5 0 
L 77.5 1.5 
L 74.90625 1.6875 
C 71.90625 1.890625 70.59375 3.6875 70.59375 7.59375 
L 70.59375 28.1875 
C 70.59375 40 66.703125 46 59 46 
C 53.203125 46 48.09375 43.390625 42.703125 37.59375 
C 40.90625 43.296875 37.5 46 32.09375 46 
C 27.703125 46 24.90625 44.59375 16.59375 38.296875 
L 16.59375 45.796875 
L 15.90625 46 
C 10.796875 44.09375 7.40625 42.984375 1.90625 41.484375 
z
" id="Nimbus_Roman_No9_L_Regular-109"/>
       <path d="M 15.296875 68.09375 
L 14.796875 68.296875 
C 10.59375 66.796875 7.90625 66 3.203125 64.6875 
L 0.296875 63.890625 
L 0.296875 62.296875 
C 0.90625 62.390625 1.296875 62.390625 2 62.390625 
C 6 62.390625 6.90625 61.5 6.90625 57.296875 
L 6.90625 5.390625 
C 6.90625 2.296875 15.40625 -1 23.40625 -1 
C 36.59375 -1 46.796875 9.984375 46.796875 24.296875 
C 46.796875 36.59375 39.203125 46 29.203125 46 
C 23.09375 46 17.296875 42.390625 15.296875 37.484375 
z
M 15.296875 32.1875 
C 15.296875 36.09375 20 39.6875 25.203125 39.6875 
C 33 39.6875 38 31.890625 38 19.6875 
C 38 8.59375 33.203125 2.1875 25 2.1875 
C 19.796875 2.1875 15.296875 4.484375 15.296875 6.984375 
z
" id="Nimbus_Roman_No9_L_Regular-98"/>
       <path d="M 40.796875 16.4375 
C 36 8.8125 31.703125 5.890625 25.296875 5.890625 
C 19.59375 5.890625 15.296875 8.8125 12.40625 14.53125 
C 10.59375 18.34375 9.90625 21.65625 9.703125 27.796875 
L 40.5 27.796875 
C 39.703125 34.265625 38.703125 37.140625 36.203125 40.3125 
C 33.203125 43.890625 28.59375 46 23.40625 46 
C 18.40625 46 13.703125 44.1875 9.90625 40.8125 
C 5.203125 36.734375 2.5 29.6875 2.5 21.46875 
C 2.5 7.59375 9.703125 -1 21.203125 -1 
C 30.703125 -1 38.203125 4.890625 42.40625 15.734375 
z
M 9.90625 31 
C 11 38.71875 14.40625 42.390625 20.5 42.390625 
C 26.59375 42.390625 29 39.609375 30.296875 31 
z
" id="Nimbus_Roman_No9_L_Regular-101"/>
       <path d="M 0.703125 39 
C 2.09375 39.296875 3 39.390625 4.203125 39.390625 
C 6.703125 39.390625 7.59375 37.796875 7.59375 33.390625 
L 7.59375 8.390625 
C 7.59375 3.390625 6.90625 2.6875 0.5 1.5 
L 0.5 0 
L 24.5 0 
L 24.5 1.5 
C 17.703125 1.796875 16 3.296875 16 9 
L 16 31.5 
C 16 34.6875 20.296875 39.6875 23 39.6875 
C 23.59375 39.6875 24.5 39.1875 25.59375 38.1875 
C 27.203125 36.796875 28.296875 36.1875 29.59375 36.1875 
C 32 36.1875 33.5 37.890625 33.5 40.6875 
C 33.5 43.984375 31.40625 46 28 46 
C 23.796875 46 20.90625 43.6875 16 36.59375 
L 16 45.796875 
L 15.5 46 
C 10.203125 43.796875 6.59375 42.5 0.703125 40.59375 
z
" id="Nimbus_Roman_No9_L_Regular-114"/>
       <path d="M 25 46 
C 12 46 2.90625 36.390625 2.90625 22.59375 
C 2.90625 9.09375 12.203125 -1 24.796875 -1 
C 37.40625 -1 47 9.59375 47 23.390625 
C 47 36.5 37.796875 46 25 46 
z
M 23.703125 43.1875 
C 32.09375 43.1875 38 33.59375 38 19.890625 
C 38 8.59375 33.5 1.796875 26 1.796875 
C 22.09375 1.796875 18.40625 4.1875 16.296875 8.1875 
C 13.5 13.390625 11.90625 20.390625 11.90625 27.5 
C 11.90625 37 16.59375 43.1875 23.703125 43.1875 
z
" id="Nimbus_Roman_No9_L_Regular-111"/>
       <path d="M 30.90625 45 
L 18.59375 45 
L 18.59375 56.421875 
C 18.59375 62.140625 20.5 65.1875 24.296875 65.1875 
C 26.40625 65.1875 27.796875 64.203125 29.59375 61.34375 
C 31.203125 58.78125 32.40625 57.796875 34.09375 57.796875 
C 36.40625 57.796875 38.296875 59.578125 38.296875 61.84375 
C 38.296875 65.390625 33.90625 68 27.90625 68 
C 21.703125 68 16.40625 65.296875 13.796875 60.765625 
C 11.203125 56.421875 10.40625 52.875 10.296875 45 
L 2.09375 45 
L 2.09375 41.796875 
L 10.296875 41.796875 
L 10.296875 10.390625 
C 10.296875 3.09375 9.203125 1.890625 2 1.5 
L 2 0 
L 28 0 
L 28 1.5 
C 19.796875 1.796875 18.703125 2.890625 18.703125 10.390625 
L 18.703125 41.796875 
L 30.90625 41.796875 
z
" id="Nimbus_Roman_No9_L_Regular-102"/>
       <path d="M 57.296875 17.34375 
C 55.59375 13.5625 54.203125 11.265625 52.703125 9.578125 
C 49.203125 5.6875 43.703125 3.890625 35.40625 3.890625 
L 28.703125 3.890625 
C 21.40625 3.890625 20.09375 4.484375 20.09375 7.984375 
L 20.09375 55.125 
C 20.09375 62.203125 21.5 63.59375 29.40625 64.09375 
L 29.40625 66 
L 1.203125 66 
L 1.203125 64.09375 
C 8.59375 63.5 9.90625 62.09375 9.90625 55.125 
L 9.90625 10.875 
C 9.90625 3.890625 8.5 2.390625 1.203125 1.890625 
L 1.203125 0 
L 55 0 
L 59.796875 17.390625 
z
" id="Nimbus_Roman_No9_L_Regular-76"/>
       <path d="M 44.203125 6.59375 
C 42.5 5.1875 41.296875 4.6875 39.796875 4.6875 
C 37.5 4.6875 36.796875 6.09375 36.796875 10.5 
L 36.796875 30 
C 36.796875 35.1875 36.296875 38.09375 34.796875 40.5 
C 32.59375 44.09375 28.296875 46 22.40625 46 
C 13 46 5.59375 41.09375 5.59375 34.796875 
C 5.59375 32.5 7.59375 30.5 9.90625 30.5 
C 12.296875 30.5 14.40625 32.5 14.40625 34.6875 
C 14.40625 35.09375 14.296875 35.59375 14.203125 36.296875 
C 14 37.1875 13.90625 38 13.90625 38.6875 
C 13.90625 41.390625 17.09375 43.59375 21.09375 43.59375 
C 26 43.59375 28.703125 40.6875 28.703125 35.296875 
L 28.703125 29.1875 
C 13.296875 23 11.59375 22.1875 7.296875 18.390625 
C 5.09375 16.390625 3.703125 13 3.703125 9.6875 
C 3.703125 3.390625 8.09375 -1 14.203125 -1 
C 18.59375 -1 22.703125 1.09375 28.796875 6.296875 
C 29.296875 1.09375 31.09375 -1 35.203125 -1 
C 38.59375 -1 40.703125 0.1875 44.203125 4 
z
M 28.703125 12.296875 
C 28.703125 9.1875 28.203125 8.296875 26.09375 7.09375 
C 23.703125 5.6875 20.90625 4.796875 18.796875 4.796875 
C 15.296875 4.796875 12.5 8.1875 12.5 12.5 
L 12.5 12.890625 
C 12.5 18.796875 16.59375 22.390625 28.703125 26.796875 
z
" id="Nimbus_Roman_No9_L_Regular-97"/>
       <path d="M 47.5 45 
L 34 45 
L 34 43.484375 
C 37.203125 43.484375 38.796875 42.59375 38.796875 40.984375 
C 38.796875 40.578125 38.703125 39.984375 38.40625 39.28125 
L 28.703125 11.578125 
L 17.203125 36.96875 
C 16.59375 38.375 16.203125 39.6875 16.203125 40.78125 
C 16.203125 42.59375 17.703125 43.296875 22 43.484375 
L 22 45 
L 1.40625 45 
L 1.40625 43.59375 
C 4 43.1875 5.703125 42.09375 6.5 40.390625 
L 17.90625 15.703125 
L 18.203125 14.890625 
L 19.703125 11.890625 
C 22.5 6.859375 24.09375 3.25 24.09375 1.75 
C 24.09375 0.234375 21.796875 -6.078125 20.09375 -9.09375 
C 18.703125 -11.703125 16.5 -13.609375 15.09375 -13.609375 
C 14.5 -13.609375 13.59375 -13.40625 12.59375 -12.90625 
C 10.703125 -12.203125 9 -11.796875 7.296875 -11.796875 
C 5 -11.796875 3 -13.8125 3 -16.203125 
C 3 -19.5 6.203125 -22 10.40625 -22 
C 17.09375 -22 21.90625 -16.40625 27.296875 -1.96875 
L 42.703125 38.984375 
C 44 42.1875 45.09375 43.1875 47.5 43.484375 
z
" id="Nimbus_Roman_No9_L_Regular-121"/>
       <path d="M 31.5 31.390625 
L 31.09375 45 
L 30 45 
L 29.796875 44.796875 
C 28.90625 44.09375 28.796875 43.984375 28.40625 43.984375 
C 27.796875 43.984375 26.796875 44.1875 25.703125 44.6875 
C 23.5 45.59375 21.296875 46 18.703125 46 
C 10.796875 46 5.09375 40.890625 5.09375 33.671875 
C 5.09375 28.0625 8.296875 24.046875 16.796875 19.234375 
L 22.59375 15.921875 
C 26.09375 13.921875 27.796875 11.515625 27.796875 8.40625 
C 27.796875 4 24.59375 1.1875 19.5 1.1875 
C 16.09375 1.1875 13 2.5 11.09375 4.703125 
C 9 7.203125 8.09375 9.515625 6.796875 15.21875 
L 5.203125 15.21875 
L 5.203125 -0.40625 
L 6.5 -0.40625 
C 7.203125 0.59375 7.59375 0.796875 8.796875 0.796875 
C 9.703125 0.796875 11.09375 0.59375 13.40625 0 
C 16.203125 -0.609375 18.90625 -1 20.703125 -1 
C 28.40625 -1 34.796875 4.796875 34.796875 11.8125 
C 34.796875 16.828125 32.40625 20.140625 26.40625 23.75 
L 15.59375 30.15625 
C 12.796875 31.765625 11.296875 34.265625 11.296875 36.96875 
C 11.296875 40.984375 14.40625 43.796875 19 43.796875 
C 24.703125 43.796875 27.703125 40.390625 30 31.46875 
z
" id="Nimbus_Roman_No9_L_Regular-115"/>
      </defs>
      <use transform="scale(0.996264)" xlink:href="#Nimbus_Roman_No9_L_Regular-78"/>
      <use transform="translate(71.929985 0)scale(0.996264)" xlink:href="#Nimbus_Roman_No9_L_Regular-117"/>
      <use transform="translate(121.743185 0)scale(0.996264)" xlink:href="#Nimbus_Roman_No9_L_Regular-109"/>
      <use transform="translate(199.251555 0)scale(0.996264)" xlink:href="#Nimbus_Roman_No9_L_Regular-98"/>
      <use transform="translate(249.064756 0)scale(0.996264)" xlink:href="#Nimbus_Roman_No9_L_Regular-101"/>
      <use transform="translate(293.298325 0)scale(0.996264)" xlink:href="#Nimbus_Roman_No9_L_Regular-114"/>
      <use transform="translate(351.380155 0)scale(0.996264)" xlink:href="#Nimbus_Roman_No9_L_Regular-111"/>
      <use transform="translate(401.193355 0)scale(0.996264)" xlink:href="#Nimbus_Roman_No9_L_Regular-102"/>
      <use transform="translate(459.275185 0)scale(0.996264)" xlink:href="#Nimbus_Roman_No9_L_Regular-76"/>
      <use transform="translate(520.146816 0)scale(0.996264)" xlink:href="#Nimbus_Roman_No9_L_Regular-97"/>
      <use transform="translate(564.380384 0)scale(0.996264)" xlink:href="#Nimbus_Roman_No9_L_Regular-121"/>
      <use transform="translate(614.193585 0)scale(0.996264)" xlink:href="#Nimbus_Roman_No9_L_Regular-101"/>
      <use transform="translate(658.427154 0)scale(0.996264)" xlink:href="#Nimbus_Roman_No9_L_Regular-114"/>
      <use transform="translate(691.602383 0)scale(0.996264)" xlink:href="#Nimbus_Roman_No9_L_Regular-115"/>
     </g>
    </g>
   </g>
   <g id="matplotlib.axis_2">
    <g id="ytick_1">
     <g id="line2d_43">
      <defs>
       <path d="M 0 0 
L 3 0 
" id="m74d9e0bf7f" style="stroke:#000000;stroke-width:0.5;"/>
      </defs>
      <g>
       <use style="stroke:#000000;stroke-width:0.5;" x="52.486229" xlink:href="#m74d9e0bf7f" y="122.756099"/>
      </g>
     </g>
     <g id="line2d_44">
      <defs>
       <path d="M 0 0 
L -3 0 
" id="me28b8d06ae" style="stroke:#000000;stroke-width:0.5;"/>
      </defs>
      <g>
       <use style="stroke:#000000;stroke-width:0.5;" x="247.786229" xlink:href="#me28b8d06ae" y="122.756099"/>
      </g>
     </g>
     <g id="text_7">
      <!-- $\mathdefault{10^{-2}}$ -->
      <g transform="translate(21.858253 127.484302)scale(0.14 -0.14)">
       <defs>
        <path d="M 25.40625 68 
C 19.90625 68 15.703125 66.296875 12 62.796875 
C 6.203125 57.203125 2.40625 45.6875 2.40625 34 
C 2.40625 23.09375 5.703125 11.390625 10.40625 5.796875 
C 14.09375 1.390625 19.203125 -1 25 -1 
C 30.09375 -1 34.40625 0.6875 38 4.1875 
C 43.796875 9.6875 47.59375 21.296875 47.59375 33.390625 
C 47.59375 53.890625 38.5 68 25.40625 68 
z
M 25.09375 65.390625 
C 33.5 65.390625 38 54.09375 38 33.1875 
C 38 12.296875 33.59375 1.59375 25 1.59375 
C 16.40625 1.59375 12 12.296875 12 33.09375 
C 12 54.296875 16.5 65.390625 25.09375 65.390625 
z
" id="Nimbus_Roman_No9_L_Regular-48"/>
        <path d="M 65.90625 23 
C 67.59375 23 69.40625 23 69.40625 25 
C 69.40625 27 67.59375 27 65.90625 27 
L 11.796875 27 
C 10.09375 27 8.296875 27 8.296875 25 
C 8.296875 23 10.09375 23 11.796875 23 
z
" id="CMSY10-0"/>
       </defs>
       <use transform="scale(0.996264)" xlink:href="#Nimbus_Roman_No9_L_Regular-49"/>
       <use transform="translate(49.8132 0)scale(0.996264)" xlink:href="#Nimbus_Roman_No9_L_Regular-48"/>
       <use transform="translate(99.626401 36.163231)scale(0.737241)" xlink:href="#CMSY10-0"/>
       <use transform="translate(156.909271 36.163231)scale(0.737241)" xlink:href="#Nimbus_Roman_No9_L_Regular-50"/>
      </g>
     </g>
    </g>
    <g id="ytick_2">
     <g id="line2d_45">
      <g>
       <use style="stroke:#000000;stroke-width:0.5;" x="52.486229" xlink:href="#m74d9e0bf7f" y="41.742677"/>
      </g>
     </g>
     <g id="line2d_46">
      <g>
       <use style="stroke:#000000;stroke-width:0.5;" x="247.786229" xlink:href="#me28b8d06ae" y="41.742677"/>
      </g>
     </g>
     <g id="text_8">
      <!-- $\mathdefault{10^{-1}}$ -->
      <g transform="translate(21.858253 46.470879)scale(0.14 -0.14)">
       <use transform="scale(0.996264)" xlink:href="#Nimbus_Roman_No9_L_Regular-49"/>
       <use transform="translate(49.8132 0)scale(0.996264)" xlink:href="#Nimbus_Roman_No9_L_Regular-48"/>
       <use transform="translate(99.626401 36.163231)scale(0.737241)" xlink:href="#CMSY10-0"/>
       <use transform="translate(156.909271 36.163231)scale(0.737241)" xlink:href="#Nimbus_Roman_No9_L_Regular-49"/>
      </g>
     </g>
    </g>
    <g id="ytick_3">
     <g id="line2d_47">
      <defs>
       <path d="M 0 0 
L 1.5 0 
" id="m8b6bdce4c3" style="stroke:#000000;stroke-width:0.5;"/>
      </defs>
      <g>
       <use style="stroke:#000000;stroke-width:0.5;" x="52.486229" xlink:href="#m8b6bdce4c3" y="147.14357"/>
      </g>
     </g>
     <g id="line2d_48">
      <defs>
       <path d="M 0 0 
L -1.5 0 
" id="m243195ebb5" style="stroke:#000000;stroke-width:0.5;"/>
      </defs>
      <g>
       <use style="stroke:#000000;stroke-width:0.5;" x="247.786229" xlink:href="#m243195ebb5" y="147.14357"/>
      </g>
     </g>
    </g>
    <g id="ytick_4">
     <g id="line2d_49">
      <g>
       <use style="stroke:#000000;stroke-width:0.5;" x="52.486229" xlink:href="#m8b6bdce4c3" y="140.728826"/>
      </g>
     </g>
     <g id="line2d_50">
      <g>
       <use style="stroke:#000000;stroke-width:0.5;" x="247.786229" xlink:href="#m243195ebb5" y="140.728826"/>
      </g>
     </g>
    </g>
    <g id="ytick_5">
     <g id="line2d_51">
      <g>
       <use style="stroke:#000000;stroke-width:0.5;" x="52.486229" xlink:href="#m8b6bdce4c3" y="135.305237"/>
      </g>
     </g>
     <g id="line2d_52">
      <g>
       <use style="stroke:#000000;stroke-width:0.5;" x="247.786229" xlink:href="#m243195ebb5" y="135.305237"/>
      </g>
     </g>
    </g>
    <g id="ytick_6">
     <g id="line2d_53">
      <g>
       <use style="stroke:#000000;stroke-width:0.5;" x="52.486229" xlink:href="#m8b6bdce4c3" y="130.607111"/>
      </g>
     </g>
     <g id="line2d_54">
      <g>
       <use style="stroke:#000000;stroke-width:0.5;" x="247.786229" xlink:href="#m243195ebb5" y="130.607111"/>
      </g>
     </g>
    </g>
    <g id="ytick_7">
     <g id="line2d_55">
      <g>
       <use style="stroke:#000000;stroke-width:0.5;" x="52.486229" xlink:href="#m8b6bdce4c3" y="126.46307"/>
      </g>
     </g>
     <g id="line2d_56">
      <g>
       <use style="stroke:#000000;stroke-width:0.5;" x="247.786229" xlink:href="#m243195ebb5" y="126.46307"/>
      </g>
     </g>
    </g>
    <g id="ytick_8">
     <g id="line2d_57">
      <g>
       <use style="stroke:#000000;stroke-width:0.5;" x="52.486229" xlink:href="#m8b6bdce4c3" y="98.368629"/>
      </g>
     </g>
     <g id="line2d_58">
      <g>
       <use style="stroke:#000000;stroke-width:0.5;" x="247.786229" xlink:href="#m243195ebb5" y="98.368629"/>
      </g>
     </g>
    </g>
    <g id="ytick_9">
     <g id="line2d_59">
      <g>
       <use style="stroke:#000000;stroke-width:0.5;" x="52.486229" xlink:href="#m8b6bdce4c3" y="84.102873"/>
      </g>
     </g>
     <g id="line2d_60">
      <g>
       <use style="stroke:#000000;stroke-width:0.5;" x="247.786229" xlink:href="#m243195ebb5" y="84.102873"/>
      </g>
     </g>
    </g>
    <g id="ytick_10">
     <g id="line2d_61">
      <g>
       <use style="stroke:#000000;stroke-width:0.5;" x="52.486229" xlink:href="#m8b6bdce4c3" y="73.981159"/>
      </g>
     </g>
     <g id="line2d_62">
      <g>
       <use style="stroke:#000000;stroke-width:0.5;" x="247.786229" xlink:href="#m243195ebb5" y="73.981159"/>
      </g>
     </g>
    </g>
    <g id="ytick_11">
     <g id="line2d_63">
      <g>
       <use style="stroke:#000000;stroke-width:0.5;" x="52.486229" xlink:href="#m8b6bdce4c3" y="66.130147"/>
      </g>
     </g>
     <g id="line2d_64">
      <g>
       <use style="stroke:#000000;stroke-width:0.5;" x="247.786229" xlink:href="#m243195ebb5" y="66.130147"/>
      </g>
     </g>
    </g>
    <g id="ytick_12">
     <g id="line2d_65">
      <g>
       <use style="stroke:#000000;stroke-width:0.5;" x="52.486229" xlink:href="#m8b6bdce4c3" y="59.715403"/>
      </g>
     </g>
     <g id="line2d_66">
      <g>
       <use style="stroke:#000000;stroke-width:0.5;" x="247.786229" xlink:href="#m243195ebb5" y="59.715403"/>
      </g>
     </g>
    </g>
    <g id="ytick_13">
     <g id="line2d_67">
      <g>
       <use style="stroke:#000000;stroke-width:0.5;" x="52.486229" xlink:href="#m8b6bdce4c3" y="54.291815"/>
      </g>
     </g>
     <g id="line2d_68">
      <g>
       <use style="stroke:#000000;stroke-width:0.5;" x="247.786229" xlink:href="#m243195ebb5" y="54.291815"/>
      </g>
     </g>
    </g>
    <g id="ytick_14">
     <g id="line2d_69">
      <g>
       <use style="stroke:#000000;stroke-width:0.5;" x="52.486229" xlink:href="#m8b6bdce4c3" y="49.593688"/>
      </g>
     </g>
     <g id="line2d_70">
      <g>
       <use style="stroke:#000000;stroke-width:0.5;" x="247.786229" xlink:href="#m243195ebb5" y="49.593688"/>
      </g>
     </g>
    </g>
    <g id="ytick_15">
     <g id="line2d_71">
      <g>
       <use style="stroke:#000000;stroke-width:0.5;" x="52.486229" xlink:href="#m8b6bdce4c3" y="45.449647"/>
      </g>
     </g>
     <g id="line2d_72">
      <g>
       <use style="stroke:#000000;stroke-width:0.5;" x="247.786229" xlink:href="#m243195ebb5" y="45.449647"/>
      </g>
     </g>
    </g>
    <g id="ytick_16">
     <g id="line2d_73">
      <g>
       <use style="stroke:#000000;stroke-width:0.5;" x="52.486229" xlink:href="#m8b6bdce4c3" y="17.355206"/>
      </g>
     </g>
     <g id="line2d_74">
      <g>
       <use style="stroke:#000000;stroke-width:0.5;" x="247.786229" xlink:href="#m243195ebb5" y="17.355206"/>
      </g>
     </g>
    </g>
    <g id="text_9">
     <!-- BER -->
     <g transform="translate(14.407327 91.866736)rotate(-90)scale(0.16 -0.16)">
      <defs>
       <path d="M 1.703125 66 
L 1.703125 64.09375 
C 10.09375 63.59375 11.296875 62.5 11.296875 55.125 
L 11.296875 10.859375 
C 11.296875 3.484375 10 2.1875 1.703125 1.890625 
L 1.703125 0 
L 35.09375 0 
C 42.90625 0 50 2.09375 53.703125 5.484375 
C 57.296875 8.671875 59.296875 13.15625 59.296875 17.9375 
C 59.296875 22.328125 57.5 26.3125 54.40625 29.203125 
C 51.40625 31.890625 48.703125 33.09375 42.203125 34.6875 
C 47.40625 35.984375 49.5 36.984375 51.90625 39.0625 
C 54.40625 41.265625 55.90625 44.953125 55.90625 49.03125 
C 55.90625 60.203125 47 66 29.703125 66 
z
M 21.5 32.5 
C 31.203125 32.5 35.796875 32 39.40625 30.5 
C 45.09375 28.109375 47.796875 24.125 47.796875 17.84375 
C 47.796875 12.46875 45.703125 8.578125 41.703125 6.28125 
C 38.5 4.484375 34.40625 3.6875 27.796875 3.6875 
C 22.90625 3.6875 21.5 4.59375 21.5 7.78125 
z
M 21.5 36.484375 
L 21.5 59.296875 
C 21.5 61.390625 22.203125 62.296875 23.703125 62.296875 
L 28.09375 62.296875 
C 39.59375 62.296875 45.703125 57.5 45.703125 48.640625 
C 45.703125 40.859375 40.40625 36.484375 31 36.484375 
z
" id="Nimbus_Roman_No9_L_Regular-66"/>
       <path d="M 59.703125 16.984375 
L 56.90625 16.984375 
C 51.90625 6.109375 47.59375 3.6875 33.296875 3.6875 
L 30.59375 3.6875 
C 25.703125 3.6875 21.5 4.203125 20.796875 4.90625 
C 20.296875 5.203125 20.09375 6.3125 20.09375 8.015625 
L 20.09375 32.890625 
L 35.5 32.890625 
C 43.703125 32.890625 45.203125 31.578125 46.5 23.234375 
L 48.796875 23.234375 
L 48.796875 46.34375 
L 46.5 46.34375 
C 45.796875 42.3125 45.40625 40.828125 44.296875 39.453125 
C 43 37.78125 40.203125 37 35.5 37 
L 20.09375 37 
L 20.09375 58.84375 
C 20.09375 61.59375 20.703125 62.1875 23.40625 62.1875 
L 36.90625 62.1875 
C 48.203125 62.1875 50.40625 60.71875 52.09375 51.859375 
L 54.59375 51.859375 
L 54.296875 66 
L 1.203125 66 
L 1.203125 64.09375 
C 8.59375 63.5 9.90625 62.109375 9.90625 55.125 
L 9.90625 10.859375 
C 9.90625 3.890625 8.5 2.390625 1.203125 1.890625 
L 1.203125 0 
L 55.203125 0 
z
" id="Nimbus_Roman_No9_L_Regular-69"/>
       <path d="M 65.90625 1.890625 
C 62.09375 2.1875 60.09375 3.1875 57.203125 6.578125 
L 36.59375 31.796875 
C 43.296875 33.09375 46.296875 34.28125 49.59375 36.96875 
C 52.796875 39.5625 54.703125 43.75 54.703125 48.4375 
C 54.703125 52.71875 53.40625 56.40625 50.796875 59.296875 
C 47 63.390625 38.703125 66 29.296875 66 
L 1.703125 66 
L 1.703125 64.09375 
C 9.203125 63.296875 10.203125 62.203125 10.203125 55.125 
L 10.203125 11.953125 
C 10.203125 3.6875 9.203125 2.484375 1.703125 1.890625 
L 1.703125 0 
L 29.40625 0 
L 29.40625 1.890625 
C 21.703125 2.390625 20.40625 3.6875 20.40625 10.859375 
L 20.40625 30.5 
L 26 30.703125 
L 49.796875 0 
L 65.90625 0 
z
M 20.40625 58.6875 
C 20.40625 61.484375 21.5 62.296875 25.5 62.296875 
C 38 62.296875 43.796875 57.984375 43.796875 48.59375 
C 43.796875 43.59375 41.703125 39.390625 38.09375 37.484375 
C 33.5 34.890625 30 34.296875 20.40625 34.09375 
z
" id="Nimbus_Roman_No9_L_Regular-82"/>
      </defs>
      <use transform="scale(0.996264)" xlink:href="#Nimbus_Roman_No9_L_Regular-66"/>
      <use transform="translate(66.450031 0)scale(0.996264)" xlink:href="#Nimbus_Roman_No9_L_Regular-69"/>
      <use transform="translate(127.321662 0)scale(0.996264)" xlink:href="#Nimbus_Roman_No9_L_Regular-82"/>
     </g>
    </g>
   </g>
   <g id="line2d_75">
    <path clip-path="url(#pda16329296)" d="M 61.363502 40.702689 
L 105.749866 10.215 
L 150.136229 21.852855 
L 194.522593 17.355206 
L 238.908957 14.162134 
" style="fill:none;stroke:#7fc97f;stroke-dasharray:1.85,0.8;stroke-dashoffset:0;stroke-width:0.5;"/>
    <defs>
     <path d="M -3 0 
L 3 0 
M 0 3 
L 0 -3 
" id="ma4362dc1c4" style="stroke:#7fc97f;"/>
    </defs>
    <g clip-path="url(#pda16329296)">
     <use style="fill:#7fc97f;stroke:#7fc97f;" x="61.363502" xlink:href="#ma4362dc1c4" y="40.702689"/>
     <use style="fill:#7fc97f;stroke:#7fc97f;" x="105.749866" xlink:href="#ma4362dc1c4" y="10.215"/>
     <use style="fill:#7fc97f;stroke:#7fc97f;" x="150.136229" xlink:href="#ma4362dc1c4" y="21.852855"/>
     <use style="fill:#7fc97f;stroke:#7fc97f;" x="194.522593" xlink:href="#ma4362dc1c4" y="17.355206"/>
     <use style="fill:#7fc97f;stroke:#7fc97f;" x="238.908957" xlink:href="#ma4362dc1c4" y="14.162134"/>
    </g>
   </g>
   <g id="line2d_76">
    <path clip-path="url(#pda16329296)" d="M 61.363502 60.908185 
L 105.749866 17.355206 
L 150.136229 34.174266 
L 194.522593 26.780192 
L 238.908957 18.066012 
" style="fill:none;stroke:#fdc086;stroke-dasharray:0.5,0.825;stroke-dashoffset:0;stroke-width:0.5;"/>
    <defs>
     <path d="M 0 1.5 
C 0.397805 1.5 0.77937 1.341951 1.06066 1.06066 
C 1.341951 0.77937 1.5 0.397805 1.5 0 
C 1.5 -0.397805 1.341951 -0.77937 1.06066 -1.06066 
C 0.77937 -1.341951 0.397805 -1.5 0 -1.5 
C -0.397805 -1.5 -0.77937 -1.341951 -1.06066 -1.06066 
C -1.341951 -0.77937 -1.5 -0.397805 -1.5 0 
C -1.5 0.397805 -1.341951 0.77937 -1.06066 1.06066 
C -0.77937 1.341951 -0.397805 1.5 0 1.5 
z
" id="mf01241a6fd" style="stroke:#fdc086;"/>
    </defs>
    <g clip-path="url(#pda16329296)">
     <use style="fill:#fdc086;stroke:#fdc086;" x="61.363502" xlink:href="#mf01241a6fd" y="60.908185"/>
     <use style="fill:#fdc086;stroke:#fdc086;" x="105.749866" xlink:href="#mf01241a6fd" y="17.355206"/>
     <use style="fill:#fdc086;stroke:#fdc086;" x="150.136229" xlink:href="#mf01241a6fd" y="34.174266"/>
     <use style="fill:#fdc086;stroke:#fdc086;" x="194.522593" xlink:href="#mf01241a6fd" y="26.780192"/>
     <use style="fill:#fdc086;stroke:#fdc086;" x="238.908957" xlink:href="#mf01241a6fd" y="18.066012"/>
    </g>
   </g>
   <g id="line2d_77">
    <path clip-path="url(#pda16329296)" d="M 61.363502 115.988363 
L 105.749866 122.402527 
L 150.136229 140.372931 
L 194.522593 126.109111 
L 238.908957 122.402527 
" style="fill:none;stroke:#0c5da5;stroke-linecap:square;stroke-width:0.5;"/>
    <defs>
     <path d="M 0 3 
C 0.795609 3 1.55874 2.683901 2.12132 2.12132 
C 2.683901 1.55874 3 0.795609 3 0 
C 3 -0.795609 2.683901 -1.55874 2.12132 -2.12132 
C 1.55874 -2.683901 0.795609 -3 0 -3 
C -0.795609 -3 -1.55874 -2.683901 -2.12132 -2.12132 
C -2.683901 -1.55874 -3 -0.795609 -3 0 
C -3 0.795609 -2.683901 1.55874 -2.12132 2.12132 
C -1.55874 2.683901 -0.795609 3 0 3 
z
" id="mfb03a8cd7a" style="stroke:#0c5da5;"/>
    </defs>
    <g clip-path="url(#pda16329296)">
     <use style="fill:#0c5da5;stroke:#0c5da5;" x="61.363502" xlink:href="#mfb03a8cd7a" y="115.988363"/>
     <use style="fill:#0c5da5;stroke:#0c5da5;" x="105.749866" xlink:href="#mfb03a8cd7a" y="122.402527"/>
     <use style="fill:#0c5da5;stroke:#0c5da5;" x="150.136229" xlink:href="#mfb03a8cd7a" y="140.372931"/>
     <use style="fill:#0c5da5;stroke:#0c5da5;" x="194.522593" xlink:href="#mfb03a8cd7a" y="126.109111"/>
     <use style="fill:#0c5da5;stroke:#0c5da5;" x="238.908957" xlink:href="#mfb03a8cd7a" y="122.402527"/>
    </g>
   </g>
   <g id="line2d_78">
    <path clip-path="url(#pda16329296)" d="M 61.363502 113.17239 
L 105.749866 119.04948 
L 150.136229 142.515 
L 194.522593 119.04948 
L 238.908957 113.17239 
" style="fill:none;stroke:#00b945;stroke-linecap:square;stroke-width:0.5;"/>
    <defs>
     <path d="M -3 3 
L 3 3 
L 3 -3 
L -3 -3 
z
" id="md5abe28a37" style="stroke:#00b945;stroke-linejoin:miter;"/>
    </defs>
    <g clip-path="url(#pda16329296)">
     <use style="fill:#00b945;stroke:#00b945;stroke-linejoin:miter;" x="61.363502" xlink:href="#md5abe28a37" y="113.17239"/>
     <use style="fill:#00b945;stroke:#00b945;stroke-linejoin:miter;" x="105.749866" xlink:href="#md5abe28a37" y="119.04948"/>
     <use style="fill:#00b945;stroke:#00b945;stroke-linejoin:miter;" x="150.136229" xlink:href="#md5abe28a37" y="142.515"/>
     <use style="fill:#00b945;stroke:#00b945;stroke-linejoin:miter;" x="194.522593" xlink:href="#md5abe28a37" y="119.04948"/>
     <use style="fill:#00b945;stroke:#00b945;stroke-linejoin:miter;" x="238.908957" xlink:href="#md5abe28a37" y="113.17239"/>
    </g>
   </g>
   <g id="patch_3">
    <path d="M 52.486229 149.13 
L 52.486229 3.6 
" style="fill:none;stroke:#000000;stroke-linecap:square;stroke-linejoin:miter;stroke-width:0.5;"/>
   </g>
   <g id="patch_4">
    <path d="M 247.786229 149.13 
L 247.786229 3.6 
" style="fill:none;stroke:#000000;stroke-linecap:square;stroke-linejoin:miter;stroke-width:0.5;"/>
   </g>
   <g id="patch_5">
    <path d="M 52.486229 149.13 
L 247.786229 149.13 
" style="fill:none;stroke:#000000;stroke-linecap:square;stroke-linejoin:miter;stroke-width:0.5;"/>
   </g>
   <g id="patch_6">
    <path d="M 52.486229 3.6 
L 247.786229 3.6 
" style="fill:none;stroke:#000000;stroke-linecap:square;stroke-linejoin:miter;stroke-width:0.5;"/>
   </g>
   <g id="legend_1">
    <g id="line2d_79">
     <path d="M 113.153397 51.161695 
L 135.153397 51.161695 
" style="fill:none;stroke:#7fc97f;stroke-dasharray:1.85,0.8;stroke-dashoffset:0;stroke-width:0.5;"/>
    </g>
    <g id="line2d_80">
     <g>
      <use style="fill:#7fc97f;stroke:#7fc97f;" x="124.153397" xlink:href="#ma4362dc1c4" y="51.161695"/>
     </g>
    </g>
    <g id="text_10">
     <!-- DNN @ $v=20$ -->
     <g transform="translate(143.953397 55.011695)scale(0.11 -0.11)">
      <defs>
       <path d="M 10.40625 10.890625 
C 10.40625 3.6875 9.203125 2.390625 1.59375 1.890625 
L 1.59375 0 
L 30 0 
C 41.59375 0 52.09375 3.296875 58.296875 8.875 
C 64.796875 14.75 68.5 23.625 68.5 33.296875 
C 68.5 42.265625 65.5 50.03125 60 55.515625 
C 53.203125 62.390625 42.296875 66 28.59375 66 
L 1.59375 66 
L 1.59375 64.09375 
C 9.5 63.390625 10.40625 62.484375 10.40625 55.09375 
z
M 20.59375 58.40625 
C 20.59375 61.5 21.703125 62.296875 25.796875 62.296875 
C 34.40625 62.296875 40.90625 60.6875 45.703125 57.3125 
C 53.5 51.921875 57.59375 43.359375 57.59375 32.59375 
C 57.59375 20.828125 53.5 12.46875 45.40625 7.78125 
C 40.296875 4.890625 34.5 3.6875 25.796875 3.6875 
C 21.796875 3.6875 20.59375 4.59375 20.59375 7.78125 
z
" id="Nimbus_Roman_No9_L_Regular-68"/>
       <path d="M 68.796875 7.6875 
C 61 4.1875 55.90625 2.890625 49.203125 2.890625 
C 32.203125 2.890625 20 15.296875 20 32.6875 
C 20 42 23.59375 51.390625 29.296875 57.296875 
C 34.203125 62.1875 40.90625 64.890625 48.203125 64.890625 
C 63.90625 64.890625 76.90625 52.59375 76.90625 37.6875 
C 76.90625 27.6875 70.59375 18 64 18 
C 61.40625 18 60.09375 19.5 60.09375 22.59375 
C 60.09375 23.296875 60.203125 23.796875 60.296875 24.390625 
L 66.796875 49.796875 
L 59.90625 49.796875 
L 58.90625 46 
C 56.703125 50.09375 55.203125 51.1875 51.703125 51.1875 
C 47.40625 51.1875 43.90625 49.59375 40.5 46.1875 
C 35.203125 40.890625 32.09375 33.296875 32.09375 26 
C 32.09375 19.59375 36 14.6875 40.90625 14.6875 
C 45.296875 14.6875 50 17.390625 53.40625 21.890625 
C 54 17.59375 57.703125 14.6875 62.5 14.6875 
C 72.40625 14.6875 80.90625 25.796875 80.90625 38.6875 
C 80.90625 55.1875 66.59375 68 48.09375 68 
C 27.796875 68 11.59375 52.5 11.59375 33 
C 11.59375 13.796875 27.59375 -1 48.296875 -1 
C 55.296875 -1 60.296875 0.296875 70 4.6875 
z
M 53.09375 46.6875 
C 55.90625 46.5 57.40625 44.09375 57.203125 40.1875 
C 57 35.390625 55.296875 29.5 52.703125 24.796875 
C 50.796875 21.1875 47.90625 19 45.203125 19 
C 41.5 19 39.203125 22.296875 39.203125 27.5 
C 39.203125 32.890625 41 37.890625 44.40625 41.6875 
C 47.203125 44.890625 50.703125 46.890625 53.09375 46.6875 
z
" id="Nimbus_Roman_No9_L_Regular-64"/>
       <path d="M 2.09375 40.1875 
C 3.203125 40.28125 4 40.28125 5.09375 40.28125 
C 9 40.28125 10 38.578125 11.40625 29.359375 
C 12.40625 22.4375 13.59375 7.3125 13.59375 1.5 
C 13.59375 -1.3125 13.796875 -2 14.5 -2 
C 17 -2 26.296875 8.609375 36.5 22.84375 
C 40 27.859375 42.59375 34.375 42.59375 38.078125 
C 42.59375 41.296875 40 44 37 44 
C 34.796875 44 33.296875 42.6875 33.296875 40.59375 
C 33.296875 38.984375 33.90625 37.78125 35.703125 36.171875 
C 37 34.96875 37.5 34.171875 37.5 33.171875 
C 37.5 28.5625 30.90625 17.4375 23.796875 10.015625 
L 20.703125 6.8125 
C 20 20.9375 19.40625 26.15625 18.09375 33.578125 
C 16.09375 43.796875 16.09375 44 15.203125 44 
C 14.703125 44 14 43.890625 13.203125 43.59375 
C 11.40625 43.09375 5.90625 42.09375 2.09375 41.484375 
z
" id="Nimbus_Roman_No9_L_Regular_Italic-118"/>
       <path d="M 68.703125 32.984375 
C 70.203125 32.984375 72.09375 32.984375 72.09375 34.984375 
C 72.09375 37 70.203125 37 68.796875 37 
L 8.90625 37 
C 7.5 37 5.59375 37 5.59375 34.984375 
C 5.59375 32.984375 7.5 32.984375 9 32.984375 
z
M 68.796875 13 
C 70.203125 13 72.09375 13 72.09375 15 
C 72.09375 17 70.203125 17 68.703125 17 
L 9 17 
C 7.5 17 5.59375 17 5.59375 15 
C 5.59375 13 7.5 13 8.90625 13 
z
" id="CMR10-61"/>
      </defs>
      <use transform="scale(0.996264)" xlink:href="#Nimbus_Roman_No9_L_Regular-68"/>
      <use transform="translate(71.929985 0)scale(0.996264)" xlink:href="#Nimbus_Roman_No9_L_Regular-78"/>
      <use transform="translate(143.85997 0)scale(0.996264)" xlink:href="#Nimbus_Roman_No9_L_Regular-78"/>
      <use transform="translate(240.696555 0)scale(0.996264)" xlink:href="#Nimbus_Roman_No9_L_Regular-64"/>
      <use transform="translate(357.358636 0)scale(0.996264)" xlink:href="#Nimbus_Roman_No9_L_Regular_Italic-118"/>
      <use transform="translate(423.73135 0)scale(0.996264)" xlink:href="#CMR10-61"/>
      <use transform="translate(523.279204 0)scale(0.996264)" xlink:href="#Nimbus_Roman_No9_L_Regular-50"/>
      <use transform="translate(573.092404 0)scale(0.996264)" xlink:href="#Nimbus_Roman_No9_L_Regular-48"/>
     </g>
    </g>
    <g id="line2d_81">
     <path d="M 113.153397 67.392488 
L 135.153397 67.392488 
" style="fill:none;stroke:#fdc086;stroke-dasharray:0.5,0.825;stroke-dashoffset:0;stroke-width:0.5;"/>
    </g>
    <g id="line2d_82">
     <g>
      <use style="fill:#fdc086;stroke:#fdc086;" x="124.153397" xlink:href="#mf01241a6fd" y="67.392488"/>
     </g>
    </g>
    <g id="text_11">
     <!-- DNN @ $v=25$ -->
     <g transform="translate(143.953397 71.242488)scale(0.11 -0.11)">
      <use transform="scale(0.996264)" xlink:href="#Nimbus_Roman_No9_L_Regular-68"/>
      <use transform="translate(71.929985 0)scale(0.996264)" xlink:href="#Nimbus_Roman_No9_L_Regular-78"/>
      <use transform="translate(143.85997 0)scale(0.996264)" xlink:href="#Nimbus_Roman_No9_L_Regular-78"/>
      <use transform="translate(240.696555 0)scale(0.996264)" xlink:href="#Nimbus_Roman_No9_L_Regular-64"/>
      <use transform="translate(357.358636 0)scale(0.996264)" xlink:href="#Nimbus_Roman_No9_L_Regular_Italic-118"/>
      <use transform="translate(423.73135 0)scale(0.996264)" xlink:href="#CMR10-61"/>
      <use transform="translate(523.279204 0)scale(0.996264)" xlink:href="#Nimbus_Roman_No9_L_Regular-50"/>
      <use transform="translate(573.092404 0)scale(0.996264)" xlink:href="#Nimbus_Roman_No9_L_Regular-53"/>
     </g>
    </g>
    <g id="line2d_83">
     <path d="M 113.153397 83.623281 
L 135.153397 83.623281 
" style="fill:none;stroke:#0c5da5;stroke-linecap:square;stroke-width:0.5;"/>
    </g>
    <g id="line2d_84">
     <g>
      <use style="fill:#0c5da5;stroke:#0c5da5;" x="124.153397" xlink:href="#mfb03a8cd7a" y="83.623281"/>
     </g>
    </g>
    <g id="text_12">
     <!-- MCFormer @ $v=20$ -->
     <g transform="translate(143.953397 87.473281)scale(0.11 -0.11)">
      <defs>
       <path d="M 67.40625 57.125 
L 67.40625 11.953125 
C 67.40625 3.6875 66.203125 2.390625 58.296875 1.890625 
L 58.296875 0 
L 86.296875 0 
L 86.296875 1.890625 
C 79 2.390625 77.59375 3.78125 77.59375 10.859375 
L 77.59375 55.125 
C 77.59375 62.203125 78.90625 63.5 86.296875 64.09375 
L 86.296875 66 
L 66.40625 66 
L 44.296875 15.65625 
L 21.203125 66 
L 1.40625 66 
L 1.40625 64.09375 
C 9.59375 63.59375 10.90625 62.40625 10.90625 55.125 
L 10.90625 14.65625 
C 10.90625 4.390625 9.5 2.484375 1.203125 1.890625 
L 1.203125 0 
L 24.703125 0 
L 24.703125 1.890625 
C 17 2.296875 15.296875 4.578125 15.296875 14.65625 
L 15.296875 54.828125 
L 40.40625 0 
L 41.796875 0 
z
" id="Nimbus_Roman_No9_L_Regular-77"/>
       <path d="M 62 45.390625 
L 61.09375 68 
L 59 68 
C 58.40625 65.890625 56.796875 64.6875 54.796875 64.6875 
C 53.90625 64.6875 52.40625 64.984375 50.90625 65.59375 
C 46 67.1875 41 68 36.296875 68 
C 28.09375 68 19.796875 64.890625 13.59375 59.390625 
C 6.59375 53.203125 2.796875 43.890625 2.796875 32.890625 
C 2.796875 23.59375 5.796875 15 10.90625 9.296875 
C 16.90625 2.796875 26.09375 -1 36 -1 
C 47.296875 -1 57.203125 3.59375 63.296875 11.6875 
L 61.5 13.5 
C 54.09375 6.390625 47.5 3.390625 39.203125 3.390625 
C 32.90625 3.390625 27.296875 5.390625 23 9.1875 
C 17.5 14.09375 14.40625 23.09375 14.40625 34.1875 
C 14.40625 52.296875 23.703125 63.984375 38.203125 63.984375 
C 43.90625 63.984375 49.09375 61.890625 53.09375 57.890625 
C 56.296875 54.703125 57.796875 51.890625 59.703125 45.390625 
z
" id="Nimbus_Roman_No9_L_Regular-67"/>
       <path d="M 47.90625 23.296875 
L 47.90625 46.34375 
L 45.59375 46.34375 
C 44.40625 38.46875 42.59375 37 34.59375 37 
L 20.09375 37 
L 20.09375 58.84375 
C 20.09375 61.59375 20.59375 62.1875 23.296875 62.1875 
L 36.90625 62.1875 
C 48.203125 62.1875 50.40625 60.71875 52.09375 51.859375 
L 54.59375 51.859375 
L 54.296875 66 
L 1.203125 66 
L 1.203125 64.09375 
C 8.59375 63.5 9.90625 62.125 9.90625 55.21875 
L 9.90625 12.0625 
C 9.90625 3.703125 8.796875 2.390625 1.203125 1.890625 
L 1.203125 0 
L 29.203125 0 
L 29.203125 1.890625 
C 21.5 2.296875 20.09375 3.703125 20.09375 10.953125 
L 20.09375 32.890625 
L 34.59375 32.890625 
C 42.703125 32.890625 44.40625 31.375 45.59375 23.234375 
z
" id="Nimbus_Roman_No9_L_Regular-70"/>
      </defs>
      <use transform="scale(0.996264)" xlink:href="#Nimbus_Roman_No9_L_Regular-77"/>
      <use transform="translate(88.566907 0)scale(0.996264)" xlink:href="#Nimbus_Roman_No9_L_Regular-67"/>
      <use transform="translate(155.016938 0)scale(0.996264)" xlink:href="#Nimbus_Roman_No9_L_Regular-70"/>
      <use transform="translate(208.915222 0)scale(0.996264)" xlink:href="#Nimbus_Roman_No9_L_Regular-111"/>
      <use transform="translate(258.728423 0)scale(0.996264)" xlink:href="#Nimbus_Roman_No9_L_Regular-114"/>
      <use transform="translate(291.903652 0)scale(0.996264)" xlink:href="#Nimbus_Roman_No9_L_Regular-109"/>
      <use transform="translate(369.412022 0)scale(0.996264)" xlink:href="#Nimbus_Roman_No9_L_Regular-101"/>
      <use transform="translate(413.645591 0)scale(0.996264)" xlink:href="#Nimbus_Roman_No9_L_Regular-114"/>
      <use transform="translate(471.727421 0)scale(0.996264)" xlink:href="#Nimbus_Roman_No9_L_Regular-64"/>
      <use transform="translate(588.389502 0)scale(0.996264)" xlink:href="#Nimbus_Roman_No9_L_Regular_Italic-118"/>
      <use transform="translate(654.762217 0)scale(0.996264)" xlink:href="#CMR10-61"/>
      <use transform="translate(754.31007 0)scale(0.996264)" xlink:href="#Nimbus_Roman_No9_L_Regular-50"/>
      <use transform="translate(804.123271 0)scale(0.996264)" xlink:href="#Nimbus_Roman_No9_L_Regular-48"/>
     </g>
    </g>
    <g id="line2d_85">
     <path d="M 113.153397 99.854074 
L 135.153397 99.854074 
" style="fill:none;stroke:#00b945;stroke-linecap:square;stroke-width:0.5;"/>
    </g>
    <g id="line2d_86">
     <g>
      <use style="fill:#00b945;stroke:#00b945;stroke-linejoin:miter;" x="124.153397" xlink:href="#md5abe28a37" y="99.854074"/>
     </g>
    </g>
    <g id="text_13">
     <!-- MCFormer @ $v=25$ -->
     <g transform="translate(143.953397 103.704074)scale(0.11 -0.11)">
      <use transform="scale(0.996264)" xlink:href="#Nimbus_Roman_No9_L_Regular-77"/>
      <use transform="translate(88.566907 0)scale(0.996264)" xlink:href="#Nimbus_Roman_No9_L_Regular-67"/>
      <use transform="translate(155.016938 0)scale(0.996264)" xlink:href="#Nimbus_Roman_No9_L_Regular-70"/>
      <use transform="translate(208.915222 0)scale(0.996264)" xlink:href="#Nimbus_Roman_No9_L_Regular-111"/>
      <use transform="translate(258.728423 0)scale(0.996264)" xlink:href="#Nimbus_Roman_No9_L_Regular-114"/>
      <use transform="translate(291.903652 0)scale(0.996264)" xlink:href="#Nimbus_Roman_No9_L_Regular-109"/>
      <use transform="translate(369.412022 0)scale(0.996264)" xlink:href="#Nimbus_Roman_No9_L_Regular-101"/>
      <use transform="translate(413.645591 0)scale(0.996264)" xlink:href="#Nimbus_Roman_No9_L_Regular-114"/>
      <use transform="translate(471.727421 0)scale(0.996264)" xlink:href="#Nimbus_Roman_No9_L_Regular-64"/>
      <use transform="translate(588.389502 0)scale(0.996264)" xlink:href="#Nimbus_Roman_No9_L_Regular_Italic-118"/>
      <use transform="translate(654.762217 0)scale(0.996264)" xlink:href="#CMR10-61"/>
      <use transform="translate(754.31007 0)scale(0.996264)" xlink:href="#Nimbus_Roman_No9_L_Regular-50"/>
      <use transform="translate(804.123271 0)scale(0.996264)" xlink:href="#Nimbus_Roman_No9_L_Regular-53"/>
     </g>
    </g>
   </g>
  </g>
 </g>
 <defs>
  <clipPath id="pda16329296">
   <rect height="145.53" width="195.3" x="52.486229" y="3.6"/>
  </clipPath>
 </defs>
</svg>
