<?xml version="1.0" encoding="utf-8" standalone="no"?>
<!DOCTYPE svg PUBLIC "-//W3C//DTD SVG 1.1//EN"
  "http://www.w3.org/Graphics/SVG/1.1/DTD/svg11.dtd">
<svg xmlns:xlink="http://www.w3.org/1999/xlink" width="411.285625pt" height="310.86825pt" viewBox="0 0 411.285625 310.86825" xmlns="http://www.w3.org/2000/svg" version="1.1">
 <metadata>
  <rdf:RDF xmlns:dc="http://purl.org/dc/elements/1.1/" xmlns:cc="http://creativecommons.org/ns#" xmlns:rdf="http://www.w3.org/1999/02/22-rdf-syntax-ns#">
   <cc:Work>
    <dc:type rdf:resource="http://purl.org/dc/dcmitype/StillImage"/>
    <dc:date>2023-06-21T20:15:09.637177</dc:date>
    <dc:format>image/svg+xml</dc:format>
    <dc:creator>
     <cc:Agent>
      <dc:title>Matplotlib v3.7.1, https://matplotlib.org/</dc:title>
     </cc:Agent>
    </dc:creator>
   </cc:Work>
  </rdf:RDF>
 </metadata>
 <defs>
  <style type="text/css">*{stroke-linejoin: round; stroke-linecap: butt}</style>
 </defs>
 <g id="figure_1">
  <g id="patch_1">
   <path d="M 0 310.86825 
L 411.285625 310.86825 
L 411.285625 0 
L 0 0 
z
" style="fill: #ffffff"/>
  </g>
  <g id="axes_1">
   <g id="patch_2">
    <path d="M 46.965625 273.312 
L 404.085625 273.312 
L 404.085625 7.2 
L 46.965625 7.2 
z
" style="fill: #ffffff"/>
   </g>
   <g id="matplotlib.axis_1">
    <g id="xtick_1">
     <g id="line2d_1">
      <defs>
       <path id="mdedb6a0908" d="M 0 0 
L 0 3.5 
" style="stroke: #000000; stroke-width: 0.8"/>
      </defs>
      <g>
       <use xlink:href="#mdedb6a0908" x="56.572749" y="273.312" style="stroke: #000000; stroke-width: 0.8"/>
      </g>
     </g>
     <g id="text_1">
      <!-- 0 -->
      <g transform="translate(53.391499 287.910437) scale(0.1 -0.1)">
       <defs>
        <path id="DejaVuSans-30" d="M 2034 4250 
Q 1547 4250 1301 3770 
Q 1056 3291 1056 2328 
Q 1056 1369 1301 889 
Q 1547 409 2034 409 
Q 2525 409 2770 889 
Q 3016 1369 3016 2328 
Q 3016 3291 2770 3770 
Q 2525 4250 2034 4250 
z
M 2034 4750 
Q 2819 4750 3233 4129 
Q 3647 3509 3647 2328 
Q 3647 1150 3233 529 
Q 2819 -91 2034 -91 
Q 1250 -91 836 529 
Q 422 1150 422 2328 
Q 422 3509 836 4129 
Q 1250 4750 2034 4750 
z
" transform="scale(0.015625)"/>
       </defs>
       <use xlink:href="#DejaVuSans-30"/>
      </g>
     </g>
    </g>
    <g id="xtick_2">
     <g id="line2d_2">
      <g>
       <use xlink:href="#mdedb6a0908" x="122.828779" y="273.312" style="stroke: #000000; stroke-width: 0.8"/>
      </g>
     </g>
     <g id="text_2">
      <!-- 10 -->
      <g transform="translate(116.466279 287.910437) scale(0.1 -0.1)">
       <defs>
        <path id="DejaVuSans-31" d="M 794 531 
L 1825 531 
L 1825 4091 
L 703 3866 
L 703 4441 
L 1819 4666 
L 2450 4666 
L 2450 531 
L 3481 531 
L 3481 0 
L 794 0 
L 794 531 
z
" transform="scale(0.015625)"/>
       </defs>
       <use xlink:href="#DejaVuSans-31"/>
       <use xlink:href="#DejaVuSans-30" x="63.623047"/>
      </g>
     </g>
    </g>
    <g id="xtick_3">
     <g id="line2d_3">
      <g>
       <use xlink:href="#mdedb6a0908" x="189.084809" y="273.312" style="stroke: #000000; stroke-width: 0.8"/>
      </g>
     </g>
     <g id="text_3">
      <!-- 20 -->
      <g transform="translate(182.722309 287.910437) scale(0.1 -0.1)">
       <defs>
        <path id="DejaVuSans-32" d="M 1228 531 
L 3431 531 
L 3431 0 
L 469 0 
L 469 531 
Q 828 903 1448 1529 
Q 2069 2156 2228 2338 
Q 2531 2678 2651 2914 
Q 2772 3150 2772 3378 
Q 2772 3750 2511 3984 
Q 2250 4219 1831 4219 
Q 1534 4219 1204 4116 
Q 875 4013 500 3803 
L 500 4441 
Q 881 4594 1212 4672 
Q 1544 4750 1819 4750 
Q 2544 4750 2975 4387 
Q 3406 4025 3406 3419 
Q 3406 3131 3298 2873 
Q 3191 2616 2906 2266 
Q 2828 2175 2409 1742 
Q 1991 1309 1228 531 
z
" transform="scale(0.015625)"/>
       </defs>
       <use xlink:href="#DejaVuSans-32"/>
       <use xlink:href="#DejaVuSans-30" x="63.623047"/>
      </g>
     </g>
    </g>
    <g id="xtick_4">
     <g id="line2d_4">
      <g>
       <use xlink:href="#mdedb6a0908" x="255.340838" y="273.312" style="stroke: #000000; stroke-width: 0.8"/>
      </g>
     </g>
     <g id="text_4">
      <!-- 30 -->
      <g transform="translate(248.978338 287.910437) scale(0.1 -0.1)">
       <defs>
        <path id="DejaVuSans-33" d="M 2597 2516 
Q 3050 2419 3304 2112 
Q 3559 1806 3559 1356 
Q 3559 666 3084 287 
Q 2609 -91 1734 -91 
Q 1441 -91 1130 -33 
Q 819 25 488 141 
L 488 750 
Q 750 597 1062 519 
Q 1375 441 1716 441 
Q 2309 441 2620 675 
Q 2931 909 2931 1356 
Q 2931 1769 2642 2001 
Q 2353 2234 1838 2234 
L 1294 2234 
L 1294 2753 
L 1863 2753 
Q 2328 2753 2575 2939 
Q 2822 3125 2822 3475 
Q 2822 3834 2567 4026 
Q 2313 4219 1838 4219 
Q 1578 4219 1281 4162 
Q 984 4106 628 3988 
L 628 4550 
Q 988 4650 1302 4700 
Q 1616 4750 1894 4750 
Q 2613 4750 3031 4423 
Q 3450 4097 3450 3541 
Q 3450 3153 3228 2886 
Q 3006 2619 2597 2516 
z
" transform="scale(0.015625)"/>
       </defs>
       <use xlink:href="#DejaVuSans-33"/>
       <use xlink:href="#DejaVuSans-30" x="63.623047"/>
      </g>
     </g>
    </g>
    <g id="xtick_5">
     <g id="line2d_5">
      <g>
       <use xlink:href="#mdedb6a0908" x="321.596868" y="273.312" style="stroke: #000000; stroke-width: 0.8"/>
      </g>
     </g>
     <g id="text_5">
      <!-- 40 -->
      <g transform="translate(315.234368 287.910437) scale(0.1 -0.1)">
       <defs>
        <path id="DejaVuSans-34" d="M 2419 4116 
L 825 1625 
L 2419 1625 
L 2419 4116 
z
M 2253 4666 
L 3047 4666 
L 3047 1625 
L 3713 1625 
L 3713 1100 
L 3047 1100 
L 3047 0 
L 2419 0 
L 2419 1100 
L 313 1100 
L 313 1709 
L 2253 4666 
z
" transform="scale(0.015625)"/>
       </defs>
       <use xlink:href="#DejaVuSans-34"/>
       <use xlink:href="#DejaVuSans-30" x="63.623047"/>
      </g>
     </g>
    </g>
    <g id="xtick_6">
     <g id="line2d_6">
      <g>
       <use xlink:href="#mdedb6a0908" x="387.852898" y="273.312" style="stroke: #000000; stroke-width: 0.8"/>
      </g>
     </g>
     <g id="text_6">
      <!-- 50 -->
      <g transform="translate(381.490398 287.910437) scale(0.1 -0.1)">
       <defs>
        <path id="DejaVuSans-35" d="M 691 4666 
L 3169 4666 
L 3169 4134 
L 1269 4134 
L 1269 2991 
Q 1406 3038 1543 3061 
Q 1681 3084 1819 3084 
Q 2600 3084 3056 2656 
Q 3513 2228 3513 1497 
Q 3513 744 3044 326 
Q 2575 -91 1722 -91 
Q 1428 -91 1123 -41 
Q 819 9 494 109 
L 494 744 
Q 775 591 1075 516 
Q 1375 441 1709 441 
Q 2250 441 2565 725 
Q 2881 1009 2881 1497 
Q 2881 1984 2565 2268 
Q 2250 2553 1709 2553 
Q 1456 2553 1204 2497 
Q 953 2441 691 2322 
L 691 4666 
z
" transform="scale(0.015625)"/>
       </defs>
       <use xlink:href="#DejaVuSans-35"/>
       <use xlink:href="#DejaVuSans-30" x="63.623047"/>
      </g>
     </g>
    </g>
    <g id="text_7">
     <!-- Epoch -->
     <g transform="translate(210.214688 301.588562) scale(0.1 -0.1)">
      <defs>
       <path id="DejaVuSans-45" d="M 628 4666 
L 3578 4666 
L 3578 4134 
L 1259 4134 
L 1259 2753 
L 3481 2753 
L 3481 2222 
L 1259 2222 
L 1259 531 
L 3634 531 
L 3634 0 
L 628 0 
L 628 4666 
z
" transform="scale(0.015625)"/>
       <path id="DejaVuSans-70" d="M 1159 525 
L 1159 -1331 
L 581 -1331 
L 581 3500 
L 1159 3500 
L 1159 2969 
Q 1341 3281 1617 3432 
Q 1894 3584 2278 3584 
Q 2916 3584 3314 3078 
Q 3713 2572 3713 1747 
Q 3713 922 3314 415 
Q 2916 -91 2278 -91 
Q 1894 -91 1617 61 
Q 1341 213 1159 525 
z
M 3116 1747 
Q 3116 2381 2855 2742 
Q 2594 3103 2138 3103 
Q 1681 3103 1420 2742 
Q 1159 2381 1159 1747 
Q 1159 1113 1420 752 
Q 1681 391 2138 391 
Q 2594 391 2855 752 
Q 3116 1113 3116 1747 
z
" transform="scale(0.015625)"/>
       <path id="DejaVuSans-6f" d="M 1959 3097 
Q 1497 3097 1228 2736 
Q 959 2375 959 1747 
Q 959 1119 1226 758 
Q 1494 397 1959 397 
Q 2419 397 2687 759 
Q 2956 1122 2956 1747 
Q 2956 2369 2687 2733 
Q 2419 3097 1959 3097 
z
M 1959 3584 
Q 2709 3584 3137 3096 
Q 3566 2609 3566 1747 
Q 3566 888 3137 398 
Q 2709 -91 1959 -91 
Q 1206 -91 779 398 
Q 353 888 353 1747 
Q 353 2609 779 3096 
Q 1206 3584 1959 3584 
z
" transform="scale(0.015625)"/>
       <path id="DejaVuSans-63" d="M 3122 3366 
L 3122 2828 
Q 2878 2963 2633 3030 
Q 2388 3097 2138 3097 
Q 1578 3097 1268 2742 
Q 959 2388 959 1747 
Q 959 1106 1268 751 
Q 1578 397 2138 397 
Q 2388 397 2633 464 
Q 2878 531 3122 666 
L 3122 134 
Q 2881 22 2623 -34 
Q 2366 -91 2075 -91 
Q 1284 -91 818 406 
Q 353 903 353 1747 
Q 353 2603 823 3093 
Q 1294 3584 2113 3584 
Q 2378 3584 2631 3529 
Q 2884 3475 3122 3366 
z
" transform="scale(0.015625)"/>
       <path id="DejaVuSans-68" d="M 3513 2113 
L 3513 0 
L 2938 0 
L 2938 2094 
Q 2938 2591 2744 2837 
Q 2550 3084 2163 3084 
Q 1697 3084 1428 2787 
Q 1159 2491 1159 1978 
L 1159 0 
L 581 0 
L 581 4863 
L 1159 4863 
L 1159 2956 
Q 1366 3272 1645 3428 
Q 1925 3584 2291 3584 
Q 2894 3584 3203 3211 
Q 3513 2838 3513 2113 
z
" transform="scale(0.015625)"/>
      </defs>
      <use xlink:href="#DejaVuSans-45"/>
      <use xlink:href="#DejaVuSans-70" x="63.183594"/>
      <use xlink:href="#DejaVuSans-6f" x="126.660156"/>
      <use xlink:href="#DejaVuSans-63" x="187.841797"/>
      <use xlink:href="#DejaVuSans-68" x="242.822266"/>
     </g>
    </g>
   </g>
   <g id="matplotlib.axis_2">
    <g id="ytick_1">
     <g id="line2d_7">
      <defs>
       <path id="m118c450e58" d="M 0 0 
L -3.5 0 
" style="stroke: #000000; stroke-width: 0.8"/>
      </defs>
      <g>
       <use xlink:href="#m118c450e58" x="46.965625" y="269.149556" style="stroke: #000000; stroke-width: 0.8"/>
      </g>
     </g>
     <g id="text_8">
      <!-- 50 -->
      <g transform="translate(27.240625 272.948774) scale(0.1 -0.1)">
       <use xlink:href="#DejaVuSans-35"/>
       <use xlink:href="#DejaVuSans-30" x="63.623047"/>
      </g>
     </g>
    </g>
    <g id="ytick_2">
     <g id="line2d_8">
      <g>
       <use xlink:href="#m118c450e58" x="46.965625" y="219.146475" style="stroke: #000000; stroke-width: 0.8"/>
      </g>
     </g>
     <g id="text_9">
      <!-- 60 -->
      <g transform="translate(27.240625 222.945694) scale(0.1 -0.1)">
       <defs>
        <path id="DejaVuSans-36" d="M 2113 2584 
Q 1688 2584 1439 2293 
Q 1191 2003 1191 1497 
Q 1191 994 1439 701 
Q 1688 409 2113 409 
Q 2538 409 2786 701 
Q 3034 994 3034 1497 
Q 3034 2003 2786 2293 
Q 2538 2584 2113 2584 
z
M 3366 4563 
L 3366 3988 
Q 3128 4100 2886 4159 
Q 2644 4219 2406 4219 
Q 1781 4219 1451 3797 
Q 1122 3375 1075 2522 
Q 1259 2794 1537 2939 
Q 1816 3084 2150 3084 
Q 2853 3084 3261 2657 
Q 3669 2231 3669 1497 
Q 3669 778 3244 343 
Q 2819 -91 2113 -91 
Q 1303 -91 875 529 
Q 447 1150 447 2328 
Q 447 3434 972 4092 
Q 1497 4750 2381 4750 
Q 2619 4750 2861 4703 
Q 3103 4656 3366 4563 
z
" transform="scale(0.015625)"/>
       </defs>
       <use xlink:href="#DejaVuSans-36"/>
       <use xlink:href="#DejaVuSans-30" x="63.623047"/>
      </g>
     </g>
    </g>
    <g id="ytick_3">
     <g id="line2d_9">
      <g>
       <use xlink:href="#m118c450e58" x="46.965625" y="169.143394" style="stroke: #000000; stroke-width: 0.8"/>
      </g>
     </g>
     <g id="text_10">
      <!-- 70 -->
      <g transform="translate(27.240625 172.942613) scale(0.1 -0.1)">
       <defs>
        <path id="DejaVuSans-37" d="M 525 4666 
L 3525 4666 
L 3525 4397 
L 1831 0 
L 1172 0 
L 2766 4134 
L 525 4134 
L 525 4666 
z
" transform="scale(0.015625)"/>
       </defs>
       <use xlink:href="#DejaVuSans-37"/>
       <use xlink:href="#DejaVuSans-30" x="63.623047"/>
      </g>
     </g>
    </g>
    <g id="ytick_4">
     <g id="line2d_10">
      <g>
       <use xlink:href="#m118c450e58" x="46.965625" y="119.140313" style="stroke: #000000; stroke-width: 0.8"/>
      </g>
     </g>
     <g id="text_11">
      <!-- 80 -->
      <g transform="translate(27.240625 122.939532) scale(0.1 -0.1)">
       <defs>
        <path id="DejaVuSans-38" d="M 2034 2216 
Q 1584 2216 1326 1975 
Q 1069 1734 1069 1313 
Q 1069 891 1326 650 
Q 1584 409 2034 409 
Q 2484 409 2743 651 
Q 3003 894 3003 1313 
Q 3003 1734 2745 1975 
Q 2488 2216 2034 2216 
z
M 1403 2484 
Q 997 2584 770 2862 
Q 544 3141 544 3541 
Q 544 4100 942 4425 
Q 1341 4750 2034 4750 
Q 2731 4750 3128 4425 
Q 3525 4100 3525 3541 
Q 3525 3141 3298 2862 
Q 3072 2584 2669 2484 
Q 3125 2378 3379 2068 
Q 3634 1759 3634 1313 
Q 3634 634 3220 271 
Q 2806 -91 2034 -91 
Q 1263 -91 848 271 
Q 434 634 434 1313 
Q 434 1759 690 2068 
Q 947 2378 1403 2484 
z
M 1172 3481 
Q 1172 3119 1398 2916 
Q 1625 2713 2034 2713 
Q 2441 2713 2670 2916 
Q 2900 3119 2900 3481 
Q 2900 3844 2670 4047 
Q 2441 4250 2034 4250 
Q 1625 4250 1398 4047 
Q 1172 3844 1172 3481 
z
" transform="scale(0.015625)"/>
       </defs>
       <use xlink:href="#DejaVuSans-38"/>
       <use xlink:href="#DejaVuSans-30" x="63.623047"/>
      </g>
     </g>
    </g>
    <g id="ytick_5">
     <g id="line2d_11">
      <g>
       <use xlink:href="#m118c450e58" x="46.965625" y="69.137233" style="stroke: #000000; stroke-width: 0.8"/>
      </g>
     </g>
     <g id="text_12">
      <!-- 90 -->
      <g transform="translate(27.240625 72.936451) scale(0.1 -0.1)">
       <defs>
        <path id="DejaVuSans-39" d="M 703 97 
L 703 672 
Q 941 559 1184 500 
Q 1428 441 1663 441 
Q 2288 441 2617 861 
Q 2947 1281 2994 2138 
Q 2813 1869 2534 1725 
Q 2256 1581 1919 1581 
Q 1219 1581 811 2004 
Q 403 2428 403 3163 
Q 403 3881 828 4315 
Q 1253 4750 1959 4750 
Q 2769 4750 3195 4129 
Q 3622 3509 3622 2328 
Q 3622 1225 3098 567 
Q 2575 -91 1691 -91 
Q 1453 -91 1209 -44 
Q 966 3 703 97 
z
M 1959 2075 
Q 2384 2075 2632 2365 
Q 2881 2656 2881 3163 
Q 2881 3666 2632 3958 
Q 2384 4250 1959 4250 
Q 1534 4250 1286 3958 
Q 1038 3666 1038 3163 
Q 1038 2656 1286 2365 
Q 1534 2075 1959 2075 
z
" transform="scale(0.015625)"/>
       </defs>
       <use xlink:href="#DejaVuSans-39"/>
       <use xlink:href="#DejaVuSans-30" x="63.623047"/>
      </g>
     </g>
    </g>
    <g id="ytick_6">
     <g id="line2d_12">
      <g>
       <use xlink:href="#m118c450e58" x="46.965625" y="19.134152" style="stroke: #000000; stroke-width: 0.8"/>
      </g>
     </g>
     <g id="text_13">
      <!-- 100 -->
      <g transform="translate(20.878125 22.933371) scale(0.1 -0.1)">
       <use xlink:href="#DejaVuSans-31"/>
       <use xlink:href="#DejaVuSans-30" x="63.623047"/>
       <use xlink:href="#DejaVuSans-30" x="127.246094"/>
      </g>
     </g>
    </g>
    <g id="text_14">
     <!-- Validation Accuracy -->
     <g transform="translate(14.798438 189.363812) rotate(-90) scale(0.1 -0.1)">
      <defs>
       <path id="DejaVuSans-56" d="M 1831 0 
L 50 4666 
L 709 4666 
L 2188 738 
L 3669 4666 
L 4325 4666 
L 2547 0 
L 1831 0 
z
" transform="scale(0.015625)"/>
       <path id="DejaVuSans-61" d="M 2194 1759 
Q 1497 1759 1228 1600 
Q 959 1441 959 1056 
Q 959 750 1161 570 
Q 1363 391 1709 391 
Q 2188 391 2477 730 
Q 2766 1069 2766 1631 
L 2766 1759 
L 2194 1759 
z
M 3341 1997 
L 3341 0 
L 2766 0 
L 2766 531 
Q 2569 213 2275 61 
Q 1981 -91 1556 -91 
Q 1019 -91 701 211 
Q 384 513 384 1019 
Q 384 1609 779 1909 
Q 1175 2209 1959 2209 
L 2766 2209 
L 2766 2266 
Q 2766 2663 2505 2880 
Q 2244 3097 1772 3097 
Q 1472 3097 1187 3025 
Q 903 2953 641 2809 
L 641 3341 
Q 956 3463 1253 3523 
Q 1550 3584 1831 3584 
Q 2591 3584 2966 3190 
Q 3341 2797 3341 1997 
z
" transform="scale(0.015625)"/>
       <path id="DejaVuSans-6c" d="M 603 4863 
L 1178 4863 
L 1178 0 
L 603 0 
L 603 4863 
z
" transform="scale(0.015625)"/>
       <path id="DejaVuSans-69" d="M 603 3500 
L 1178 3500 
L 1178 0 
L 603 0 
L 603 3500 
z
M 603 4863 
L 1178 4863 
L 1178 4134 
L 603 4134 
L 603 4863 
z
" transform="scale(0.015625)"/>
       <path id="DejaVuSans-64" d="M 2906 2969 
L 2906 4863 
L 3481 4863 
L 3481 0 
L 2906 0 
L 2906 525 
Q 2725 213 2448 61 
Q 2172 -91 1784 -91 
Q 1150 -91 751 415 
Q 353 922 353 1747 
Q 353 2572 751 3078 
Q 1150 3584 1784 3584 
Q 2172 3584 2448 3432 
Q 2725 3281 2906 2969 
z
M 947 1747 
Q 947 1113 1208 752 
Q 1469 391 1925 391 
Q 2381 391 2643 752 
Q 2906 1113 2906 1747 
Q 2906 2381 2643 2742 
Q 2381 3103 1925 3103 
Q 1469 3103 1208 2742 
Q 947 2381 947 1747 
z
" transform="scale(0.015625)"/>
       <path id="DejaVuSans-74" d="M 1172 4494 
L 1172 3500 
L 2356 3500 
L 2356 3053 
L 1172 3053 
L 1172 1153 
Q 1172 725 1289 603 
Q 1406 481 1766 481 
L 2356 481 
L 2356 0 
L 1766 0 
Q 1100 0 847 248 
Q 594 497 594 1153 
L 594 3053 
L 172 3053 
L 172 3500 
L 594 3500 
L 594 4494 
L 1172 4494 
z
" transform="scale(0.015625)"/>
       <path id="DejaVuSans-6e" d="M 3513 2113 
L 3513 0 
L 2938 0 
L 2938 2094 
Q 2938 2591 2744 2837 
Q 2550 3084 2163 3084 
Q 1697 3084 1428 2787 
Q 1159 2491 1159 1978 
L 1159 0 
L 581 0 
L 581 3500 
L 1159 3500 
L 1159 2956 
Q 1366 3272 1645 3428 
Q 1925 3584 2291 3584 
Q 2894 3584 3203 3211 
Q 3513 2838 3513 2113 
z
" transform="scale(0.015625)"/>
       <path id="DejaVuSans-20" transform="scale(0.015625)"/>
       <path id="DejaVuSans-41" d="M 2188 4044 
L 1331 1722 
L 3047 1722 
L 2188 4044 
z
M 1831 4666 
L 2547 4666 
L 4325 0 
L 3669 0 
L 3244 1197 
L 1141 1197 
L 716 0 
L 50 0 
L 1831 4666 
z
" transform="scale(0.015625)"/>
       <path id="DejaVuSans-75" d="M 544 1381 
L 544 3500 
L 1119 3500 
L 1119 1403 
Q 1119 906 1312 657 
Q 1506 409 1894 409 
Q 2359 409 2629 706 
Q 2900 1003 2900 1516 
L 2900 3500 
L 3475 3500 
L 3475 0 
L 2900 0 
L 2900 538 
Q 2691 219 2414 64 
Q 2138 -91 1772 -91 
Q 1169 -91 856 284 
Q 544 659 544 1381 
z
M 1991 3584 
L 1991 3584 
z
" transform="scale(0.015625)"/>
       <path id="DejaVuSans-72" d="M 2631 2963 
Q 2534 3019 2420 3045 
Q 2306 3072 2169 3072 
Q 1681 3072 1420 2755 
Q 1159 2438 1159 1844 
L 1159 0 
L 581 0 
L 581 3500 
L 1159 3500 
L 1159 2956 
Q 1341 3275 1631 3429 
Q 1922 3584 2338 3584 
Q 2397 3584 2469 3576 
Q 2541 3569 2628 3553 
L 2631 2963 
z
" transform="scale(0.015625)"/>
       <path id="DejaVuSans-79" d="M 2059 -325 
Q 1816 -950 1584 -1140 
Q 1353 -1331 966 -1331 
L 506 -1331 
L 506 -850 
L 844 -850 
Q 1081 -850 1212 -737 
Q 1344 -625 1503 -206 
L 1606 56 
L 191 3500 
L 800 3500 
L 1894 763 
L 2988 3500 
L 3597 3500 
L 2059 -325 
z
" transform="scale(0.015625)"/>
      </defs>
      <use xlink:href="#DejaVuSans-56"/>
      <use xlink:href="#DejaVuSans-61" x="60.658203"/>
      <use xlink:href="#DejaVuSans-6c" x="121.9375"/>
      <use xlink:href="#DejaVuSans-69" x="149.720703"/>
      <use xlink:href="#DejaVuSans-64" x="177.503906"/>
      <use xlink:href="#DejaVuSans-61" x="240.980469"/>
      <use xlink:href="#DejaVuSans-74" x="302.259766"/>
      <use xlink:href="#DejaVuSans-69" x="341.46875"/>
      <use xlink:href="#DejaVuSans-6f" x="369.251953"/>
      <use xlink:href="#DejaVuSans-6e" x="430.433594"/>
      <use xlink:href="#DejaVuSans-20" x="493.8125"/>
      <use xlink:href="#DejaVuSans-41" x="525.599609"/>
      <use xlink:href="#DejaVuSans-63" x="592.257812"/>
      <use xlink:href="#DejaVuSans-63" x="647.238281"/>
      <use xlink:href="#DejaVuSans-75" x="702.21875"/>
      <use xlink:href="#DejaVuSans-72" x="765.597656"/>
      <use xlink:href="#DejaVuSans-61" x="806.710938"/>
      <use xlink:href="#DejaVuSans-63" x="867.990234"/>
      <use xlink:href="#DejaVuSans-79" x="922.970703"/>
     </g>
    </g>
   </g>
   <g id="line2d_13">
    <path d="M 63.198352 251.156939 
L 69.823955 249.294187 
L 76.449558 231.532852 
L 83.075161 209.980076 
L 89.700764 151.942035 
L 96.326367 96.779295 
L 102.95197 64.181383 
L 109.577573 63.647384 
L 116.203176 48.641964 
L 122.828779 46.372593 
L 129.454382 47.777775 
L 136.079985 49.400252 
L 142.705588 46.091357 
L 149.331191 46.495978 
L 155.956794 45.124764 
L 162.582397 46.603377 
L 169.208 44.54281 
L 175.833603 45.955984 
L 182.459206 46.725262 
L 189.084809 45.378027 
L 195.710412 46.484488 
L 202.336015 51.113145 
L 208.961618 46.541435 
L 215.587221 46.819674 
L 222.212824 47.481553 
L 228.838426 46.947554 
L 235.464029 47.640903 
L 242.089632 50.346365 
L 248.715235 49.710961 
L 255.340838 48.557044 
L 261.966441 49.022607 
L 268.592044 49.055076 
L 275.217647 48.377712 
L 281.84325 48.809806 
L 288.468853 49.731941 
L 295.094456 48.623481 
L 301.720059 51.39538 
L 308.345662 49.256387 
L 314.971265 50.157542 
L 321.596868 49.417736 
L 328.222471 49.418236 
L 334.848074 56.802307 
L 341.473677 49.888294 
L 348.09928 50.499221 
L 354.724883 48.877243 
L 361.350486 50.880364 
L 367.976089 51.655636 
L 374.601692 48.782832 
L 381.227295 49.655513 
L 387.852898 50.12757 
" clip-path="url(#pa9d843a12d)" style="fill: none; stroke: #7fc97f; stroke-width: 1.5; stroke-linecap: square"/>
   </g>
   <g id="line2d_14">
    <path d="M 63.198352 254.890935 
L 69.823955 244.695002 
L 76.449558 240.471465 
L 83.075161 225.060925 
L 89.700764 190.260579 
L 96.326367 128.153356 
L 102.95197 70.943538 
L 109.577573 35.845971 
L 116.203176 34.542694 
L 122.828779 33.019623 
L 129.454382 32.189901 
L 136.079985 32.801827 
L 142.705588 32.11647 
L 149.331191 33.64054 
L 155.956794 33.276382 
L 162.582397 37.751183 
L 169.208 34.61013 
L 175.833603 31.96761 
L 182.459206 33.059086 
L 189.084809 33.430237 
L 195.710412 32.955183 
L 202.336015 37.34906 
L 208.961618 34.081626 
L 215.587221 33.831861 
L 222.212824 35.991834 
L 228.838426 32.967172 
L 235.464029 36.094737 
L 242.089632 34.390337 
L 248.715235 35.050717 
L 255.340838 34.571666 
L 261.966441 34.523711 
L 268.592044 33.238917 
L 275.217647 36.334013 
L 281.84325 34.44029 
L 288.468853 34.435794 
L 295.094456 34.021183 
L 301.720059 33.976225 
L 308.345662 33.846847 
L 314.971265 34.238479 
L 321.596868 33.914783 
L 328.222471 34.112098 
L 334.848074 35.008756 
L 341.473677 33.738448 
L 348.09928 36.652214 
L 354.724883 34.746003 
L 361.350486 36.740631 
L 367.976089 34.415313 
L 374.601692 34.910848 
L 381.227295 34.083125 
L 387.852898 34.22649 
" clip-path="url(#pa9d843a12d)" style="fill: none; stroke: #beaed4; stroke-width: 1.5; stroke-linecap: square"/>
   </g>
   <g id="line2d_15">
    <path d="M 63.198352 254.698116 
L 69.823955 247.40446 
L 76.449558 222.794052 
L 83.075161 168.075896 
L 89.700764 86.218205 
L 96.326367 35.312971 
L 102.95197 29.797646 
L 109.577573 30.433549 
L 116.203176 28.883504 
L 122.828779 28.179165 
L 129.454382 28.782598 
L 136.079985 28.062274 
L 142.705588 29.766176 
L 149.331191 28.036299 
L 155.956794 29.72971 
L 162.582397 27.930898 
L 169.208 29.050847 
L 175.833603 27.675637 
L 182.459206 28.041294 
L 189.084809 27.97086 
L 195.710412 28.001332 
L 202.336015 27.96037 
L 208.961618 28.287563 
L 215.587221 28.506857 
L 222.212824 28.637235 
L 228.838426 30.452532 
L 235.464029 27.918409 
L 242.089632 27.707607 
L 248.715235 27.926901 
L 255.340838 28.080757 
L 261.966441 27.752565 
L 268.592044 27.487314 
L 275.217647 27.546758 
L 281.84325 27.692621 
L 288.468853 28.131709 
L 295.094456 27.871953 
L 301.720059 28.540825 
L 308.345662 27.102675 
L 314.971265 27.307982 
L 321.596868 29.527899 
L 328.222471 27.637173 
L 334.848074 28.654718 
L 341.473677 27.064211 
L 348.09928 26.674576 
L 354.724883 27.186097 
L 361.350486 27.564741 
L 367.976089 27.42737 
L 374.601692 27.203081 
L 381.227295 27.083193 
L 387.852898 29.427493 
" clip-path="url(#pa9d843a12d)" style="fill: none; stroke: #fdc086; stroke-width: 1.5; stroke-linecap: square"/>
   </g>
   <g id="line2d_16">
    <path d="M 63.198352 249.731776 
L 69.823955 261.216 
L 76.449558 213.218537 
L 83.075161 164.46928 
L 89.700764 80.706377 
L 96.326367 35.614188 
L 102.95197 28.948443 
L 109.577573 26.811448 
L 116.203176 26.413821 
L 122.828779 24.980166 
L 129.454382 25.233429 
L 136.079985 23.929153 
L 142.705588 23.159874 
L 149.331191 23.699368 
L 155.956794 23.06896 
L 162.582397 22.784227 
L 169.208 24.413698 
L 175.833603 23.042485 
L 182.459206 23.439612 
L 189.084809 22.395592 
L 195.710412 23.667898 
L 202.336015 22.493999 
L 208.961618 23.178357 
L 215.587221 22.948573 
L 222.212824 23.05797 
L 228.838426 22.757252 
L 235.464029 23.412138 
L 242.089632 23.15438 
L 248.715235 23.172363 
L 255.340838 22.881136 
L 261.966441 23.162372 
L 268.592044 23.403646 
L 275.217647 23.337708 
L 281.84325 23.674392 
L 288.468853 23.194342 
L 295.094456 23.513543 
L 301.720059 23.553006 
L 308.345662 23.32422 
L 314.971265 23.576983 
L 321.596868 23.705862 
L 328.222471 23.625937 
L 334.848074 23.815759 
L 341.473677 23.204832 
L 348.09928 23.837239 
L 354.724883 23.746324 
L 361.350486 24.657469 
L 367.976089 23.651413 
L 374.601692 23.626936 
L 381.227295 23.634429 
L 387.852898 24.417195 
" clip-path="url(#pa9d843a12d)" style="fill: none; stroke: #386cb0; stroke-width: 1.5; stroke-linecap: square"/>
   </g>
   <g id="line2d_17">
    <path d="M 63.198352 258.420623 
L 69.823955 251.296308 
L 76.449558 240.081831 
L 83.075161 224.155775 
L 89.700764 164.823947 
L 96.326367 72.343724 
L 102.95197 37.698732 
L 109.577573 27.621688 
L 116.203176 26.452785 
L 122.828779 23.778294 
L 129.454382 22.938582 
L 136.079985 21.915542 
L 142.705588 21.685758 
L 149.331191 21.958002 
L 155.956794 21.472957 
L 162.582397 21.424503 
L 169.208 21.756691 
L 175.833603 21.47046 
L 182.459206 21.601836 
L 189.084809 21.655786 
L 195.710412 21.667275 
L 202.336015 21.523909 
L 208.961618 21.733213 
L 215.587221 21.786663 
L 222.212824 21.562873 
L 228.838426 21.655286 
L 235.464029 21.750197 
L 242.089632 21.240176 
L 248.715235 21.503928 
L 255.340838 21.578358 
L 261.966441 21.520413 
L 268.592044 21.484946 
L 275.217647 21.464965 
L 281.84325 23.024002 
L 288.468853 21.503928 
L 295.094456 21.518415 
L 301.720059 21.191222 
L 308.345662 21.353569 
L 314.971265 21.300119 
L 321.596868 21.208206 
L 328.222471 21.362061 
L 334.848074 21.201712 
L 341.473677 21.170241 
L 348.09928 21.701243 
L 354.724883 23.963121 
L 361.350486 21.570865 
L 367.976089 21.217197 
L 374.601692 21.400525 
L 381.227295 21.355567 
L 387.852898 25.538642 
" clip-path="url(#pa9d843a12d)" style="fill: none; stroke: #f0027f; stroke-width: 1.5; stroke-linecap: square"/>
   </g>
   <g id="line2d_18">
    <path d="M 63.198352 252.966741 
L 69.823955 246.579734 
L 76.449558 232.979495 
L 83.075161 210.513076 
L 89.700764 129.209865 
L 96.326367 54.655821 
L 102.95197 23.564495 
L 109.577573 21.540894 
L 116.203176 21.384041 
L 122.828779 21.183229 
L 129.454382 20.911984 
L 136.079985 20.844547 
L 142.705588 21.755692 
L 149.331191 20.731153 
L 155.956794 20.218135 
L 162.582397 20.426939 
L 169.208 19.997342 
L 175.833603 20.13821 
L 182.459206 20.069274 
L 189.084809 20.10624 
L 195.710412 20.185665 
L 202.336015 19.828001 
L 208.961618 19.95638 
L 215.587221 20.674207 
L 222.212824 20.471397 
L 228.838426 19.662656 
L 235.464029 19.802025 
L 242.089632 19.970367 
L 248.715235 20.484884 
L 255.340838 20.378984 
L 261.966441 19.850979 
L 268.592044 19.59472 
L 275.217647 20.605271 
L 281.84325 19.558254 
L 288.468853 20.354507 
L 295.094456 20.003336 
L 301.720059 19.703618 
L 308.345662 19.762562 
L 314.971265 20.675206 
L 321.596868 19.843486 
L 328.222471 19.964373 
L 334.848074 20.263093 
L 341.473677 20.105241 
L 348.09928 19.70062 
L 354.724883 19.569244 
L 361.350486 19.991847 
L 367.976089 19.922912 
L 374.601692 19.728095 
L 381.227295 19.749574 
L 387.852898 19.791035 
" clip-path="url(#pa9d843a12d)" style="fill: none; stroke: #bf5b17; stroke-width: 1.5; stroke-linecap: square"/>
   </g>
   <g id="line2d_19">
    <path d="M 63.198352 249.78073 
L 69.823955 247.861031 
L 76.449558 227.648997 
L 83.075161 153.720366 
L 89.700764 63.765773 
L 96.326367 23.672893 
L 102.95197 21.037866 
L 109.577573 20.405958 
L 116.203176 20.224129 
L 122.828779 19.97786 
L 129.454382 19.68014 
L 136.079985 19.598216 
L 142.705588 19.468838 
L 149.331191 19.624192 
L 155.956794 19.514795 
L 162.582397 19.435369 
L 169.208 19.394907 
L 175.833603 19.480327 
L 182.459206 19.382419 
L 189.084809 19.862468 
L 195.710412 19.354445 
L 202.336015 19.471835 
L 208.961618 19.39141 
L 215.587221 19.377923 
L 222.212824 19.397904 
L 228.838426 19.321476 
L 235.464029 19.772553 
L 242.089632 19.335463 
L 248.715235 19.480327 
L 255.340838 20.203149 
L 261.966441 19.34895 
L 268.592044 19.311485 
L 275.217647 21.858096 
L 281.84325 19.896437 
L 288.468853 19.296 
L 295.094456 19.611704 
L 301.720059 20.117729 
L 308.345662 19.298997 
L 314.971265 19.319478 
L 321.596868 19.2965 
L 328.222471 19.313983 
L 334.848074 19.311985 
L 341.473677 19.344954 
L 348.09928 19.333964 
L 354.724883 22.297683 
L 361.350486 19.55226 
L 367.976089 19.395407 
L 374.601692 19.326971 
L 381.227295 19.330967 
L 387.852898 19.302993 
" clip-path="url(#pa9d843a12d)" style="fill: none; stroke: #666666; stroke-width: 1.5; stroke-linecap: square"/>
   </g>
   <g id="patch_3">
    <path d="M 46.965625 273.312 
L 46.965625 7.2 
" style="fill: none; stroke: #000000; stroke-width: 0.8; stroke-linejoin: miter; stroke-linecap: square"/>
   </g>
   <g id="patch_4">
    <path d="M 404.085625 273.312 
L 404.085625 7.2 
" style="fill: none; stroke: #000000; stroke-width: 0.8; stroke-linejoin: miter; stroke-linecap: square"/>
   </g>
   <g id="patch_5">
    <path d="M 46.965625 273.312 
L 404.085625 273.312 
" style="fill: none; stroke: #000000; stroke-width: 0.8; stroke-linejoin: miter; stroke-linecap: square"/>
   </g>
   <g id="patch_6">
    <path d="M 46.965625 7.2 
L 404.085625 7.2 
" style="fill: none; stroke: #000000; stroke-width: 0.8; stroke-linejoin: miter; stroke-linecap: square"/>
   </g>
   <g id="legend_1">
    <g id="patch_7">
     <path d="M 334.085625 268.312 
L 397.085625 268.312 
Q 399.085625 268.312 399.085625 266.312 
L 399.085625 164.565125 
Q 399.085625 162.565125 397.085625 162.565125 
L 334.085625 162.565125 
Q 332.085625 162.565125 332.085625 164.565125 
L 332.085625 266.312 
Q 332.085625 268.312 334.085625 268.312 
z
" style="fill: #ffffff; opacity: 0.8; stroke: #cccccc; stroke-linejoin: miter"/>
    </g>
    <g id="line2d_20">
     <path d="M 336.085625 170.663562 
L 346.085625 170.663562 
L 356.085625 170.663562 
" style="fill: none; stroke: #7fc97f; stroke-width: 1.5; stroke-linecap: square"/>
    </g>
    <g id="text_15">
     <!-- $v=20$ -->
     <g transform="translate(364.085625 174.163562) scale(0.1 -0.1)">
      <defs>
       <path id="DejaVuSans-Oblique-76" d="M 459 3500 
L 1069 3500 
L 1581 525 
L 3256 3500 
L 3866 3500 
L 1875 0 
L 1100 0 
L 459 3500 
z
" transform="scale(0.015625)"/>
       <path id="DejaVuSans-3d" d="M 678 2906 
L 4684 2906 
L 4684 2381 
L 678 2381 
L 678 2906 
z
M 678 1631 
L 4684 1631 
L 4684 1100 
L 678 1100 
L 678 1631 
z
" transform="scale(0.015625)"/>
      </defs>
      <use xlink:href="#DejaVuSans-Oblique-76" transform="translate(0 0.78125)"/>
      <use xlink:href="#DejaVuSans-3d" transform="translate(78.662109 0.78125)"/>
      <use xlink:href="#DejaVuSans-32" transform="translate(181.933594 0.78125)"/>
      <use xlink:href="#DejaVuSans-30" transform="translate(245.556641 0.78125)"/>
     </g>
    </g>
    <g id="line2d_21">
     <path d="M 336.085625 185.341687 
L 346.085625 185.341687 
L 356.085625 185.341687 
" style="fill: none; stroke: #beaed4; stroke-width: 1.5; stroke-linecap: square"/>
    </g>
    <g id="text_16">
     <!-- $v=25$ -->
     <g transform="translate(364.085625 188.841687) scale(0.1 -0.1)">
      <use xlink:href="#DejaVuSans-Oblique-76" transform="translate(0 0.78125)"/>
      <use xlink:href="#DejaVuSans-3d" transform="translate(78.662109 0.78125)"/>
      <use xlink:href="#DejaVuSans-32" transform="translate(181.933594 0.78125)"/>
      <use xlink:href="#DejaVuSans-35" transform="translate(245.556641 0.78125)"/>
     </g>
    </g>
    <g id="line2d_22">
     <path d="M 336.085625 200.019812 
L 346.085625 200.019812 
L 356.085625 200.019812 
" style="fill: none; stroke: #fdc086; stroke-width: 1.5; stroke-linecap: square"/>
    </g>
    <g id="text_17">
     <!-- $v=30$ -->
     <g transform="translate(364.085625 203.519812) scale(0.1 -0.1)">
      <use xlink:href="#DejaVuSans-Oblique-76" transform="translate(0 0.78125)"/>
      <use xlink:href="#DejaVuSans-3d" transform="translate(78.662109 0.78125)"/>
      <use xlink:href="#DejaVuSans-33" transform="translate(181.933594 0.78125)"/>
      <use xlink:href="#DejaVuSans-30" transform="translate(245.556641 0.78125)"/>
     </g>
    </g>
    <g id="line2d_23">
     <path d="M 336.085625 214.697937 
L 346.085625 214.697937 
L 356.085625 214.697937 
" style="fill: none; stroke: #386cb0; stroke-width: 1.5; stroke-linecap: square"/>
    </g>
    <g id="text_18">
     <!-- $v=35$ -->
     <g transform="translate(364.085625 218.197937) scale(0.1 -0.1)">
      <use xlink:href="#DejaVuSans-Oblique-76" transform="translate(0 0.78125)"/>
      <use xlink:href="#DejaVuSans-3d" transform="translate(78.662109 0.78125)"/>
      <use xlink:href="#DejaVuSans-33" transform="translate(181.933594 0.78125)"/>
      <use xlink:href="#DejaVuSans-35" transform="translate(245.556641 0.78125)"/>
     </g>
    </g>
    <g id="line2d_24">
     <path d="M 336.085625 229.376062 
L 346.085625 229.376062 
L 356.085625 229.376062 
" style="fill: none; stroke: #f0027f; stroke-width: 1.5; stroke-linecap: square"/>
    </g>
    <g id="text_19">
     <!-- $v=40$ -->
     <g transform="translate(364.085625 232.876062) scale(0.1 -0.1)">
      <use xlink:href="#DejaVuSans-Oblique-76" transform="translate(0 0.78125)"/>
      <use xlink:href="#DejaVuSans-3d" transform="translate(78.662109 0.78125)"/>
      <use xlink:href="#DejaVuSans-34" transform="translate(181.933594 0.78125)"/>
      <use xlink:href="#DejaVuSans-30" transform="translate(245.556641 0.78125)"/>
     </g>
    </g>
    <g id="line2d_25">
     <path d="M 336.085625 244.054187 
L 346.085625 244.054187 
L 356.085625 244.054187 
" style="fill: none; stroke: #bf5b17; stroke-width: 1.5; stroke-linecap: square"/>
    </g>
    <g id="text_20">
     <!-- $v=45$ -->
     <g transform="translate(364.085625 247.554187) scale(0.1 -0.1)">
      <use xlink:href="#DejaVuSans-Oblique-76" transform="translate(0 0.09375)"/>
      <use xlink:href="#DejaVuSans-3d" transform="translate(78.662109 0.09375)"/>
      <use xlink:href="#DejaVuSans-34" transform="translate(181.933594 0.09375)"/>
      <use xlink:href="#DejaVuSans-35" transform="translate(245.556641 0.09375)"/>
     </g>
    </g>
    <g id="line2d_26">
     <path d="M 336.085625 258.732312 
L 346.085625 258.732312 
L 356.085625 258.732312 
" style="fill: none; stroke: #666666; stroke-width: 1.5; stroke-linecap: square"/>
    </g>
    <g id="text_21">
     <!-- $v=50$ -->
     <g transform="translate(364.085625 262.232312) scale(0.1 -0.1)">
      <use xlink:href="#DejaVuSans-Oblique-76" transform="translate(0 0.78125)"/>
      <use xlink:href="#DejaVuSans-3d" transform="translate(78.662109 0.78125)"/>
      <use xlink:href="#DejaVuSans-35" transform="translate(181.933594 0.78125)"/>
      <use xlink:href="#DejaVuSans-30" transform="translate(245.556641 0.78125)"/>
     </g>
    </g>
   </g>
  </g>
 </g>
 <defs>
  <clipPath id="pa9d843a12d">
   <rect x="46.965625" y="7.2" width="357.12" height="266.112"/>
  </clipPath>
 </defs>
</svg>
