<?xml version="1.0" encoding="utf-8" standalone="no"?>
<!DOCTYPE svg PUBLIC "-//W3C//DTD SVG 1.1//EN"
  "http://www.w3.org/Graphics/SVG/1.1/DTD/svg11.dtd">
<svg xmlns:xlink="http://www.w3.org/1999/xlink" width="404.923125pt" height="310.86825pt" viewBox="0 0 404.923125 310.86825" xmlns="http://www.w3.org/2000/svg" version="1.1">
 <metadata>
  <rdf:RDF xmlns:dc="http://purl.org/dc/elements/1.1/" xmlns:cc="http://creativecommons.org/ns#" xmlns:rdf="http://www.w3.org/1999/02/22-rdf-syntax-ns#">
   <cc:Work>
    <dc:type rdf:resource="http://purl.org/dc/dcmitype/StillImage"/>
    <dc:date>2023-06-21T20:09:37.359233</dc:date>
    <dc:format>image/svg+xml</dc:format>
    <dc:creator>
     <cc:Agent>
      <dc:title>Matplotlib v3.7.1, https://matplotlib.org/</dc:title>
     </cc:Agent>
    </dc:creator>
   </cc:Work>
  </rdf:RDF>
 </metadata>
 <defs>
  <style type="text/css">*{stroke-linejoin: round; stroke-linecap: butt}</style>
 </defs>
 <g id="figure_1">
  <g id="patch_1">
   <path d="M 0 310.86825 
L 404.923125 310.86825 
L 404.923125 0 
L 0 0 
z
" style="fill: #ffffff"/>
  </g>
  <g id="axes_1">
   <g id="patch_2">
    <path d="M 40.603125 273.312 
L 397.723125 273.312 
L 397.723125 7.2 
L 40.603125 7.2 
z
" style="fill: #ffffff"/>
   </g>
   <g id="matplotlib.axis_1">
    <g id="xtick_1">
     <g id="line2d_1">
      <defs>
       <path id="mda05728b4b" d="M 0 0 
L 0 3.5 
" style="stroke: #000000; stroke-width: 0.8"/>
      </defs>
      <g>
       <use xlink:href="#mda05728b4b" x="50.210249" y="273.312" style="stroke: #000000; stroke-width: 0.8"/>
      </g>
     </g>
     <g id="text_1">
      <!-- 0 -->
      <g transform="translate(47.028999 287.910437) scale(0.1 -0.1)">
       <defs>
        <path id="DejaVuSans-30" d="M 2034 4250 
Q 1547 4250 1301 3770 
Q 1056 3291 1056 2328 
Q 1056 1369 1301 889 
Q 1547 409 2034 409 
Q 2525 409 2770 889 
Q 3016 1369 3016 2328 
Q 3016 3291 2770 3770 
Q 2525 4250 2034 4250 
z
M 2034 4750 
Q 2819 4750 3233 4129 
Q 3647 3509 3647 2328 
Q 3647 1150 3233 529 
Q 2819 -91 2034 -91 
Q 1250 -91 836 529 
Q 422 1150 422 2328 
Q 422 3509 836 4129 
Q 1250 4750 2034 4750 
z
" transform="scale(0.015625)"/>
       </defs>
       <use xlink:href="#DejaVuSans-30"/>
      </g>
     </g>
    </g>
    <g id="xtick_2">
     <g id="line2d_2">
      <g>
       <use xlink:href="#mda05728b4b" x="116.466279" y="273.312" style="stroke: #000000; stroke-width: 0.8"/>
      </g>
     </g>
     <g id="text_2">
      <!-- 10 -->
      <g transform="translate(110.103779 287.910437) scale(0.1 -0.1)">
       <defs>
        <path id="DejaVuSans-31" d="M 794 531 
L 1825 531 
L 1825 4091 
L 703 3866 
L 703 4441 
L 1819 4666 
L 2450 4666 
L 2450 531 
L 3481 531 
L 3481 0 
L 794 0 
L 794 531 
z
" transform="scale(0.015625)"/>
       </defs>
       <use xlink:href="#DejaVuSans-31"/>
       <use xlink:href="#DejaVuSans-30" x="63.623047"/>
      </g>
     </g>
    </g>
    <g id="xtick_3">
     <g id="line2d_3">
      <g>
       <use xlink:href="#mda05728b4b" x="182.722309" y="273.312" style="stroke: #000000; stroke-width: 0.8"/>
      </g>
     </g>
     <g id="text_3">
      <!-- 20 -->
      <g transform="translate(176.359809 287.910437) scale(0.1 -0.1)">
       <defs>
        <path id="DejaVuSans-32" d="M 1228 531 
L 3431 531 
L 3431 0 
L 469 0 
L 469 531 
Q 828 903 1448 1529 
Q 2069 2156 2228 2338 
Q 2531 2678 2651 2914 
Q 2772 3150 2772 3378 
Q 2772 3750 2511 3984 
Q 2250 4219 1831 4219 
Q 1534 4219 1204 4116 
Q 875 4013 500 3803 
L 500 4441 
Q 881 4594 1212 4672 
Q 1544 4750 1819 4750 
Q 2544 4750 2975 4387 
Q 3406 4025 3406 3419 
Q 3406 3131 3298 2873 
Q 3191 2616 2906 2266 
Q 2828 2175 2409 1742 
Q 1991 1309 1228 531 
z
" transform="scale(0.015625)"/>
       </defs>
       <use xlink:href="#DejaVuSans-32"/>
       <use xlink:href="#DejaVuSans-30" x="63.623047"/>
      </g>
     </g>
    </g>
    <g id="xtick_4">
     <g id="line2d_4">
      <g>
       <use xlink:href="#mda05728b4b" x="248.978338" y="273.312" style="stroke: #000000; stroke-width: 0.8"/>
      </g>
     </g>
     <g id="text_4">
      <!-- 30 -->
      <g transform="translate(242.615838 287.910437) scale(0.1 -0.1)">
       <defs>
        <path id="DejaVuSans-33" d="M 2597 2516 
Q 3050 2419 3304 2112 
Q 3559 1806 3559 1356 
Q 3559 666 3084 287 
Q 2609 -91 1734 -91 
Q 1441 -91 1130 -33 
Q 819 25 488 141 
L 488 750 
Q 750 597 1062 519 
Q 1375 441 1716 441 
Q 2309 441 2620 675 
Q 2931 909 2931 1356 
Q 2931 1769 2642 2001 
Q 2353 2234 1838 2234 
L 1294 2234 
L 1294 2753 
L 1863 2753 
Q 2328 2753 2575 2939 
Q 2822 3125 2822 3475 
Q 2822 3834 2567 4026 
Q 2313 4219 1838 4219 
Q 1578 4219 1281 4162 
Q 984 4106 628 3988 
L 628 4550 
Q 988 4650 1302 4700 
Q 1616 4750 1894 4750 
Q 2613 4750 3031 4423 
Q 3450 4097 3450 3541 
Q 3450 3153 3228 2886 
Q 3006 2619 2597 2516 
z
" transform="scale(0.015625)"/>
       </defs>
       <use xlink:href="#DejaVuSans-33"/>
       <use xlink:href="#DejaVuSans-30" x="63.623047"/>
      </g>
     </g>
    </g>
    <g id="xtick_5">
     <g id="line2d_5">
      <g>
       <use xlink:href="#mda05728b4b" x="315.234368" y="273.312" style="stroke: #000000; stroke-width: 0.8"/>
      </g>
     </g>
     <g id="text_5">
      <!-- 40 -->
      <g transform="translate(308.871868 287.910437) scale(0.1 -0.1)">
       <defs>
        <path id="DejaVuSans-34" d="M 2419 4116 
L 825 1625 
L 2419 1625 
L 2419 4116 
z
M 2253 4666 
L 3047 4666 
L 3047 1625 
L 3713 1625 
L 3713 1100 
L 3047 1100 
L 3047 0 
L 2419 0 
L 2419 1100 
L 313 1100 
L 313 1709 
L 2253 4666 
z
" transform="scale(0.015625)"/>
       </defs>
       <use xlink:href="#DejaVuSans-34"/>
       <use xlink:href="#DejaVuSans-30" x="63.623047"/>
      </g>
     </g>
    </g>
    <g id="xtick_6">
     <g id="line2d_6">
      <g>
       <use xlink:href="#mda05728b4b" x="381.490398" y="273.312" style="stroke: #000000; stroke-width: 0.8"/>
      </g>
     </g>
     <g id="text_6">
      <!-- 50 -->
      <g transform="translate(375.127898 287.910437) scale(0.1 -0.1)">
       <defs>
        <path id="DejaVuSans-35" d="M 691 4666 
L 3169 4666 
L 3169 4134 
L 1269 4134 
L 1269 2991 
Q 1406 3038 1543 3061 
Q 1681 3084 1819 3084 
Q 2600 3084 3056 2656 
Q 3513 2228 3513 1497 
Q 3513 744 3044 326 
Q 2575 -91 1722 -91 
Q 1428 -91 1123 -41 
Q 819 9 494 109 
L 494 744 
Q 775 591 1075 516 
Q 1375 441 1709 441 
Q 2250 441 2565 725 
Q 2881 1009 2881 1497 
Q 2881 1984 2565 2268 
Q 2250 2553 1709 2553 
Q 1456 2553 1204 2497 
Q 953 2441 691 2322 
L 691 4666 
z
" transform="scale(0.015625)"/>
       </defs>
       <use xlink:href="#DejaVuSans-35"/>
       <use xlink:href="#DejaVuSans-30" x="63.623047"/>
      </g>
     </g>
    </g>
    <g id="text_7">
     <!-- Epoch -->
     <g transform="translate(203.852188 301.588562) scale(0.1 -0.1)">
      <defs>
       <path id="DejaVuSans-45" d="M 628 4666 
L 3578 4666 
L 3578 4134 
L 1259 4134 
L 1259 2753 
L 3481 2753 
L 3481 2222 
L 1259 2222 
L 1259 531 
L 3634 531 
L 3634 0 
L 628 0 
L 628 4666 
z
" transform="scale(0.015625)"/>
       <path id="DejaVuSans-70" d="M 1159 525 
L 1159 -1331 
L 581 -1331 
L 581 3500 
L 1159 3500 
L 1159 2969 
Q 1341 3281 1617 3432 
Q 1894 3584 2278 3584 
Q 2916 3584 3314 3078 
Q 3713 2572 3713 1747 
Q 3713 922 3314 415 
Q 2916 -91 2278 -91 
Q 1894 -91 1617 61 
Q 1341 213 1159 525 
z
M 3116 1747 
Q 3116 2381 2855 2742 
Q 2594 3103 2138 3103 
Q 1681 3103 1420 2742 
Q 1159 2381 1159 1747 
Q 1159 1113 1420 752 
Q 1681 391 2138 391 
Q 2594 391 2855 752 
Q 3116 1113 3116 1747 
z
" transform="scale(0.015625)"/>
       <path id="DejaVuSans-6f" d="M 1959 3097 
Q 1497 3097 1228 2736 
Q 959 2375 959 1747 
Q 959 1119 1226 758 
Q 1494 397 1959 397 
Q 2419 397 2687 759 
Q 2956 1122 2956 1747 
Q 2956 2369 2687 2733 
Q 2419 3097 1959 3097 
z
M 1959 3584 
Q 2709 3584 3137 3096 
Q 3566 2609 3566 1747 
Q 3566 888 3137 398 
Q 2709 -91 1959 -91 
Q 1206 -91 779 398 
Q 353 888 353 1747 
Q 353 2609 779 3096 
Q 1206 3584 1959 3584 
z
" transform="scale(0.015625)"/>
       <path id="DejaVuSans-63" d="M 3122 3366 
L 3122 2828 
Q 2878 2963 2633 3030 
Q 2388 3097 2138 3097 
Q 1578 3097 1268 2742 
Q 959 2388 959 1747 
Q 959 1106 1268 751 
Q 1578 397 2138 397 
Q 2388 397 2633 464 
Q 2878 531 3122 666 
L 3122 134 
Q 2881 22 2623 -34 
Q 2366 -91 2075 -91 
Q 1284 -91 818 406 
Q 353 903 353 1747 
Q 353 2603 823 3093 
Q 1294 3584 2113 3584 
Q 2378 3584 2631 3529 
Q 2884 3475 3122 3366 
z
" transform="scale(0.015625)"/>
       <path id="DejaVuSans-68" d="M 3513 2113 
L 3513 0 
L 2938 0 
L 2938 2094 
Q 2938 2591 2744 2837 
Q 2550 3084 2163 3084 
Q 1697 3084 1428 2787 
Q 1159 2491 1159 1978 
L 1159 0 
L 581 0 
L 581 4863 
L 1159 4863 
L 1159 2956 
Q 1366 3272 1645 3428 
Q 1925 3584 2291 3584 
Q 2894 3584 3203 3211 
Q 3513 2838 3513 2113 
z
" transform="scale(0.015625)"/>
      </defs>
      <use xlink:href="#DejaVuSans-45"/>
      <use xlink:href="#DejaVuSans-70" x="63.183594"/>
      <use xlink:href="#DejaVuSans-6f" x="126.660156"/>
      <use xlink:href="#DejaVuSans-63" x="187.841797"/>
      <use xlink:href="#DejaVuSans-68" x="242.822266"/>
     </g>
    </g>
   </g>
   <g id="matplotlib.axis_2">
    <g id="ytick_1">
     <g id="line2d_7">
      <defs>
       <path id="m77f1140b1a" d="M 0 0 
L -3.5 0 
" style="stroke: #000000; stroke-width: 0.8"/>
      </defs>
      <g>
       <use xlink:href="#m77f1140b1a" x="40.603125" y="261.949563" style="stroke: #000000; stroke-width: 0.8"/>
      </g>
     </g>
     <g id="text_8">
      <!-- 0 -->
      <g transform="translate(27.240625 265.748782) scale(0.1 -0.1)">
       <use xlink:href="#DejaVuSans-30"/>
      </g>
     </g>
    </g>
    <g id="ytick_2">
     <g id="line2d_8">
      <g>
       <use xlink:href="#m77f1140b1a" x="40.603125" y="227.463871" style="stroke: #000000; stroke-width: 0.8"/>
      </g>
     </g>
     <g id="text_9">
      <!-- 10 -->
      <g transform="translate(20.878125 231.26309) scale(0.1 -0.1)">
       <use xlink:href="#DejaVuSans-31"/>
       <use xlink:href="#DejaVuSans-30" x="63.623047"/>
      </g>
     </g>
    </g>
    <g id="ytick_3">
     <g id="line2d_9">
      <g>
       <use xlink:href="#m77f1140b1a" x="40.603125" y="192.978179" style="stroke: #000000; stroke-width: 0.8"/>
      </g>
     </g>
     <g id="text_10">
      <!-- 20 -->
      <g transform="translate(20.878125 196.777398) scale(0.1 -0.1)">
       <use xlink:href="#DejaVuSans-32"/>
       <use xlink:href="#DejaVuSans-30" x="63.623047"/>
      </g>
     </g>
    </g>
    <g id="ytick_4">
     <g id="line2d_10">
      <g>
       <use xlink:href="#m77f1140b1a" x="40.603125" y="158.492487" style="stroke: #000000; stroke-width: 0.8"/>
      </g>
     </g>
     <g id="text_11">
      <!-- 30 -->
      <g transform="translate(20.878125 162.291706) scale(0.1 -0.1)">
       <use xlink:href="#DejaVuSans-33"/>
       <use xlink:href="#DejaVuSans-30" x="63.623047"/>
      </g>
     </g>
    </g>
    <g id="ytick_5">
     <g id="line2d_11">
      <g>
       <use xlink:href="#m77f1140b1a" x="40.603125" y="124.006795" style="stroke: #000000; stroke-width: 0.8"/>
      </g>
     </g>
     <g id="text_12">
      <!-- 40 -->
      <g transform="translate(20.878125 127.806014) scale(0.1 -0.1)">
       <use xlink:href="#DejaVuSans-34"/>
       <use xlink:href="#DejaVuSans-30" x="63.623047"/>
      </g>
     </g>
    </g>
    <g id="ytick_6">
     <g id="line2d_12">
      <g>
       <use xlink:href="#m77f1140b1a" x="40.603125" y="89.521103" style="stroke: #000000; stroke-width: 0.8"/>
      </g>
     </g>
     <g id="text_13">
      <!-- 50 -->
      <g transform="translate(20.878125 93.320322) scale(0.1 -0.1)">
       <use xlink:href="#DejaVuSans-35"/>
       <use xlink:href="#DejaVuSans-30" x="63.623047"/>
      </g>
     </g>
    </g>
    <g id="ytick_7">
     <g id="line2d_13">
      <g>
       <use xlink:href="#m77f1140b1a" x="40.603125" y="55.035411" style="stroke: #000000; stroke-width: 0.8"/>
      </g>
     </g>
     <g id="text_14">
      <!-- 60 -->
      <g transform="translate(20.878125 58.83463) scale(0.1 -0.1)">
       <defs>
        <path id="DejaVuSans-36" d="M 2113 2584 
Q 1688 2584 1439 2293 
Q 1191 2003 1191 1497 
Q 1191 994 1439 701 
Q 1688 409 2113 409 
Q 2538 409 2786 701 
Q 3034 994 3034 1497 
Q 3034 2003 2786 2293 
Q 2538 2584 2113 2584 
z
M 3366 4563 
L 3366 3988 
Q 3128 4100 2886 4159 
Q 2644 4219 2406 4219 
Q 1781 4219 1451 3797 
Q 1122 3375 1075 2522 
Q 1259 2794 1537 2939 
Q 1816 3084 2150 3084 
Q 2853 3084 3261 2657 
Q 3669 2231 3669 1497 
Q 3669 778 3244 343 
Q 2819 -91 2113 -91 
Q 1303 -91 875 529 
Q 447 1150 447 2328 
Q 447 3434 972 4092 
Q 1497 4750 2381 4750 
Q 2619 4750 2861 4703 
Q 3103 4656 3366 4563 
z
" transform="scale(0.015625)"/>
       </defs>
       <use xlink:href="#DejaVuSans-36"/>
       <use xlink:href="#DejaVuSans-30" x="63.623047"/>
      </g>
     </g>
    </g>
    <g id="ytick_8">
     <g id="line2d_14">
      <g>
       <use xlink:href="#m77f1140b1a" x="40.603125" y="20.549719" style="stroke: #000000; stroke-width: 0.8"/>
      </g>
     </g>
     <g id="text_15">
      <!-- 70 -->
      <g transform="translate(20.878125 24.348937) scale(0.1 -0.1)">
       <defs>
        <path id="DejaVuSans-37" d="M 525 4666 
L 3525 4666 
L 3525 4397 
L 1831 0 
L 1172 0 
L 2766 4134 
L 525 4134 
L 525 4666 
z
" transform="scale(0.015625)"/>
       </defs>
       <use xlink:href="#DejaVuSans-37"/>
       <use xlink:href="#DejaVuSans-30" x="63.623047"/>
      </g>
     </g>
    </g>
    <g id="text_16">
     <!-- Training Loss -->
     <g transform="translate(14.798438 172.538031) rotate(-90) scale(0.1 -0.1)">
      <defs>
       <path id="DejaVuSans-54" d="M -19 4666 
L 3928 4666 
L 3928 4134 
L 2272 4134 
L 2272 0 
L 1638 0 
L 1638 4134 
L -19 4134 
L -19 4666 
z
" transform="scale(0.015625)"/>
       <path id="DejaVuSans-72" d="M 2631 2963 
Q 2534 3019 2420 3045 
Q 2306 3072 2169 3072 
Q 1681 3072 1420 2755 
Q 1159 2438 1159 1844 
L 1159 0 
L 581 0 
L 581 3500 
L 1159 3500 
L 1159 2956 
Q 1341 3275 1631 3429 
Q 1922 3584 2338 3584 
Q 2397 3584 2469 3576 
Q 2541 3569 2628 3553 
L 2631 2963 
z
" transform="scale(0.015625)"/>
       <path id="DejaVuSans-61" d="M 2194 1759 
Q 1497 1759 1228 1600 
Q 959 1441 959 1056 
Q 959 750 1161 570 
Q 1363 391 1709 391 
Q 2188 391 2477 730 
Q 2766 1069 2766 1631 
L 2766 1759 
L 2194 1759 
z
M 3341 1997 
L 3341 0 
L 2766 0 
L 2766 531 
Q 2569 213 2275 61 
Q 1981 -91 1556 -91 
Q 1019 -91 701 211 
Q 384 513 384 1019 
Q 384 1609 779 1909 
Q 1175 2209 1959 2209 
L 2766 2209 
L 2766 2266 
Q 2766 2663 2505 2880 
Q 2244 3097 1772 3097 
Q 1472 3097 1187 3025 
Q 903 2953 641 2809 
L 641 3341 
Q 956 3463 1253 3523 
Q 1550 3584 1831 3584 
Q 2591 3584 2966 3190 
Q 3341 2797 3341 1997 
z
" transform="scale(0.015625)"/>
       <path id="DejaVuSans-69" d="M 603 3500 
L 1178 3500 
L 1178 0 
L 603 0 
L 603 3500 
z
M 603 4863 
L 1178 4863 
L 1178 4134 
L 603 4134 
L 603 4863 
z
" transform="scale(0.015625)"/>
       <path id="DejaVuSans-6e" d="M 3513 2113 
L 3513 0 
L 2938 0 
L 2938 2094 
Q 2938 2591 2744 2837 
Q 2550 3084 2163 3084 
Q 1697 3084 1428 2787 
Q 1159 2491 1159 1978 
L 1159 0 
L 581 0 
L 581 3500 
L 1159 3500 
L 1159 2956 
Q 1366 3272 1645 3428 
Q 1925 3584 2291 3584 
Q 2894 3584 3203 3211 
Q 3513 2838 3513 2113 
z
" transform="scale(0.015625)"/>
       <path id="DejaVuSans-67" d="M 2906 1791 
Q 2906 2416 2648 2759 
Q 2391 3103 1925 3103 
Q 1463 3103 1205 2759 
Q 947 2416 947 1791 
Q 947 1169 1205 825 
Q 1463 481 1925 481 
Q 2391 481 2648 825 
Q 2906 1169 2906 1791 
z
M 3481 434 
Q 3481 -459 3084 -895 
Q 2688 -1331 1869 -1331 
Q 1566 -1331 1297 -1286 
Q 1028 -1241 775 -1147 
L 775 -588 
Q 1028 -725 1275 -790 
Q 1522 -856 1778 -856 
Q 2344 -856 2625 -561 
Q 2906 -266 2906 331 
L 2906 616 
Q 2728 306 2450 153 
Q 2172 0 1784 0 
Q 1141 0 747 490 
Q 353 981 353 1791 
Q 353 2603 747 3093 
Q 1141 3584 1784 3584 
Q 2172 3584 2450 3431 
Q 2728 3278 2906 2969 
L 2906 3500 
L 3481 3500 
L 3481 434 
z
" transform="scale(0.015625)"/>
       <path id="DejaVuSans-20" transform="scale(0.015625)"/>
       <path id="DejaVuSans-4c" d="M 628 4666 
L 1259 4666 
L 1259 531 
L 3531 531 
L 3531 0 
L 628 0 
L 628 4666 
z
" transform="scale(0.015625)"/>
       <path id="DejaVuSans-73" d="M 2834 3397 
L 2834 2853 
Q 2591 2978 2328 3040 
Q 2066 3103 1784 3103 
Q 1356 3103 1142 2972 
Q 928 2841 928 2578 
Q 928 2378 1081 2264 
Q 1234 2150 1697 2047 
L 1894 2003 
Q 2506 1872 2764 1633 
Q 3022 1394 3022 966 
Q 3022 478 2636 193 
Q 2250 -91 1575 -91 
Q 1294 -91 989 -36 
Q 684 19 347 128 
L 347 722 
Q 666 556 975 473 
Q 1284 391 1588 391 
Q 1994 391 2212 530 
Q 2431 669 2431 922 
Q 2431 1156 2273 1281 
Q 2116 1406 1581 1522 
L 1381 1569 
Q 847 1681 609 1914 
Q 372 2147 372 2553 
Q 372 3047 722 3315 
Q 1072 3584 1716 3584 
Q 2034 3584 2315 3537 
Q 2597 3491 2834 3397 
z
" transform="scale(0.015625)"/>
      </defs>
      <use xlink:href="#DejaVuSans-54"/>
      <use xlink:href="#DejaVuSans-72" x="46.333984"/>
      <use xlink:href="#DejaVuSans-61" x="87.447266"/>
      <use xlink:href="#DejaVuSans-69" x="148.726562"/>
      <use xlink:href="#DejaVuSans-6e" x="176.509766"/>
      <use xlink:href="#DejaVuSans-69" x="239.888672"/>
      <use xlink:href="#DejaVuSans-6e" x="267.671875"/>
      <use xlink:href="#DejaVuSans-67" x="331.050781"/>
      <use xlink:href="#DejaVuSans-20" x="394.527344"/>
      <use xlink:href="#DejaVuSans-4c" x="426.314453"/>
      <use xlink:href="#DejaVuSans-6f" x="480.277344"/>
      <use xlink:href="#DejaVuSans-73" x="541.458984"/>
      <use xlink:href="#DejaVuSans-73" x="593.558594"/>
     </g>
    </g>
   </g>
   <g id="line2d_15">
    <path d="M 56.835852 19.296 
L 63.461455 22.218316 
L 70.087058 23.86179 
L 76.712661 30.382832 
L 83.338264 45.495378 
L 89.963867 83.932042 
L 96.58947 116.913402 
L 103.215073 135.88908 
L 109.840676 148.738557 
L 116.466279 160.226131 
L 123.091882 169.0228 
L 129.717485 175.764173 
L 136.343088 181.381682 
L 142.968691 186.205658 
L 149.594294 190.435808 
L 156.219897 194.244951 
L 162.8455 197.861855 
L 169.471103 201.319194 
L 176.096706 204.151389 
L 182.722309 207.205402 
L 189.347912 209.58959 
L 195.973515 211.835261 
L 202.599118 213.492928 
L 209.224721 215.769294 
L 215.850324 217.556636 
L 222.475926 219.159554 
L 229.101529 221.096511 
L 235.727132 222.516826 
L 242.352735 223.952585 
L 248.978338 225.526039 
L 255.603941 226.853959 
L 262.229544 228.188136 
L 268.855147 228.970519 
L 275.48075 230.503244 
L 282.106353 231.573573 
L 288.731956 232.313218 
L 295.357559 233.070752 
L 301.983162 233.961343 
L 308.608765 235.369621 
L 315.234368 236.535862 
L 321.859971 237.373577 
L 328.485574 238.215397 
L 335.111177 236.48625 
L 341.73678 239.823665 
L 348.362383 240.089607 
L 354.987986 241.553624 
L 361.613589 242.108268 
L 368.239192 242.527452 
L 374.864795 243.580183 
L 381.490398 244.149876 
" clip-path="url(#pe5180b8cc7)" style="fill: none; stroke: #7fc97f; stroke-width: 1.5; stroke-linecap: square"/>
   </g>
   <g id="line2d_16">
    <path d="M 56.835852 19.706961 
L 63.461455 22.522116 
L 70.087058 24.904772 
L 76.712661 29.653609 
L 83.338264 36.869805 
L 89.963867 59.847286 
L 96.58947 96.470532 
L 103.215073 140.044761 
L 109.840676 166.897238 
L 116.466279 180.526923 
L 123.091882 189.872851 
L 129.717485 196.165429 
L 136.343088 201.604492 
L 142.968691 205.893378 
L 149.594294 209.677929 
L 156.219897 213.051337 
L 162.8455 214.996234 
L 169.471103 218.365836 
L 176.096706 221.466031 
L 182.722309 223.693787 
L 189.347912 225.915395 
L 195.973515 227.892925 
L 202.599118 229.413576 
L 209.224721 231.372783 
L 215.850324 232.633068 
L 222.475926 233.676886 
L 229.101529 235.48726 
L 235.727132 236.633275 
L 242.352735 238.337356 
L 248.978338 239.02943 
L 255.603941 240.846411 
L 262.229544 241.645114 
L 268.855147 243.055521 
L 275.48075 243.694878 
L 282.106353 244.798064 
L 288.731956 245.481374 
L 295.357559 246.755352 
L 301.983162 247.043543 
L 308.608765 247.713872 
L 315.234368 248.594536 
L 321.859971 249.205537 
L 328.485574 249.848371 
L 335.111177 250.235383 
L 341.73678 250.855984 
L 348.362383 251.004424 
L 354.987986 252.066763 
L 361.613589 252.170468 
L 368.239192 252.617578 
L 374.864795 253.019243 
L 381.490398 253.690784 
" clip-path="url(#pe5180b8cc7)" style="fill: none; stroke: #beaed4; stroke-width: 1.5; stroke-linecap: square"/>
   </g>
   <g id="line2d_17">
    <path d="M 56.835852 19.614484 
L 63.461455 22.257132 
L 70.087058 26.467526 
L 76.712661 40.357557 
L 83.338264 81.760801 
L 89.963867 139.964265 
L 96.58947 175.259302 
L 103.215073 192.094648 
L 109.840676 202.801162 
L 116.466279 209.94534 
L 123.091882 216.047324 
L 129.717485 220.550865 
L 136.343088 224.654572 
L 142.968691 227.664304 
L 149.594294 230.819333 
L 156.219897 232.860445 
L 162.8455 235.856613 
L 169.471103 237.720162 
L 176.096706 239.85009 
L 182.722309 241.621979 
L 189.347912 243.622404 
L 195.973515 245.24105 
L 202.599118 246.803116 
L 209.224721 248.018205 
L 215.850324 249.305438 
L 222.475926 250.107289 
L 229.101529 250.628107 
L 235.727132 252.16298 
L 242.352735 252.861896 
L 248.978338 253.676331 
L 255.603941 254.109736 
L 262.229544 254.679988 
L 268.855147 255.26581 
L 275.48075 255.684726 
L 282.106353 256.128419 
L 288.731956 256.157866 
L 295.357559 256.693281 
L 301.983162 256.587973 
L 308.608765 257.368453 
L 315.234368 257.429258 
L 321.859971 255.388501 
L 328.485574 257.894905 
L 335.111177 257.722911 
L 341.73678 258.191391 
L 348.362383 258.405865 
L 354.987986 258.545951 
L 361.613589 258.601538 
L 368.239192 258.684944 
L 374.864795 258.86024 
L 381.490398 258.84608 
" clip-path="url(#pe5180b8cc7)" style="fill: none; stroke: #fdc086; stroke-width: 1.5; stroke-linecap: square"/>
   </g>
   <g id="line2d_18">
    <path d="M 56.835852 19.444629 
L 63.461455 23.929202 
L 70.087058 29.643225 
L 76.712661 44.574393 
L 83.338264 76.646947 
L 89.963867 123.295714 
L 96.58947 156.229189 
L 103.215073 175.807579 
L 109.840676 190.351326 
L 116.466279 201.958028 
L 123.091882 211.081373 
L 129.717485 218.426455 
L 136.343088 225.765501 
L 142.968691 232.445335 
L 149.594294 237.258115 
L 156.219897 241.021361 
L 162.8455 243.81119 
L 169.471103 246.11029 
L 176.096706 247.987175 
L 182.722309 249.447289 
L 189.347912 250.679853 
L 195.973515 251.695748 
L 202.599118 252.596528 
L 209.224721 253.334004 
L 215.850324 254.172816 
L 222.475926 254.702909 
L 229.101529 255.396334 
L 235.727132 256.032016 
L 242.352735 256.539459 
L 248.978338 256.597181 
L 255.603941 257.275605 
L 262.229544 257.353341 
L 268.855147 257.899399 
L 275.48075 257.963964 
L 282.106353 258.32764 
L 288.731956 258.363033 
L 295.357559 258.70862 
L 301.983162 258.763164 
L 308.608765 258.992803 
L 315.234368 259.275065 
L 321.859971 259.393876 
L 328.485574 259.397547 
L 335.111177 259.505168 
L 341.73678 259.788944 
L 348.362383 259.784942 
L 354.987986 259.951004 
L 361.613589 259.919531 
L 368.239192 259.960897 
L 374.864795 260.094183 
L 381.490398 260.234421 
" clip-path="url(#pe5180b8cc7)" style="fill: none; stroke: #386cb0; stroke-width: 1.5; stroke-linecap: square"/>
   </g>
   <g id="line2d_19">
    <path d="M 56.835852 20.156096 
L 63.461455 22.140438 
L 70.087058 23.826001 
L 76.712661 28.668311 
L 83.338264 43.029275 
L 89.963867 85.104358 
L 96.58947 128.957506 
L 103.215073 158.126444 
L 109.840676 179.745955 
L 116.466279 197.908605 
L 123.091882 212.954985 
L 129.717485 225.397196 
L 136.343088 234.61685 
L 142.968691 240.140247 
L 149.594294 243.608452 
L 156.219897 246.316991 
L 162.8455 248.324002 
L 169.471103 249.693509 
L 176.096706 251.263366 
L 182.722309 252.226846 
L 189.347912 253.228373 
L 195.973515 253.965355 
L 202.599118 254.606362 
L 209.224721 255.021074 
L 215.850324 255.52003 
L 222.475926 256.019727 
L 229.101529 256.490923 
L 235.727132 256.758546 
L 242.352735 257.363098 
L 248.978338 257.653897 
L 255.603941 257.488179 
L 262.229544 258.044125 
L 268.855147 258.420012 
L 275.48075 258.423493 
L 282.106353 255.684782 
L 288.731956 258.803533 
L 295.357559 259.059286 
L 301.983162 259.149144 
L 308.608765 259.302871 
L 315.234368 259.53213 
L 321.859971 259.567526 
L 328.485574 259.675644 
L 335.111177 259.820208 
L 341.73678 259.737891 
L 348.362383 259.656794 
L 354.987986 259.279047 
L 361.613589 259.8054 
L 368.239192 260.212854 
L 374.864795 259.388742 
L 381.490398 260.310509 
" clip-path="url(#pe5180b8cc7)" style="fill: none; stroke: #f0027f; stroke-width: 1.5; stroke-linecap: square"/>
   </g>
   <g id="line2d_20">
    <path d="M 56.835852 19.728079 
L 63.461455 22.789297 
L 70.087058 26.152014 
L 76.712661 33.242211 
L 83.338264 54.282001 
L 89.963867 96.848746 
L 96.58947 147.716585 
L 103.215073 177.349532 
L 109.840676 195.137712 
L 116.466279 209.34904 
L 123.091882 219.944902 
L 129.717485 227.614143 
L 136.343088 233.843825 
L 142.968691 239.34893 
L 149.594294 243.935472 
L 156.219897 247.222865 
L 162.8455 249.637156 
L 169.471103 250.921107 
L 176.096706 252.592434 
L 182.722309 253.192346 
L 189.347912 254.682103 
L 195.973515 255.463013 
L 202.599118 256.011774 
L 209.224721 256.528912 
L 215.850324 256.964018 
L 222.475926 257.410758 
L 229.101529 257.619093 
L 235.727132 258.055121 
L 242.352735 258.417536 
L 248.978338 258.536597 
L 255.603941 256.692759 
L 262.229544 258.850665 
L 268.855147 259.204125 
L 275.48075 259.184752 
L 282.106353 259.657954 
L 288.731956 259.474269 
L 295.357559 259.461735 
L 301.983162 259.928483 
L 308.608765 260.112189 
L 315.234368 260.145261 
L 321.859971 260.240886 
L 328.485574 260.436349 
L 335.111177 260.317444 
L 341.73678 260.44649 
L 348.362383 260.531835 
L 354.987986 260.748746 
L 361.613589 260.736448 
L 368.239192 260.767728 
L 374.864795 260.874974 
L 381.490398 260.042573 
" clip-path="url(#pe5180b8cc7)" style="fill: none; stroke: #bf5b17; stroke-width: 1.5; stroke-linecap: square"/>
   </g>
   <g id="line2d_21">
    <path d="M 56.835852 20.453025 
L 63.461455 23.567637 
L 70.087058 30.177226 
L 76.712661 52.466387 
L 83.338264 103.62299 
L 89.963867 158.210792 
L 96.58947 180.93792 
L 103.215073 200.53864 
L 109.840676 214.281131 
L 116.466279 225.045616 
L 123.091882 233.07089 
L 129.717485 239.136261 
L 136.343088 243.578274 
L 142.968691 246.943143 
L 149.594294 249.148923 
L 156.219897 251.071953 
L 162.8455 252.702707 
L 169.471103 253.822832 
L 176.096706 254.925572 
L 182.722309 255.45692 
L 189.347912 256.279929 
L 195.973515 256.967715 
L 202.599118 257.348963 
L 209.224721 257.948278 
L 215.850324 258.298894 
L 222.475926 258.651234 
L 229.101529 258.917617 
L 235.727132 258.941768 
L 242.352735 259.271745 
L 248.978338 259.394175 
L 255.603941 259.700343 
L 262.229544 259.663325 
L 268.855147 260.13871 
L 275.48075 260.119288 
L 282.106353 260.338761 
L 288.731956 260.329091 
L 295.357559 260.282086 
L 301.983162 260.322754 
L 308.608765 260.697931 
L 315.234368 260.724612 
L 321.859971 260.588916 
L 328.485574 260.745038 
L 335.111177 260.727073 
L 341.73678 260.983591 
L 348.362383 260.44192 
L 354.987986 261.070771 
L 361.613589 261.142202 
L 368.239192 261.169251 
L 374.864795 261.200127 
L 381.490398 261.216 
" clip-path="url(#pe5180b8cc7)" style="fill: none; stroke: #666666; stroke-width: 1.5; stroke-linecap: square"/>
   </g>
   <g id="patch_3">
    <path d="M 40.603125 273.312 
L 40.603125 7.2 
" style="fill: none; stroke: #000000; stroke-width: 0.8; stroke-linejoin: miter; stroke-linecap: square"/>
   </g>
   <g id="patch_4">
    <path d="M 397.723125 273.312 
L 397.723125 7.2 
" style="fill: none; stroke: #000000; stroke-width: 0.8; stroke-linejoin: miter; stroke-linecap: square"/>
   </g>
   <g id="patch_5">
    <path d="M 40.603125 273.312 
L 397.723125 273.312 
" style="fill: none; stroke: #000000; stroke-width: 0.8; stroke-linejoin: miter; stroke-linecap: square"/>
   </g>
   <g id="patch_6">
    <path d="M 40.603125 7.2 
L 397.723125 7.2 
" style="fill: none; stroke: #000000; stroke-width: 0.8; stroke-linejoin: miter; stroke-linecap: square"/>
   </g>
   <g id="legend_1">
    <g id="patch_7">
     <path d="M 327.723125 117.946875 
L 390.723125 117.946875 
Q 392.723125 117.946875 392.723125 115.946875 
L 392.723125 14.2 
Q 392.723125 12.2 390.723125 12.2 
L 327.723125 12.2 
Q 325.723125 12.2 325.723125 14.2 
L 325.723125 115.946875 
Q 325.723125 117.946875 327.723125 117.946875 
z
" style="fill: #ffffff; opacity: 0.8; stroke: #cccccc; stroke-linejoin: miter"/>
    </g>
    <g id="line2d_22">
     <path d="M 329.723125 20.298437 
L 339.723125 20.298437 
L 349.723125 20.298437 
" style="fill: none; stroke: #7fc97f; stroke-width: 1.5; stroke-linecap: square"/>
    </g>
    <g id="text_17">
     <!-- $v=20$ -->
     <g transform="translate(357.723125 23.798437) scale(0.1 -0.1)">
      <defs>
       <path id="DejaVuSans-Oblique-76" d="M 459 3500 
L 1069 3500 
L 1581 525 
L 3256 3500 
L 3866 3500 
L 1875 0 
L 1100 0 
L 459 3500 
z
" transform="scale(0.015625)"/>
       <path id="DejaVuSans-3d" d="M 678 2906 
L 4684 2906 
L 4684 2381 
L 678 2381 
L 678 2906 
z
M 678 1631 
L 4684 1631 
L 4684 1100 
L 678 1100 
L 678 1631 
z
" transform="scale(0.015625)"/>
      </defs>
      <use xlink:href="#DejaVuSans-Oblique-76" transform="translate(0 0.78125)"/>
      <use xlink:href="#DejaVuSans-3d" transform="translate(78.662109 0.78125)"/>
      <use xlink:href="#DejaVuSans-32" transform="translate(181.933594 0.78125)"/>
      <use xlink:href="#DejaVuSans-30" transform="translate(245.556641 0.78125)"/>
     </g>
    </g>
    <g id="line2d_23">
     <path d="M 329.723125 34.976562 
L 339.723125 34.976562 
L 349.723125 34.976562 
" style="fill: none; stroke: #beaed4; stroke-width: 1.5; stroke-linecap: square"/>
    </g>
    <g id="text_18">
     <!-- $v=25$ -->
     <g transform="translate(357.723125 38.476562) scale(0.1 -0.1)">
      <use xlink:href="#DejaVuSans-Oblique-76" transform="translate(0 0.78125)"/>
      <use xlink:href="#DejaVuSans-3d" transform="translate(78.662109 0.78125)"/>
      <use xlink:href="#DejaVuSans-32" transform="translate(181.933594 0.78125)"/>
      <use xlink:href="#DejaVuSans-35" transform="translate(245.556641 0.78125)"/>
     </g>
    </g>
    <g id="line2d_24">
     <path d="M 329.723125 49.654687 
L 339.723125 49.654687 
L 349.723125 49.654687 
" style="fill: none; stroke: #fdc086; stroke-width: 1.5; stroke-linecap: square"/>
    </g>
    <g id="text_19">
     <!-- $v=30$ -->
     <g transform="translate(357.723125 53.154687) scale(0.1 -0.1)">
      <use xlink:href="#DejaVuSans-Oblique-76" transform="translate(0 0.78125)"/>
      <use xlink:href="#DejaVuSans-3d" transform="translate(78.662109 0.78125)"/>
      <use xlink:href="#DejaVuSans-33" transform="translate(181.933594 0.78125)"/>
      <use xlink:href="#DejaVuSans-30" transform="translate(245.556641 0.78125)"/>
     </g>
    </g>
    <g id="line2d_25">
     <path d="M 329.723125 64.332812 
L 339.723125 64.332812 
L 349.723125 64.332812 
" style="fill: none; stroke: #386cb0; stroke-width: 1.5; stroke-linecap: square"/>
    </g>
    <g id="text_20">
     <!-- $v=35$ -->
     <g transform="translate(357.723125 67.832812) scale(0.1 -0.1)">
      <use xlink:href="#DejaVuSans-Oblique-76" transform="translate(0 0.78125)"/>
      <use xlink:href="#DejaVuSans-3d" transform="translate(78.662109 0.78125)"/>
      <use xlink:href="#DejaVuSans-33" transform="translate(181.933594 0.78125)"/>
      <use xlink:href="#DejaVuSans-35" transform="translate(245.556641 0.78125)"/>
     </g>
    </g>
    <g id="line2d_26">
     <path d="M 329.723125 79.010937 
L 339.723125 79.010937 
L 349.723125 79.010937 
" style="fill: none; stroke: #f0027f; stroke-width: 1.5; stroke-linecap: square"/>
    </g>
    <g id="text_21">
     <!-- $v=40$ -->
     <g transform="translate(357.723125 82.510937) scale(0.1 -0.1)">
      <use xlink:href="#DejaVuSans-Oblique-76" transform="translate(0 0.78125)"/>
      <use xlink:href="#DejaVuSans-3d" transform="translate(78.662109 0.78125)"/>
      <use xlink:href="#DejaVuSans-34" transform="translate(181.933594 0.78125)"/>
      <use xlink:href="#DejaVuSans-30" transform="translate(245.556641 0.78125)"/>
     </g>
    </g>
    <g id="line2d_27">
     <path d="M 329.723125 93.689062 
L 339.723125 93.689062 
L 349.723125 93.689062 
" style="fill: none; stroke: #bf5b17; stroke-width: 1.5; stroke-linecap: square"/>
    </g>
    <g id="text_22">
     <!-- $v=45$ -->
     <g transform="translate(357.723125 97.189062) scale(0.1 -0.1)">
      <use xlink:href="#DejaVuSans-Oblique-76" transform="translate(0 0.09375)"/>
      <use xlink:href="#DejaVuSans-3d" transform="translate(78.662109 0.09375)"/>
      <use xlink:href="#DejaVuSans-34" transform="translate(181.933594 0.09375)"/>
      <use xlink:href="#DejaVuSans-35" transform="translate(245.556641 0.09375)"/>
     </g>
    </g>
    <g id="line2d_28">
     <path d="M 329.723125 108.367187 
L 339.723125 108.367187 
L 349.723125 108.367187 
" style="fill: none; stroke: #666666; stroke-width: 1.5; stroke-linecap: square"/>
    </g>
    <g id="text_23">
     <!-- $v=50$ -->
     <g transform="translate(357.723125 111.867187) scale(0.1 -0.1)">
      <use xlink:href="#DejaVuSans-Oblique-76" transform="translate(0 0.78125)"/>
      <use xlink:href="#DejaVuSans-3d" transform="translate(78.662109 0.78125)"/>
      <use xlink:href="#DejaVuSans-35" transform="translate(181.933594 0.78125)"/>
      <use xlink:href="#DejaVuSans-30" transform="translate(245.556641 0.78125)"/>
     </g>
    </g>
   </g>
  </g>
 </g>
 <defs>
  <clipPath id="pe5180b8cc7">
   <rect x="40.603125" y="7.2" width="357.12" height="266.112"/>
  </clipPath>
 </defs>
</svg>
